  0
SECTION
  2
HEADER
  9
$ANGBASE
  50
0.0
  9
$ANGDIR
  70
1
  9
$MEASUREMENT
  70
1
  0
ENDSEC
  0
SECTION
  2
TABLES
  0
TABLE
  2
LTYPE
  70
4
  0
LTYPE
  5
40F
  2
CONTINUOUS
  70
0
  3
Solid line
  72
65
  73
0
  40
0.0
  0
LTYPE
  5
410
  2
DASHDOT
 70
0
  3
Dash Dot ____ _ ____ _
 72
65
 73
4
 40
2.0
 49
1.25
 49
-0.25
 49
0.25
 49
-0.25
  0
LTYPE
  5
411
  2
DASHED
 70
0
  3
Dashed __ __ __ __ __
 72
65
 73
2
 40
0.75
 49
0.5
 49
-0.25
  0
LTYPE
  5
43B
  2
DOTTED
 70
0
  3
Dotted .  .  .  .
 72
65
 73
2
 40
0.2
 49
0.0
 49
-0.2
  0
ENDTAB
  0
TABLE
  2
STYLE
  70
4
  0
STYLE
  2
KICAD
  70
0
  40
0
  41
1
  42
1
  50
0
  71
0
  3
isocp.shx
  0
STYLE
  2
KICADB
  70
0
  40
0
  41
1
  42
1
  50
0
  71
0
  3
isocp.shx
  0
STYLE
  2
KICADI
  70
0
  40
0
  41
1
  42
1
  50
15
  71
0
  3
isocp.shx
  0
STYLE
  2
KICADBI
  70
0
  40
0
  41
1
  42
1
  50
15
  71
0
  3
isocp.shx
  0
ENDTAB
  0
TABLE
  2
LAYER
  70
1
  0
LAYER
  2
BLACK
  70
0
  62
7
  6
CONTINUOUS
  0
ENDTAB
  0
ENDSEC
  0
SECTION
  2
ENTITIES
0
LINE
8
BLACK
6
CONTINUOUS
10
0
20
5
11
0
21
85
0
ARC
8
BLACK
10
5
20
5
40
5
50
-180
51
-90
0
LINE
8
BLACK
6
CONTINUOUS
10
65
20
85
11
65
21
5
0
ARC
8
BLACK
10
60
20
85
40
5
50
-0
51
90
0
ARC
8
BLACK
10
60
20
5
40
5
50
-90
51
-0
0
LINE
8
BLACK
6
CONTINUOUS
10
5
20
90
11
60
21
90
0
ARC
8
BLACK
10
5
20
85
40
5
50
90
51
180
0
LINE
8
BLACK
6
CONTINUOUS
10
60
20
0
11
5
21
0
0
LINE
8
BLACK
6
CONTINUOUS
10
23.3
20
32.4
11
23.7
21
32
0
LINE
8
BLACK
6
CONTINUOUS
10
23.7
20
32.4
11
23.3
21
32
0
LINE
8
BLACK
6
CONTINUOUS
10
23.3
20
28.95
11
23.7
21
28.55
0
LINE
8
BLACK
6
CONTINUOUS
10
23.7
20
28.95
11
23.3
21
28.55
0
LINE
8
BLACK
6
CONTINUOUS
10
23.3
20
25.5
11
23.7
21
25.1
0
LINE
8
BLACK
6
CONTINUOUS
10
23.7
20
25.5
11
23.3
21
25.1
0
LINE
8
BLACK
6
CONTINUOUS
10
23.3
20
22.05
11
23.7
21
21.65
0
LINE
8
BLACK
6
CONTINUOUS
10
23.7
20
22.05
11
23.3
21
21.65
0
LINE
8
BLACK
6
CONTINUOUS
10
25.95
20
31.25
11
26.35
21
30.85
0
LINE
8
BLACK
6
CONTINUOUS
10
26.35
20
31.25
11
25.95
21
30.85
0
LINE
8
BLACK
6
CONTINUOUS
10
25.95
20
27.8
11
26.35
21
27.4
0
LINE
8
BLACK
6
CONTINUOUS
10
26.35
20
27.8
11
25.95
21
27.4
0
LINE
8
BLACK
6
CONTINUOUS
10
25.95
20
24.35
11
26.35
21
23.95
0
LINE
8
BLACK
6
CONTINUOUS
10
26.35
20
24.35
11
25.95
21
23.95
0
LINE
8
BLACK
6
CONTINUOUS
10
25.95
20
20.9
11
26.35
21
20.5
0
LINE
8
BLACK
6
CONTINUOUS
10
26.35
20
20.9
11
25.95
21
20.5
0
LINE
8
BLACK
6
CONTINUOUS
10
28.775
20
30.775
11
29.175
21
30.375
0
LINE
8
BLACK
6
CONTINUOUS
10
29.175
20
30.775
11
28.775
21
30.375
0
LINE
8
BLACK
6
CONTINUOUS
10
28.775
20
23.975
11
29.175
21
23.575
0
LINE
8
BLACK
6
CONTINUOUS
10
29.175
20
23.975
11
28.775
21
23.575
0
LINE
8
BLACK
6
CONTINUOUS
10
28.8
20
34.3
11
29.2
21
33.9
0
LINE
8
BLACK
6
CONTINUOUS
10
29.2
20
34.3
11
28.8
21
33.9
0
LINE
8
BLACK
6
CONTINUOUS
10
28.8
20
27.4
11
29.2
21
27
0
LINE
8
BLACK
6
CONTINUOUS
10
29.2
20
27.4
11
28.8
21
27
0
LINE
8
BLACK
6
CONTINUOUS
10
29.4
20
14.8
11
29.8
21
14.4
0
LINE
8
BLACK
6
CONTINUOUS
10
29.8
20
14.8
11
29.4
21
14.4
0
LINE
8
BLACK
6
CONTINUOUS
10
29.4
20
5.65
11
29.8
21
5.25
0
LINE
8
BLACK
6
CONTINUOUS
10
29.8
20
5.65
11
29.4
21
5.25
0
LINE
8
BLACK
6
CONTINUOUS
10
31.94
20
14.8
11
32.34
21
14.4
0
LINE
8
BLACK
6
CONTINUOUS
10
32.34
20
14.8
11
31.94
21
14.4
0
LINE
8
BLACK
6
CONTINUOUS
10
31.94
20
5.65
11
32.34
21
5.25
0
LINE
8
BLACK
6
CONTINUOUS
10
32.34
20
5.65
11
31.94
21
5.25
0
LINE
8
BLACK
6
CONTINUOUS
10
33.8
20
53.4
11
34.2
21
53
0
LINE
8
BLACK
6
CONTINUOUS
10
34.2
20
53.4
11
33.8
21
53
0
LINE
8
BLACK
6
CONTINUOUS
10
33.8
20
49.95
11
34.2
21
49.55
0
LINE
8
BLACK
6
CONTINUOUS
10
34.2
20
49.95
11
33.8
21
49.55
0
LINE
8
BLACK
6
CONTINUOUS
10
33.8
20
46.5
11
34.2
21
46.1
0
LINE
8
BLACK
6
CONTINUOUS
10
34.2
20
46.5
11
33.8
21
46.1
0
LINE
8
BLACK
6
CONTINUOUS
10
33.8
20
43.05
11
34.2
21
42.65
0
LINE
8
BLACK
6
CONTINUOUS
10
34.2
20
43.05
11
33.8
21
42.65
0
LINE
8
BLACK
6
CONTINUOUS
10
34.48
20
14.8
11
34.88
21
14.4
0
LINE
8
BLACK
6
CONTINUOUS
10
34.88
20
14.8
11
34.48
21
14.4
0
LINE
8
BLACK
6
CONTINUOUS
10
34.48
20
5.65
11
34.88
21
5.25
0
LINE
8
BLACK
6
CONTINUOUS
10
34.88
20
5.65
11
34.48
21
5.25
0
LINE
8
BLACK
6
CONTINUOUS
10
36.45
20
52.25
11
36.85
21
51.85
0
LINE
8
BLACK
6
CONTINUOUS
10
36.85
20
52.25
11
36.45
21
51.85
0
LINE
8
BLACK
6
CONTINUOUS
10
36.45
20
48.8
11
36.85
21
48.4
0
LINE
8
BLACK
6
CONTINUOUS
10
36.85
20
48.8
11
36.45
21
48.4
0
LINE
8
BLACK
6
CONTINUOUS
10
36.45
20
45.35
11
36.85
21
44.95
0
LINE
8
BLACK
6
CONTINUOUS
10
36.85
20
45.35
11
36.45
21
44.95
0
LINE
8
BLACK
6
CONTINUOUS
10
36.45
20
41.9
11
36.85
21
41.5
0
LINE
8
BLACK
6
CONTINUOUS
10
36.85
20
41.9
11
36.45
21
41.5
0
LINE
8
BLACK
6
CONTINUOUS
10
37.02
20
14.8
11
37.42
21
14.4
0
LINE
8
BLACK
6
CONTINUOUS
10
37.42
20
14.8
11
37.02
21
14.4
0
LINE
8
BLACK
6
CONTINUOUS
10
37.02
20
5.65
11
37.42
21
5.25
0
LINE
8
BLACK
6
CONTINUOUS
10
37.42
20
5.65
11
37.02
21
5.25
0
LINE
8
BLACK
6
CONTINUOUS
10
39.275
20
48.375
11
39.675
21
47.975
0
LINE
8
BLACK
6
CONTINUOUS
10
39.675
20
48.375
11
39.275
21
47.975
0
LINE
8
BLACK
6
CONTINUOUS
10
39.275
20
44.975
11
39.675
21
44.575
0
LINE
8
BLACK
6
CONTINUOUS
10
39.675
20
44.975
11
39.275
21
44.575
0
LINE
8
BLACK
6
CONTINUOUS
10
39.3
20
55.3
11
39.7
21
54.9
0
LINE
8
BLACK
6
CONTINUOUS
10
39.7
20
55.3
11
39.3
21
54.9
0
LINE
8
BLACK
6
CONTINUOUS
10
39.3
20
51.9
11
39.7
21
51.5
0
LINE
8
BLACK
6
CONTINUOUS
10
39.7
20
51.9
11
39.3
21
51.5
0
LINE
8
BLACK
6
CONTINUOUS
10
39.56
20
14.8
11
39.96
21
14.4
0
LINE
8
BLACK
6
CONTINUOUS
10
39.96
20
14.8
11
39.56
21
14.4
0
LINE
8
BLACK
6
CONTINUOUS
10
39.56
20
5.65
11
39.96
21
5.25
0
LINE
8
BLACK
6
CONTINUOUS
10
39.96
20
5.65
11
39.56
21
5.25
0
LINE
8
BLACK
6
CONTINUOUS
10
40.6
20
64.38
11
41
21
63.98
0
LINE
8
BLACK
6
CONTINUOUS
10
41
20
64.38
11
40.6
21
63.98
0
LINE
8
BLACK
6
CONTINUOUS
10
42.1
20
14.8
11
42.5
21
14.4
0
LINE
8
BLACK
6
CONTINUOUS
10
42.5
20
14.8
11
42.1
21
14.4
0
LINE
8
BLACK
6
CONTINUOUS
10
42.1
20
5.65
11
42.5
21
5.25
0
LINE
8
BLACK
6
CONTINUOUS
10
42.5
20
5.65
11
42.1
21
5.25
0
LINE
8
BLACK
6
CONTINUOUS
10
43.35
20
66.23
11
43.75
21
65.83
0
LINE
8
BLACK
6
CONTINUOUS
10
43.75
20
66.23
11
43.35
21
65.83
0
LINE
8
BLACK
6
CONTINUOUS
10
43.35
20
62.58
11
43.75
21
62.18
0
LINE
8
BLACK
6
CONTINUOUS
10
43.75
20
62.58
11
43.35
21
62.18
0
LINE
8
BLACK
6
CONTINUOUS
10
44.64
20
14.8
11
45.04
21
14.4
0
LINE
8
BLACK
6
CONTINUOUS
10
45.04
20
14.8
11
44.64
21
14.4
0
LINE
8
BLACK
6
CONTINUOUS
10
44.64
20
5.65
11
45.04
21
5.25
0
LINE
8
BLACK
6
CONTINUOUS
10
45.04
20
5.65
11
44.64
21
5.25
0
LINE
8
BLACK
6
CONTINUOUS
10
46.1
20
64.38
11
46.5
21
63.98
0
LINE
8
BLACK
6
CONTINUOUS
10
46.5
20
64.38
11
46.1
21
63.98
0
LINE
8
BLACK
6
CONTINUOUS
10
47.18
20
14.8
11
47.58
21
14.4
0
LINE
8
BLACK
6
CONTINUOUS
10
47.58
20
14.8
11
47.18
21
14.4
0
LINE
8
BLACK
6
CONTINUOUS
10
47.18
20
5.65
11
47.58
21
5.25
0
LINE
8
BLACK
6
CONTINUOUS
10
47.58
20
5.65
11
47.18
21
5.25
0
CIRCLE
8
BLACK
10
2.6
20
85
40
0.25
0
CIRCLE
8
BLACK
10
2.6
20
5
40
0.25
0
CIRCLE
8
BLACK
10
3.30294
20
86.6971
40
0.25
0
CIRCLE
8
BLACK
10
3.30294
20
83.3029
40
0.25
0
CIRCLE
8
BLACK
10
3.30294
20
6.69706
40
0.25
0
CIRCLE
8
BLACK
10
3.30294
20
3.30294
40
0.25
0
CIRCLE
8
BLACK
10
5
20
87.4
40
0.25
0
CIRCLE
8
BLACK
10
5
20
82.6
40
0.25
0
CIRCLE
8
BLACK
10
5
20
7.4
40
0.25
0
CIRCLE
8
BLACK
10
5
20
2.6
40
0.25
0
CIRCLE
8
BLACK
10
6.69706
20
86.6971
40
0.25
0
CIRCLE
8
BLACK
10
6.69706
20
83.3029
40
0.25
0
CIRCLE
8
BLACK
10
6.69706
20
6.69706
40
0.25
0
CIRCLE
8
BLACK
10
6.69706
20
3.30294
40
0.25
0
CIRCLE
8
BLACK
10
7.4
20
85
40
0.25
0
CIRCLE
8
BLACK
10
7.4
20
5
40
0.25
0
CIRCLE
8
BLACK
10
44.9
20
79.4
40
0.25
0
CIRCLE
8
BLACK
10
45.9
20
79.4
40
0.25
0
CIRCLE
8
BLACK
10
52
20
45
40
0.25
0
CIRCLE
8
BLACK
10
52
20
44
40
0.25
0
CIRCLE
8
BLACK
10
57.6
20
45
40
0.25
0
CIRCLE
8
BLACK
10
58.3029
20
46.6971
40
0.25
0
CIRCLE
8
BLACK
10
58.3029
20
43.3029
40
0.25
0
CIRCLE
8
BLACK
10
60
20
47.4
40
0.25
0
CIRCLE
8
BLACK
10
60
20
42.6
40
0.25
0
CIRCLE
8
BLACK
10
61.6971
20
46.6971
40
0.25
0
CIRCLE
8
BLACK
10
61.6971
20
43.3029
40
0.25
0
CIRCLE
8
BLACK
10
62.4
20
45
40
0.25
0
LINE
8
BLACK
6
CONTINUOUS
10
56.865
20
60.91
11
56.865
21
60.17
0
LINE
8
BLACK
6
CONTINUOUS
10
56.495
20
60.54
11
57.235
21
60.54
0
LINE
8
BLACK
6
CONTINUOUS
10
56.865
20
59.64
11
56.865
21
58.9
0
LINE
8
BLACK
6
CONTINUOUS
10
56.495
20
59.27
11
57.235
21
59.27
0
LINE
8
BLACK
6
CONTINUOUS
10
56.865
20
58.37
11
56.865
21
57.63
0
LINE
8
BLACK
6
CONTINUOUS
10
56.495
20
58
11
57.235
21
58
0
LINE
8
BLACK
6
CONTINUOUS
10
56.865
20
57.1
11
56.865
21
56.36
0
LINE
8
BLACK
6
CONTINUOUS
10
56.495
20
56.73
11
57.235
21
56.73
0
LINE
8
BLACK
6
CONTINUOUS
10
56.865
20
55.83
11
56.865
21
55.09
0
LINE
8
BLACK
6
CONTINUOUS
10
56.495
20
55.46
11
57.235
21
55.46
0
LINE
8
BLACK
6
CONTINUOUS
10
56.865
20
34.91
11
56.865
21
34.17
0
LINE
8
BLACK
6
CONTINUOUS
10
56.495
20
34.54
11
57.235
21
34.54
0
LINE
8
BLACK
6
CONTINUOUS
10
56.865
20
33.64
11
56.865
21
32.9
0
LINE
8
BLACK
6
CONTINUOUS
10
56.495
20
33.27
11
57.235
21
33.27
0
LINE
8
BLACK
6
CONTINUOUS
10
56.865
20
32.37
11
56.865
21
31.63
0
LINE
8
BLACK
6
CONTINUOUS
10
56.495
20
32
11
57.235
21
32
0
LINE
8
BLACK
6
CONTINUOUS
10
56.865
20
31.1
11
56.865
21
30.36
0
LINE
8
BLACK
6
CONTINUOUS
10
56.495
20
30.73
11
57.235
21
30.73
0
LINE
8
BLACK
6
CONTINUOUS
10
56.865
20
29.83
11
56.865
21
29.09
0
LINE
8
BLACK
6
CONTINUOUS
10
56.495
20
29.46
11
57.235
21
29.46
0
LINE
8
BLACK
6
CONTINUOUS
10
58.135
20
60.91
11
58.135
21
60.17
0
LINE
8
BLACK
6
CONTINUOUS
10
57.765
20
60.54
11
58.505
21
60.54
0
LINE
8
BLACK
6
CONTINUOUS
10
58.135
20
59.64
11
58.135
21
58.9
0
LINE
8
BLACK
6
CONTINUOUS
10
57.765
20
59.27
11
58.505
21
59.27
0
LINE
8
BLACK
6
CONTINUOUS
10
58.135
20
58.37
11
58.135
21
57.63
0
LINE
8
BLACK
6
CONTINUOUS
10
57.765
20
58
11
58.505
21
58
0
LINE
8
BLACK
6
CONTINUOUS
10
58.135
20
57.1
11
58.135
21
56.36
0
LINE
8
BLACK
6
CONTINUOUS
10
57.765
20
56.73
11
58.505
21
56.73
0
LINE
8
BLACK
6
CONTINUOUS
10
58.135
20
55.83
11
58.135
21
55.09
0
LINE
8
BLACK
6
CONTINUOUS
10
57.765
20
55.46
11
58.505
21
55.46
0
LINE
8
BLACK
6
CONTINUOUS
10
58.135
20
34.91
11
58.135
21
34.17
0
LINE
8
BLACK
6
CONTINUOUS
10
57.765
20
34.54
11
58.505
21
34.54
0
LINE
8
BLACK
6
CONTINUOUS
10
58.135
20
33.64
11
58.135
21
32.9
0
LINE
8
BLACK
6
CONTINUOUS
10
57.765
20
33.27
11
58.505
21
33.27
0
LINE
8
BLACK
6
CONTINUOUS
10
58.135
20
32.37
11
58.135
21
31.63
0
LINE
8
BLACK
6
CONTINUOUS
10
57.765
20
32
11
58.505
21
32
0
LINE
8
BLACK
6
CONTINUOUS
10
58.135
20
31.1
11
58.135
21
30.36
0
LINE
8
BLACK
6
CONTINUOUS
10
57.765
20
30.73
11
58.505
21
30.73
0
LINE
8
BLACK
6
CONTINUOUS
10
58.135
20
29.83
11
58.135
21
29.09
0
LINE
8
BLACK
6
CONTINUOUS
10
57.765
20
29.46
11
58.505
21
29.46
0
LINE
8
BLACK
6
CONTINUOUS
10
12.1036
20
80.8964
11
12.1036
21
81.6036
0
LINE
8
BLACK
6
CONTINUOUS
10
12.1036
20
81.6036
11
11.3964
21
81.6036
0
LINE
8
BLACK
6
CONTINUOUS
10
11.3964
20
81.6036
11
11.3964
21
80.8964
0
LINE
8
BLACK
6
CONTINUOUS
10
11.3964
20
80.8964
11
12.1036
21
80.8964
0
LINE
8
BLACK
6
CONTINUOUS
10
12.1036
20
78.3564
11
12.1036
21
79.0636
0
LINE
8
BLACK
6
CONTINUOUS
10
12.1036
20
79.0636
11
11.3964
21
79.0636
0
LINE
8
BLACK
6
CONTINUOUS
10
11.3964
20
79.0636
11
11.3964
21
78.3564
0
LINE
8
BLACK
6
CONTINUOUS
10
11.3964
20
78.3564
11
12.1036
21
78.3564
0
LINE
8
BLACK
6
CONTINUOUS
10
12.1036
20
75.8164
11
12.1036
21
76.5236
0
LINE
8
BLACK
6
CONTINUOUS
10
12.1036
20
76.5236
11
11.3964
21
76.5236
0
LINE
8
BLACK
6
CONTINUOUS
10
11.3964
20
76.5236
11
11.3964
21
75.8164
0
LINE
8
BLACK
6
CONTINUOUS
10
11.3964
20
75.8164
11
12.1036
21
75.8164
0
LINE
8
BLACK
6
CONTINUOUS
10
12.1036
20
73.2764
11
12.1036
21
73.9836
0
LINE
8
BLACK
6
CONTINUOUS
10
12.1036
20
73.9836
11
11.3964
21
73.9836
0
LINE
8
BLACK
6
CONTINUOUS
10
11.3964
20
73.9836
11
11.3964
21
73.2764
0
LINE
8
BLACK
6
CONTINUOUS
10
11.3964
20
73.2764
11
12.1036
21
73.2764
0
LINE
8
BLACK
6
CONTINUOUS
10
12.1036
20
70.7364
11
12.1036
21
71.4436
0
LINE
8
BLACK
6
CONTINUOUS
10
12.1036
20
71.4436
11
11.3964
21
71.4436
0
LINE
8
BLACK
6
CONTINUOUS
10
11.3964
20
71.4436
11
11.3964
21
70.7364
0
LINE
8
BLACK
6
CONTINUOUS
10
11.3964
20
70.7364
11
12.1036
21
70.7364
0
LINE
8
BLACK
6
CONTINUOUS
10
12.1036
20
68.1964
11
12.1036
21
68.9036
0
LINE
8
BLACK
6
CONTINUOUS
10
12.1036
20
68.9036
11
11.3964
21
68.9036
0
LINE
8
BLACK
6
CONTINUOUS
10
11.3964
20
68.9036
11
11.3964
21
68.1964
0
LINE
8
BLACK
6
CONTINUOUS
10
11.3964
20
68.1964
11
12.1036
21
68.1964
0
LINE
8
BLACK
6
CONTINUOUS
10
12.1036
20
65.6564
11
12.1036
21
66.3636
0
LINE
8
BLACK
6
CONTINUOUS
10
12.1036
20
66.3636
11
11.3964
21
66.3636
0
LINE
8
BLACK
6
CONTINUOUS
10
11.3964
20
66.3636
11
11.3964
21
65.6564
0
LINE
8
BLACK
6
CONTINUOUS
10
11.3964
20
65.6564
11
12.1036
21
65.6564
0
LINE
8
BLACK
6
CONTINUOUS
10
12.1036
20
63.1164
11
12.1036
21
63.8236
0
LINE
8
BLACK
6
CONTINUOUS
10
12.1036
20
63.8236
11
11.3964
21
63.8236
0
LINE
8
BLACK
6
CONTINUOUS
10
11.3964
20
63.8236
11
11.3964
21
63.1164
0
LINE
8
BLACK
6
CONTINUOUS
10
11.3964
20
63.1164
11
12.1036
21
63.1164
0
LINE
8
BLACK
6
CONTINUOUS
10
34.9636
20
80.8964
11
34.9636
21
81.6036
0
LINE
8
BLACK
6
CONTINUOUS
10
34.9636
20
81.6036
11
34.2564
21
81.6036
0
LINE
8
BLACK
6
CONTINUOUS
10
34.2564
20
81.6036
11
34.2564
21
80.8964
0
LINE
8
BLACK
6
CONTINUOUS
10
34.2564
20
80.8964
11
34.9636
21
80.8964
0
LINE
8
BLACK
6
CONTINUOUS
10
34.9636
20
78.3564
11
34.9636
21
79.0636
0
LINE
8
BLACK
6
CONTINUOUS
10
34.9636
20
79.0636
11
34.2564
21
79.0636
0
LINE
8
BLACK
6
CONTINUOUS
10
34.2564
20
79.0636
11
34.2564
21
78.3564
0
LINE
8
BLACK
6
CONTINUOUS
10
34.2564
20
78.3564
11
34.9636
21
78.3564
0
LINE
8
BLACK
6
CONTINUOUS
10
34.9636
20
75.8164
11
34.9636
21
76.5236
0
LINE
8
BLACK
6
CONTINUOUS
10
34.9636
20
76.5236
11
34.2564
21
76.5236
0
LINE
8
BLACK
6
CONTINUOUS
10
34.2564
20
76.5236
11
34.2564
21
75.8164
0
LINE
8
BLACK
6
CONTINUOUS
10
34.2564
20
75.8164
11
34.9636
21
75.8164
0
LINE
8
BLACK
6
CONTINUOUS
10
34.9636
20
73.2764
11
34.9636
21
73.9836
0
LINE
8
BLACK
6
CONTINUOUS
10
34.9636
20
73.9836
11
34.2564
21
73.9836
0
LINE
8
BLACK
6
CONTINUOUS
10
34.2564
20
73.9836
11
34.2564
21
73.2764
0
LINE
8
BLACK
6
CONTINUOUS
10
34.2564
20
73.2764
11
34.9636
21
73.2764
0
LINE
8
BLACK
6
CONTINUOUS
10
34.9636
20
70.7364
11
34.9636
21
71.4436
0
LINE
8
BLACK
6
CONTINUOUS
10
34.9636
20
71.4436
11
34.2564
21
71.4436
0
LINE
8
BLACK
6
CONTINUOUS
10
34.2564
20
71.4436
11
34.2564
21
70.7364
0
LINE
8
BLACK
6
CONTINUOUS
10
34.2564
20
70.7364
11
34.9636
21
70.7364
0
LINE
8
BLACK
6
CONTINUOUS
10
34.9636
20
68.1964
11
34.9636
21
68.9036
0
LINE
8
BLACK
6
CONTINUOUS
10
34.9636
20
68.9036
11
34.2564
21
68.9036
0
LINE
8
BLACK
6
CONTINUOUS
10
34.2564
20
68.9036
11
34.2564
21
68.1964
0
LINE
8
BLACK
6
CONTINUOUS
10
34.2564
20
68.1964
11
34.9636
21
68.1964
0
LINE
8
BLACK
6
CONTINUOUS
10
34.9636
20
65.6564
11
34.9636
21
66.3636
0
LINE
8
BLACK
6
CONTINUOUS
10
34.9636
20
66.3636
11
34.2564
21
66.3636
0
LINE
8
BLACK
6
CONTINUOUS
10
34.2564
20
66.3636
11
34.2564
21
65.6564
0
LINE
8
BLACK
6
CONTINUOUS
10
34.2564
20
65.6564
11
34.9636
21
65.6564
0
LINE
8
BLACK
6
CONTINUOUS
10
34.9636
20
63.1164
11
34.9636
21
63.8236
0
LINE
8
BLACK
6
CONTINUOUS
10
34.9636
20
63.8236
11
34.2564
21
63.8236
0
LINE
8
BLACK
6
CONTINUOUS
10
34.2564
20
63.8236
11
34.2564
21
63.1164
0
LINE
8
BLACK
6
CONTINUOUS
10
34.2564
20
63.1164
11
34.9636
21
63.1164
0
LINE
8
BLACK
6
CONTINUOUS
10
53.2
20
69.86
11
53.84
21
70.5
0
LINE
8
BLACK
6
CONTINUOUS
10
53.84
20
70.5
11
53.2
21
71.14
0
LINE
8
BLACK
6
CONTINUOUS
10
53.2
20
71.14
11
52.56
21
70.5
0
LINE
8
BLACK
6
CONTINUOUS
10
52.56
20
70.5
11
53.2
21
69.86
0
LINE
8
BLACK
6
CONTINUOUS
10
53.2
20
67.32
11
53.84
21
67.96
0
LINE
8
BLACK
6
CONTINUOUS
10
53.84
20
67.96
11
53.2
21
68.6
0
LINE
8
BLACK
6
CONTINUOUS
10
53.2
20
68.6
11
52.56
21
67.96
0
LINE
8
BLACK
6
CONTINUOUS
10
52.56
20
67.96
11
53.2
21
67.32
0
LINE
8
BLACK
6
CONTINUOUS
10
53.2
20
64.78
11
53.84
21
65.42
0
LINE
8
BLACK
6
CONTINUOUS
10
53.84
20
65.42
11
53.2
21
66.06
0
LINE
8
BLACK
6
CONTINUOUS
10
53.2
20
66.06
11
52.56
21
65.42
0
LINE
8
BLACK
6
CONTINUOUS
10
52.56
20
65.42
11
53.2
21
64.78
0
LINE
8
BLACK
6
CONTINUOUS
10
3.4
20
86.6
11
6.6
21
83.4
0
LINE
8
BLACK
6
CONTINUOUS
10
6.6
20
86.6
11
3.4
21
83.4
0
CIRCLE
8
BLACK
10
5
20
85
40
1.6
0
LINE
8
BLACK
6
CONTINUOUS
10
3.4
20
6.6
11
6.6
21
3.4
0
LINE
8
BLACK
6
CONTINUOUS
10
6.6
20
6.6
11
3.4
21
3.4
0
CIRCLE
8
BLACK
10
5
20
5
40
1.6
0
LINE
8
BLACK
6
CONTINUOUS
10
58.4
20
46.6
11
61.6
21
43.4
0
LINE
8
BLACK
6
CONTINUOUS
10
61.6
20
46.6
11
58.4
21
43.4
0
CIRCLE
8
BLACK
10
60
20
45
40
1.6
0
LINE
8
BLACK
6
CONTINUOUS
10
2.57569
20
-3.10526
11
2.57569
21
-1.10526
0
LINE
8
BLACK
6
CONTINUOUS
10
2.57569
20
-1.10526
11
3.05188
21
-1.10526
0
LINE
8
BLACK
6
CONTINUOUS
10
3.05188
20
-1.10526
11
3.33759
21
-1.2005
0
LINE
8
BLACK
6
CONTINUOUS
10
3.33759
20
-1.2005
11
3.52807
21
-1.39098
0
LINE
8
BLACK
6
CONTINUOUS
10
3.52807
20
-1.39098
11
3.62331
21
-1.58145
0
LINE
8
BLACK
6
CONTINUOUS
10
3.62331
20
-1.58145
11
3.71855
21
-1.9624
0
LINE
8
BLACK
6
CONTINUOUS
10
3.71855
20
-1.9624
11
3.71855
21
-2.24812
0
LINE
8
BLACK
6
CONTINUOUS
10
3.71855
20
-2.24812
11
3.62331
21
-2.62907
0
LINE
8
BLACK
6
CONTINUOUS
10
3.62331
20
-2.62907
11
3.52807
21
-2.81955
0
LINE
8
BLACK
6
CONTINUOUS
10
3.52807
20
-2.81955
11
3.33759
21
-3.01002
0
LINE
8
BLACK
6
CONTINUOUS
10
3.33759
20
-3.01002
11
3.05188
21
-3.10526
0
LINE
8
BLACK
6
CONTINUOUS
10
3.05188
20
-3.10526
11
2.57569
21
-3.10526
0
LINE
8
BLACK
6
CONTINUOUS
10
4.57569
20
-3.10526
11
4.57569
21
-1.77193
0
LINE
8
BLACK
6
CONTINUOUS
10
4.57569
20
-2.15288
11
4.67093
21
-1.9624
0
LINE
8
BLACK
6
CONTINUOUS
10
4.67093
20
-1.9624
11
4.76617
21
-1.86717
0
LINE
8
BLACK
6
CONTINUOUS
10
4.76617
20
-1.86717
11
4.95664
21
-1.77193
0
LINE
8
BLACK
6
CONTINUOUS
10
4.95664
20
-1.77193
11
5.14712
21
-1.77193
0
LINE
8
BLACK
6
CONTINUOUS
10
5.81378
20
-3.10526
11
5.81378
21
-1.77193
0
LINE
8
BLACK
6
CONTINUOUS
10
5.81378
20
-1.10526
11
5.71855
21
-1.2005
0
LINE
8
BLACK
6
CONTINUOUS
10
5.71855
20
-1.2005
11
5.81378
21
-1.29574
0
LINE
8
BLACK
6
CONTINUOUS
10
5.81378
20
-1.29574
11
5.90902
21
-1.2005
0
LINE
8
BLACK
6
CONTINUOUS
10
5.90902
20
-1.2005
11
5.81378
21
-1.10526
0
LINE
8
BLACK
6
CONTINUOUS
10
5.81378
20
-1.10526
11
5.81378
21
-1.29574
0
LINE
8
BLACK
6
CONTINUOUS
10
7.05188
20
-3.10526
11
6.8614
21
-3.01002
0
LINE
8
BLACK
6
CONTINUOUS
10
6.8614
20
-3.01002
11
6.76617
21
-2.81955
0
LINE
8
BLACK
6
CONTINUOUS
10
6.76617
20
-2.81955
11
6.76617
21
-1.10526
0
LINE
8
BLACK
6
CONTINUOUS
10
8.0995
20
-3.10526
11
7.90902
21
-3.01002
0
LINE
8
BLACK
6
CONTINUOUS
10
7.90902
20
-3.01002
11
7.81378
21
-2.81955
0
LINE
8
BLACK
6
CONTINUOUS
10
7.81378
20
-2.81955
11
7.81378
21
-1.10526
0
LINE
8
BLACK
6
CONTINUOUS
10
10.3852
20
-3.10526
11
10.3852
21
-1.10526
0
LINE
8
BLACK
6
CONTINUOUS
10
10.3852
20
-1.10526
11
11.0519
21
-2.53383
0
LINE
8
BLACK
6
CONTINUOUS
10
11.0519
20
-2.53383
11
11.7185
21
-1.10526
0
LINE
8
BLACK
6
CONTINUOUS
10
11.7185
20
-1.10526
11
11.7185
21
-3.10526
0
LINE
8
BLACK
6
CONTINUOUS
10
13.5281
20
-3.10526
11
13.5281
21
-2.05764
0
LINE
8
BLACK
6
CONTINUOUS
10
13.5281
20
-2.05764
11
13.4328
21
-1.86717
0
LINE
8
BLACK
6
CONTINUOUS
10
13.4328
20
-1.86717
11
13.2424
21
-1.77193
0
LINE
8
BLACK
6
CONTINUOUS
10
13.2424
20
-1.77193
11
12.8614
21
-1.77193
0
LINE
8
BLACK
6
CONTINUOUS
10
12.8614
20
-1.77193
11
12.6709
21
-1.86717
0
LINE
8
BLACK
6
CONTINUOUS
10
13.5281
20
-3.01002
11
13.3376
21
-3.10526
0
LINE
8
BLACK
6
CONTINUOUS
10
13.3376
20
-3.10526
11
12.8614
21
-3.10526
0
LINE
8
BLACK
6
CONTINUOUS
10
12.8614
20
-3.10526
11
12.6709
21
-3.01002
0
LINE
8
BLACK
6
CONTINUOUS
10
12.6709
20
-3.01002
11
12.5757
21
-2.81955
0
LINE
8
BLACK
6
CONTINUOUS
10
12.5757
20
-2.81955
11
12.5757
21
-2.62907
0
LINE
8
BLACK
6
CONTINUOUS
10
12.5757
20
-2.62907
11
12.6709
21
-2.43859
0
LINE
8
BLACK
6
CONTINUOUS
10
12.6709
20
-2.43859
11
12.8614
21
-2.34336
0
LINE
8
BLACK
6
CONTINUOUS
10
12.8614
20
-2.34336
11
13.3376
21
-2.34336
0
LINE
8
BLACK
6
CONTINUOUS
10
13.3376
20
-2.34336
11
13.5281
21
-2.24812
0
LINE
8
BLACK
6
CONTINUOUS
10
14.4805
20
-1.77193
11
14.4805
21
-3.77193
0
LINE
8
BLACK
6
CONTINUOUS
10
14.4805
20
-1.86717
11
14.6709
21
-1.77193
0
LINE
8
BLACK
6
CONTINUOUS
10
14.6709
20
-1.77193
11
15.0519
21
-1.77193
0
LINE
8
BLACK
6
CONTINUOUS
10
15.0519
20
-1.77193
11
15.2424
21
-1.86717
0
LINE
8
BLACK
6
CONTINUOUS
10
15.2424
20
-1.86717
11
15.3376
21
-1.9624
0
LINE
8
BLACK
6
CONTINUOUS
10
15.3376
20
-1.9624
11
15.4328
21
-2.15288
0
LINE
8
BLACK
6
CONTINUOUS
10
15.4328
20
-2.15288
11
15.4328
21
-2.72431
0
LINE
8
BLACK
6
CONTINUOUS
10
15.4328
20
-2.72431
11
15.3376
21
-2.91478
0
LINE
8
BLACK
6
CONTINUOUS
10
15.3376
20
-2.91478
11
15.2424
21
-3.01002
0
LINE
8
BLACK
6
CONTINUOUS
10
15.2424
20
-3.01002
11
15.0519
21
-3.10526
0
LINE
8
BLACK
6
CONTINUOUS
10
15.0519
20
-3.10526
11
14.6709
21
-3.10526
0
LINE
8
BLACK
6
CONTINUOUS
10
14.6709
20
-3.10526
11
14.4805
21
-3.01002
0
LINE
8
BLACK
6
CONTINUOUS
10
16.29
20
-2.91478
11
16.3852
21
-3.01002
0
LINE
8
BLACK
6
CONTINUOUS
10
16.3852
20
-3.01002
11
16.29
21
-3.10526
0
LINE
8
BLACK
6
CONTINUOUS
10
16.29
20
-3.10526
11
16.1947
21
-3.01002
0
LINE
8
BLACK
6
CONTINUOUS
10
16.1947
20
-3.01002
11
16.29
21
-2.91478
0
LINE
8
BLACK
6
CONTINUOUS
10
16.29
20
-2.91478
11
16.29
21
-3.10526
0
LINE
8
BLACK
6
CONTINUOUS
10
16.29
20
-1.86717
11
16.3852
21
-1.9624
0
LINE
8
BLACK
6
CONTINUOUS
10
16.3852
20
-1.9624
11
16.29
21
-2.05764
0
LINE
8
BLACK
6
CONTINUOUS
10
16.29
20
-2.05764
11
16.1947
21
-1.9624
0
LINE
8
BLACK
6
CONTINUOUS
10
16.1947
20
-1.9624
11
16.29
21
-1.86717
0
LINE
8
BLACK
6
CONTINUOUS
10
16.29
20
-1.86717
11
16.29
21
-2.05764
0
LINE
8
BLACK
6
CONTINUOUS
10
-0.4005
20
-6.2005
11
-0.0005
21
-6.6005
0
LINE
8
BLACK
6
CONTINUOUS
10
-0.0005
20
-6.2005
11
-0.4005
21
-6.6005
0
LINE
8
BLACK
6
CONTINUOUS
10
2.95664
20
-5.30526
11
3.14712
21
-5.30526
0
LINE
8
BLACK
6
CONTINUOUS
10
3.14712
20
-5.30526
11
3.33759
21
-5.4005
0
LINE
8
BLACK
6
CONTINUOUS
10
3.33759
20
-5.4005
11
3.43283
21
-5.49574
0
LINE
8
BLACK
6
CONTINUOUS
10
3.43283
20
-5.49574
11
3.52807
21
-5.68621
0
LINE
8
BLACK
6
CONTINUOUS
10
3.52807
20
-5.68621
11
3.62331
21
-6.06717
0
LINE
8
BLACK
6
CONTINUOUS
10
3.62331
20
-6.06717
11
3.62331
21
-6.54336
0
LINE
8
BLACK
6
CONTINUOUS
10
3.62331
20
-6.54336
11
3.52807
21
-6.92431
0
LINE
8
BLACK
6
CONTINUOUS
10
3.52807
20
-6.92431
11
3.43283
21
-7.11478
0
LINE
8
BLACK
6
CONTINUOUS
10
3.43283
20
-7.11478
11
3.33759
21
-7.21002
0
LINE
8
BLACK
6
CONTINUOUS
10
3.33759
20
-7.21002
11
3.14712
21
-7.30526
0
LINE
8
BLACK
6
CONTINUOUS
10
3.14712
20
-7.30526
11
2.95664
21
-7.30526
0
LINE
8
BLACK
6
CONTINUOUS
10
2.95664
20
-7.30526
11
2.76617
21
-7.21002
0
LINE
8
BLACK
6
CONTINUOUS
10
2.76617
20
-7.21002
11
2.67093
21
-7.11478
0
LINE
8
BLACK
6
CONTINUOUS
10
2.67093
20
-7.11478
11
2.57569
21
-6.92431
0
LINE
8
BLACK
6
CONTINUOUS
10
2.57569
20
-6.92431
11
2.48045
21
-6.54336
0
LINE
8
BLACK
6
CONTINUOUS
10
2.48045
20
-6.54336
11
2.48045
21
-6.06717
0
LINE
8
BLACK
6
CONTINUOUS
10
2.48045
20
-6.06717
11
2.57569
21
-5.68621
0
LINE
8
BLACK
6
CONTINUOUS
10
2.57569
20
-5.68621
11
2.67093
21
-5.49574
0
LINE
8
BLACK
6
CONTINUOUS
10
2.67093
20
-5.49574
11
2.76617
21
-5.4005
0
LINE
8
BLACK
6
CONTINUOUS
10
2.76617
20
-5.4005
11
2.95664
21
-5.30526
0
LINE
8
BLACK
6
CONTINUOUS
10
4.48045
20
-7.11478
11
4.57569
21
-7.21002
0
LINE
8
BLACK
6
CONTINUOUS
10
4.57569
20
-7.21002
11
4.48045
21
-7.30526
0
LINE
8
BLACK
6
CONTINUOUS
10
4.48045
20
-7.30526
11
4.38521
21
-7.21002
0
LINE
8
BLACK
6
CONTINUOUS
10
4.38521
20
-7.21002
11
4.48045
21
-7.11478
0
LINE
8
BLACK
6
CONTINUOUS
10
4.48045
20
-7.11478
11
4.48045
21
-7.30526
0
LINE
8
BLACK
6
CONTINUOUS
10
6.28998
20
-5.97193
11
6.28998
21
-7.30526
0
LINE
8
BLACK
6
CONTINUOUS
10
5.81378
20
-5.21002
11
5.33759
21
-6.63859
0
LINE
8
BLACK
6
CONTINUOUS
10
5.33759
20
-6.63859
11
6.57569
21
-6.63859
0
LINE
8
BLACK
6
CONTINUOUS
10
7.71855
20
-5.30526
11
7.90902
21
-5.30526
0
LINE
8
BLACK
6
CONTINUOUS
10
7.90902
20
-5.30526
11
8.0995
21
-5.4005
0
LINE
8
BLACK
6
CONTINUOUS
10
8.0995
20
-5.4005
11
8.19474
21
-5.49574
0
LINE
8
BLACK
6
CONTINUOUS
10
8.19474
20
-5.49574
11
8.28998
21
-5.68621
0
LINE
8
BLACK
6
CONTINUOUS
10
8.28998
20
-5.68621
11
8.38521
21
-6.06717
0
LINE
8
BLACK
6
CONTINUOUS
10
8.38521
20
-6.06717
11
8.38521
21
-6.54336
0
LINE
8
BLACK
6
CONTINUOUS
10
8.38521
20
-6.54336
11
8.28998
21
-6.92431
0
LINE
8
BLACK
6
CONTINUOUS
10
8.28998
20
-6.92431
11
8.19474
21
-7.11478
0
LINE
8
BLACK
6
CONTINUOUS
10
8.19474
20
-7.11478
11
8.0995
21
-7.21002
0
LINE
8
BLACK
6
CONTINUOUS
10
8.0995
20
-7.21002
11
7.90902
21
-7.30526
0
LINE
8
BLACK
6
CONTINUOUS
10
7.90902
20
-7.30526
11
7.71855
21
-7.30526
0
LINE
8
BLACK
6
CONTINUOUS
10
7.71855
20
-7.30526
11
7.52807
21
-7.21002
0
LINE
8
BLACK
6
CONTINUOUS
10
7.52807
20
-7.21002
11
7.43283
21
-7.11478
0
LINE
8
BLACK
6
CONTINUOUS
10
7.43283
20
-7.11478
11
7.33759
21
-6.92431
0
LINE
8
BLACK
6
CONTINUOUS
10
7.33759
20
-6.92431
11
7.24236
21
-6.54336
0
LINE
8
BLACK
6
CONTINUOUS
10
7.24236
20
-6.54336
11
7.24236
21
-6.06717
0
LINE
8
BLACK
6
CONTINUOUS
10
7.24236
20
-6.06717
11
7.33759
21
-5.68621
0
LINE
8
BLACK
6
CONTINUOUS
10
7.33759
20
-5.68621
11
7.43283
21
-5.49574
0
LINE
8
BLACK
6
CONTINUOUS
10
7.43283
20
-5.49574
11
7.52807
21
-5.4005
0
LINE
8
BLACK
6
CONTINUOUS
10
7.52807
20
-5.4005
11
7.71855
21
-5.30526
0
LINE
8
BLACK
6
CONTINUOUS
10
9.62331
20
-5.30526
11
9.81378
21
-5.30526
0
LINE
8
BLACK
6
CONTINUOUS
10
9.81378
20
-5.30526
11
10.0043
21
-5.4005
0
LINE
8
BLACK
6
CONTINUOUS
10
10.0043
20
-5.4005
11
10.0995
21
-5.49574
0
LINE
8
BLACK
6
CONTINUOUS
10
10.0995
20
-5.49574
11
10.1947
21
-5.68621
0
LINE
8
BLACK
6
CONTINUOUS
10
10.1947
20
-5.68621
11
10.29
21
-6.06717
0
LINE
8
BLACK
6
CONTINUOUS
10
10.29
20
-6.06717
11
10.29
21
-6.54336
0
LINE
8
BLACK
6
CONTINUOUS
10
10.29
20
-6.54336
11
10.1947
21
-6.92431
0
LINE
8
BLACK
6
CONTINUOUS
10
10.1947
20
-6.92431
11
10.0995
21
-7.11478
0
LINE
8
BLACK
6
CONTINUOUS
10
10.0995
20
-7.11478
11
10.0043
21
-7.21002
0
LINE
8
BLACK
6
CONTINUOUS
10
10.0043
20
-7.21002
11
9.81378
21
-7.30526
0
LINE
8
BLACK
6
CONTINUOUS
10
9.81378
20
-7.30526
11
9.62331
21
-7.30526
0
LINE
8
BLACK
6
CONTINUOUS
10
9.62331
20
-7.30526
11
9.43283
21
-7.21002
0
LINE
8
BLACK
6
CONTINUOUS
10
9.43283
20
-7.21002
11
9.3376
21
-7.11478
0
LINE
8
BLACK
6
CONTINUOUS
10
9.3376
20
-7.11478
11
9.24236
21
-6.92431
0
LINE
8
BLACK
6
CONTINUOUS
10
9.24236
20
-6.92431
11
9.14712
21
-6.54336
0
LINE
8
BLACK
6
CONTINUOUS
10
9.14712
20
-6.54336
11
9.14712
21
-6.06717
0
LINE
8
BLACK
6
CONTINUOUS
10
9.14712
20
-6.06717
11
9.24236
21
-5.68621
0
LINE
8
BLACK
6
CONTINUOUS
10
9.24236
20
-5.68621
11
9.3376
21
-5.49574
0
LINE
8
BLACK
6
CONTINUOUS
10
9.3376
20
-5.49574
11
9.43283
21
-5.4005
0
LINE
8
BLACK
6
CONTINUOUS
10
9.43283
20
-5.4005
11
9.62331
21
-5.30526
0
LINE
8
BLACK
6
CONTINUOUS
10
11.1471
20
-7.30526
11
11.1471
21
-5.97193
0
LINE
8
BLACK
6
CONTINUOUS
10
11.1471
20
-6.1624
11
11.2424
21
-6.06717
0
LINE
8
BLACK
6
CONTINUOUS
10
11.2424
20
-6.06717
11
11.4328
21
-5.97193
0
LINE
8
BLACK
6
CONTINUOUS
10
11.4328
20
-5.97193
11
11.7185
21
-5.97193
0
LINE
8
BLACK
6
CONTINUOUS
10
11.7185
20
-5.97193
11
11.909
21
-6.06717
0
LINE
8
BLACK
6
CONTINUOUS
10
11.909
20
-6.06717
11
12.0043
21
-6.25764
0
LINE
8
BLACK
6
CONTINUOUS
10
12.0043
20
-6.25764
11
12.0043
21
-7.30526
0
LINE
8
BLACK
6
CONTINUOUS
10
12.0043
20
-6.25764
11
12.0995
21
-6.06717
0
LINE
8
BLACK
6
CONTINUOUS
10
12.0995
20
-6.06717
11
12.29
21
-5.97193
0
LINE
8
BLACK
6
CONTINUOUS
10
12.29
20
-5.97193
11
12.5757
21
-5.97193
0
LINE
8
BLACK
6
CONTINUOUS
10
12.5757
20
-5.97193
11
12.7662
21
-6.06717
0
LINE
8
BLACK
6
CONTINUOUS
10
12.7662
20
-6.06717
11
12.8614
21
-6.25764
0
LINE
8
BLACK
6
CONTINUOUS
10
12.8614
20
-6.25764
11
12.8614
21
-7.30526
0
LINE
8
BLACK
6
CONTINUOUS
10
13.8138
20
-7.30526
11
13.8138
21
-5.97193
0
LINE
8
BLACK
6
CONTINUOUS
10
13.8138
20
-6.1624
11
13.909
21
-6.06717
0
LINE
8
BLACK
6
CONTINUOUS
10
13.909
20
-6.06717
11
14.0995
21
-5.97193
0
LINE
8
BLACK
6
CONTINUOUS
10
14.0995
20
-5.97193
11
14.3852
21
-5.97193
0
LINE
8
BLACK
6
CONTINUOUS
10
14.3852
20
-5.97193
11
14.5757
21
-6.06717
0
LINE
8
BLACK
6
CONTINUOUS
10
14.5757
20
-6.06717
11
14.6709
21
-6.25764
0
LINE
8
BLACK
6
CONTINUOUS
10
14.6709
20
-6.25764
11
14.6709
21
-7.30526
0
LINE
8
BLACK
6
CONTINUOUS
10
14.6709
20
-6.25764
11
14.7662
21
-6.06717
0
LINE
8
BLACK
6
CONTINUOUS
10
14.7662
20
-6.06717
11
14.9566
21
-5.97193
0
LINE
8
BLACK
6
CONTINUOUS
10
14.9566
20
-5.97193
11
15.2424
21
-5.97193
0
LINE
8
BLACK
6
CONTINUOUS
10
15.2424
20
-5.97193
11
15.4328
21
-6.06717
0
LINE
8
BLACK
6
CONTINUOUS
10
15.4328
20
-6.06717
11
15.5281
21
-6.25764
0
LINE
8
BLACK
6
CONTINUOUS
10
15.5281
20
-6.25764
11
15.5281
21
-7.30526
0
LINE
8
BLACK
6
CONTINUOUS
10
19.4328
20
-5.21002
11
17.7185
21
-7.78145
0
LINE
8
BLACK
6
CONTINUOUS
10
22.0043
20
-5.30526
11
22.1947
21
-5.30526
0
LINE
8
BLACK
6
CONTINUOUS
10
22.1947
20
-5.30526
11
22.3852
21
-5.4005
0
LINE
8
BLACK
6
CONTINUOUS
10
22.3852
20
-5.4005
11
22.4805
21
-5.49574
0
LINE
8
BLACK
6
CONTINUOUS
10
22.4805
20
-5.49574
11
22.5757
21
-5.68621
0
LINE
8
BLACK
6
CONTINUOUS
10
22.5757
20
-5.68621
11
22.6709
21
-6.06717
0
LINE
8
BLACK
6
CONTINUOUS
10
22.6709
20
-6.06717
11
22.6709
21
-6.54336
0
LINE
8
BLACK
6
CONTINUOUS
10
22.6709
20
-6.54336
11
22.5757
21
-6.92431
0
LINE
8
BLACK
6
CONTINUOUS
10
22.5757
20
-6.92431
11
22.4805
21
-7.11478
0
LINE
8
BLACK
6
CONTINUOUS
10
22.4805
20
-7.11478
11
22.3852
21
-7.21002
0
LINE
8
BLACK
6
CONTINUOUS
10
22.3852
20
-7.21002
11
22.1947
21
-7.30526
0
LINE
8
BLACK
6
CONTINUOUS
10
22.1947
20
-7.30526
11
22.0043
21
-7.30526
0
LINE
8
BLACK
6
CONTINUOUS
10
22.0043
20
-7.30526
11
21.8138
21
-7.21002
0
LINE
8
BLACK
6
CONTINUOUS
10
21.8138
20
-7.21002
11
21.7185
21
-7.11478
0
LINE
8
BLACK
6
CONTINUOUS
10
21.7185
20
-7.11478
11
21.6233
21
-6.92431
0
LINE
8
BLACK
6
CONTINUOUS
10
21.6233
20
-6.92431
11
21.5281
21
-6.54336
0
LINE
8
BLACK
6
CONTINUOUS
10
21.5281
20
-6.54336
11
21.5281
21
-6.06717
0
LINE
8
BLACK
6
CONTINUOUS
10
21.5281
20
-6.06717
11
21.6233
21
-5.68621
0
LINE
8
BLACK
6
CONTINUOUS
10
21.6233
20
-5.68621
11
21.7185
21
-5.49574
0
LINE
8
BLACK
6
CONTINUOUS
10
21.7185
20
-5.49574
11
21.8138
21
-5.4005
0
LINE
8
BLACK
6
CONTINUOUS
10
21.8138
20
-5.4005
11
22.0043
21
-5.30526
0
LINE
8
BLACK
6
CONTINUOUS
10
23.5281
20
-7.11478
11
23.6233
21
-7.21002
0
LINE
8
BLACK
6
CONTINUOUS
10
23.6233
20
-7.21002
11
23.5281
21
-7.30526
0
LINE
8
BLACK
6
CONTINUOUS
10
23.5281
20
-7.30526
11
23.4328
21
-7.21002
0
LINE
8
BLACK
6
CONTINUOUS
10
23.4328
20
-7.21002
11
23.5281
21
-7.11478
0
LINE
8
BLACK
6
CONTINUOUS
10
23.5281
20
-7.11478
11
23.5281
21
-7.30526
0
LINE
8
BLACK
6
CONTINUOUS
10
24.8614
20
-5.30526
11
25.0519
21
-5.30526
0
LINE
8
BLACK
6
CONTINUOUS
10
25.0519
20
-5.30526
11
25.2424
21
-5.4005
0
LINE
8
BLACK
6
CONTINUOUS
10
25.2424
20
-5.4005
11
25.3376
21
-5.49574
0
LINE
8
BLACK
6
CONTINUOUS
10
25.3376
20
-5.49574
11
25.4328
21
-5.68621
0
LINE
8
BLACK
6
CONTINUOUS
10
25.4328
20
-5.68621
11
25.5281
21
-6.06717
0
LINE
8
BLACK
6
CONTINUOUS
10
25.5281
20
-6.06717
11
25.5281
21
-6.54336
0
LINE
8
BLACK
6
CONTINUOUS
10
25.5281
20
-6.54336
11
25.4328
21
-6.92431
0
LINE
8
BLACK
6
CONTINUOUS
10
25.4328
20
-6.92431
11
25.3376
21
-7.11478
0
LINE
8
BLACK
6
CONTINUOUS
10
25.3376
20
-7.11478
11
25.2424
21
-7.21002
0
LINE
8
BLACK
6
CONTINUOUS
10
25.2424
20
-7.21002
11
25.0519
21
-7.30526
0
LINE
8
BLACK
6
CONTINUOUS
10
25.0519
20
-7.30526
11
24.8614
21
-7.30526
0
LINE
8
BLACK
6
CONTINUOUS
10
24.8614
20
-7.30526
11
24.6709
21
-7.21002
0
LINE
8
BLACK
6
CONTINUOUS
10
24.6709
20
-7.21002
11
24.5757
21
-7.11478
0
LINE
8
BLACK
6
CONTINUOUS
10
24.5757
20
-7.11478
11
24.4805
21
-6.92431
0
LINE
8
BLACK
6
CONTINUOUS
10
24.4805
20
-6.92431
11
24.3852
21
-6.54336
0
LINE
8
BLACK
6
CONTINUOUS
10
24.3852
20
-6.54336
11
24.3852
21
-6.06717
0
LINE
8
BLACK
6
CONTINUOUS
10
24.3852
20
-6.06717
11
24.4805
21
-5.68621
0
LINE
8
BLACK
6
CONTINUOUS
10
24.4805
20
-5.68621
11
24.5757
21
-5.49574
0
LINE
8
BLACK
6
CONTINUOUS
10
24.5757
20
-5.49574
11
24.6709
21
-5.4005
0
LINE
8
BLACK
6
CONTINUOUS
10
24.6709
20
-5.4005
11
24.8614
21
-5.30526
0
LINE
8
BLACK
6
CONTINUOUS
10
27.4328
20
-7.30526
11
26.29
21
-7.30526
0
LINE
8
BLACK
6
CONTINUOUS
10
26.8614
20
-7.30526
11
26.8614
21
-5.30526
0
LINE
8
BLACK
6
CONTINUOUS
10
26.8614
20
-5.30526
11
26.6709
21
-5.59098
0
LINE
8
BLACK
6
CONTINUOUS
10
26.6709
20
-5.59098
11
26.4805
21
-5.78145
0
LINE
8
BLACK
6
CONTINUOUS
10
26.4805
20
-5.78145
11
26.29
21
-5.87669
0
LINE
8
BLACK
6
CONTINUOUS
10
29.2424
20
-5.30526
11
28.29
21
-5.30526
0
LINE
8
BLACK
6
CONTINUOUS
10
28.29
20
-5.30526
11
28.1947
21
-6.25764
0
LINE
8
BLACK
6
CONTINUOUS
10
28.1947
20
-6.25764
11
28.29
21
-6.1624
0
LINE
8
BLACK
6
CONTINUOUS
10
28.29
20
-6.1624
11
28.4805
21
-6.06717
0
LINE
8
BLACK
6
CONTINUOUS
10
28.4805
20
-6.06717
11
28.9566
21
-6.06717
0
LINE
8
BLACK
6
CONTINUOUS
10
28.9566
20
-6.06717
11
29.1471
21
-6.1624
0
LINE
8
BLACK
6
CONTINUOUS
10
29.1471
20
-6.1624
11
29.2424
21
-6.25764
0
LINE
8
BLACK
6
CONTINUOUS
10
29.2424
20
-6.25764
11
29.3376
21
-6.44812
0
LINE
8
BLACK
6
CONTINUOUS
10
29.3376
20
-6.44812
11
29.3376
21
-6.92431
0
LINE
8
BLACK
6
CONTINUOUS
10
29.3376
20
-6.92431
11
29.2424
21
-7.11478
0
LINE
8
BLACK
6
CONTINUOUS
10
29.2424
20
-7.11478
11
29.1471
21
-7.21002
0
LINE
8
BLACK
6
CONTINUOUS
10
29.1471
20
-7.21002
11
28.9566
21
-7.30526
0
LINE
8
BLACK
6
CONTINUOUS
10
28.9566
20
-7.30526
11
28.4805
21
-7.30526
0
LINE
8
BLACK
6
CONTINUOUS
10
28.4805
20
-7.30526
11
28.29
21
-7.21002
0
LINE
8
BLACK
6
CONTINUOUS
10
28.29
20
-7.21002
11
28.1947
21
-7.11478
0
LINE
8
BLACK
6
CONTINUOUS
10
30.0043
20
-5.30526
11
31.3376
21
-5.30526
0
LINE
8
BLACK
6
CONTINUOUS
10
31.3376
20
-5.30526
11
30.4805
21
-7.30526
0
LINE
8
BLACK
6
CONTINUOUS
10
32.0043
20
-5.30526
11
32.0043
21
-5.68621
0
LINE
8
BLACK
6
CONTINUOUS
10
32.7662
20
-5.30526
11
32.7662
21
-5.68621
0
LINE
8
BLACK
6
CONTINUOUS
10
35.7185
20
-8.06717
11
35.6233
21
-7.97193
0
LINE
8
BLACK
6
CONTINUOUS
10
35.6233
20
-7.97193
11
35.4328
21
-7.68621
0
LINE
8
BLACK
6
CONTINUOUS
10
35.4328
20
-7.68621
11
35.3376
21
-7.49574
0
LINE
8
BLACK
6
CONTINUOUS
10
35.3376
20
-7.49574
11
35.2424
21
-7.21002
0
LINE
8
BLACK
6
CONTINUOUS
10
35.2424
20
-7.21002
11
35.1471
21
-6.73383
0
LINE
8
BLACK
6
CONTINUOUS
10
35.1471
20
-6.73383
11
35.1471
21
-6.35288
0
LINE
8
BLACK
6
CONTINUOUS
10
35.1471
20
-6.35288
11
35.2424
21
-5.87669
0
LINE
8
BLACK
6
CONTINUOUS
10
35.2424
20
-5.87669
11
35.3376
21
-5.59098
0
LINE
8
BLACK
6
CONTINUOUS
10
35.3376
20
-5.59098
11
35.4328
21
-5.4005
0
LINE
8
BLACK
6
CONTINUOUS
10
35.4328
20
-5.4005
11
35.6233
21
-5.11478
0
LINE
8
BLACK
6
CONTINUOUS
10
35.6233
20
-5.11478
11
35.7185
21
-5.01955
0
LINE
8
BLACK
6
CONTINUOUS
10
37.3376
20
-5.97193
11
37.3376
21
-7.30526
0
LINE
8
BLACK
6
CONTINUOUS
10
36.8614
20
-5.21002
11
36.3852
21
-6.63859
0
LINE
8
BLACK
6
CONTINUOUS
10
36.3852
20
-6.63859
11
37.6233
21
-6.63859
0
LINE
8
BLACK
6
CONTINUOUS
10
39.2424
20
-5.97193
11
39.2424
21
-7.30526
0
LINE
8
BLACK
6
CONTINUOUS
10
38.7662
20
-5.21002
11
38.29
21
-6.63859
0
LINE
8
BLACK
6
CONTINUOUS
10
38.29
20
-6.63859
11
39.5281
21
-6.63859
0
LINE
8
BLACK
6
CONTINUOUS
10
41.8138
20
-7.30526
11
41.8138
21
-5.30526
0
LINE
8
BLACK
6
CONTINUOUS
10
42.6709
20
-7.30526
11
42.6709
21
-6.25764
0
LINE
8
BLACK
6
CONTINUOUS
10
42.6709
20
-6.25764
11
42.5757
21
-6.06717
0
LINE
8
BLACK
6
CONTINUOUS
10
42.5757
20
-6.06717
11
42.3852
21
-5.97193
0
LINE
8
BLACK
6
CONTINUOUS
10
42.3852
20
-5.97193
11
42.0995
21
-5.97193
0
LINE
8
BLACK
6
CONTINUOUS
10
42.0995
20
-5.97193
11
41.909
21
-6.06717
0
LINE
8
BLACK
6
CONTINUOUS
10
41.909
20
-6.06717
11
41.8138
21
-6.1624
0
LINE
8
BLACK
6
CONTINUOUS
10
43.909
20
-7.30526
11
43.7185
21
-7.21002
0
LINE
8
BLACK
6
CONTINUOUS
10
43.7185
20
-7.21002
11
43.6233
21
-7.11478
0
LINE
8
BLACK
6
CONTINUOUS
10
43.6233
20
-7.11478
11
43.5281
21
-6.92431
0
LINE
8
BLACK
6
CONTINUOUS
10
43.5281
20
-6.92431
11
43.5281
21
-6.35288
0
LINE
8
BLACK
6
CONTINUOUS
10
43.5281
20
-6.35288
11
43.6233
21
-6.1624
0
LINE
8
BLACK
6
CONTINUOUS
10
43.6233
20
-6.1624
11
43.7185
21
-6.06717
0
LINE
8
BLACK
6
CONTINUOUS
10
43.7185
20
-6.06717
11
43.909
21
-5.97193
0
LINE
8
BLACK
6
CONTINUOUS
10
43.909
20
-5.97193
11
44.1947
21
-5.97193
0
LINE
8
BLACK
6
CONTINUOUS
10
44.1947
20
-5.97193
11
44.3852
21
-6.06717
0
LINE
8
BLACK
6
CONTINUOUS
10
44.3852
20
-6.06717
11
44.4805
21
-6.1624
0
LINE
8
BLACK
6
CONTINUOUS
10
44.4805
20
-6.1624
11
44.5757
21
-6.35288
0
LINE
8
BLACK
6
CONTINUOUS
10
44.5757
20
-6.35288
11
44.5757
21
-6.92431
0
LINE
8
BLACK
6
CONTINUOUS
10
44.5757
20
-6.92431
11
44.4805
21
-7.11478
0
LINE
8
BLACK
6
CONTINUOUS
10
44.4805
20
-7.11478
11
44.3852
21
-7.21002
0
LINE
8
BLACK
6
CONTINUOUS
10
44.3852
20
-7.21002
11
44.1947
21
-7.30526
0
LINE
8
BLACK
6
CONTINUOUS
10
44.1947
20
-7.30526
11
43.909
21
-7.30526
0
LINE
8
BLACK
6
CONTINUOUS
10
45.7185
20
-7.30526
11
45.5281
21
-7.21002
0
LINE
8
BLACK
6
CONTINUOUS
10
45.5281
20
-7.21002
11
45.4328
21
-7.01955
0
LINE
8
BLACK
6
CONTINUOUS
10
45.4328
20
-7.01955
11
45.4328
21
-5.30526
0
LINE
8
BLACK
6
CONTINUOUS
10
47.2424
20
-7.21002
11
47.0519
21
-7.30526
0
LINE
8
BLACK
6
CONTINUOUS
10
47.0519
20
-7.30526
11
46.6709
21
-7.30526
0
LINE
8
BLACK
6
CONTINUOUS
10
46.6709
20
-7.30526
11
46.4805
21
-7.21002
0
LINE
8
BLACK
6
CONTINUOUS
10
46.4805
20
-7.21002
11
46.3852
21
-7.01955
0
LINE
8
BLACK
6
CONTINUOUS
10
46.3852
20
-7.01955
11
46.3852
21
-6.25764
0
LINE
8
BLACK
6
CONTINUOUS
10
46.3852
20
-6.25764
11
46.4805
21
-6.06717
0
LINE
8
BLACK
6
CONTINUOUS
10
46.4805
20
-6.06717
11
46.6709
21
-5.97193
0
LINE
8
BLACK
6
CONTINUOUS
10
46.6709
20
-5.97193
11
47.0519
21
-5.97193
0
LINE
8
BLACK
6
CONTINUOUS
10
47.0519
20
-5.97193
11
47.2424
21
-6.06717
0
LINE
8
BLACK
6
CONTINUOUS
10
47.2424
20
-6.06717
11
47.3376
21
-6.25764
0
LINE
8
BLACK
6
CONTINUOUS
10
47.3376
20
-6.25764
11
47.3376
21
-6.44812
0
LINE
8
BLACK
6
CONTINUOUS
10
47.3376
20
-6.44812
11
46.3852
21
-6.63859
0
LINE
8
BLACK
6
CONTINUOUS
10
48.0995
20
-7.21002
11
48.29
21
-7.30526
0
LINE
8
BLACK
6
CONTINUOUS
10
48.29
20
-7.30526
11
48.6709
21
-7.30526
0
LINE
8
BLACK
6
CONTINUOUS
10
48.6709
20
-7.30526
11
48.8614
21
-7.21002
0
LINE
8
BLACK
6
CONTINUOUS
10
48.8614
20
-7.21002
11
48.9566
21
-7.01955
0
LINE
8
BLACK
6
CONTINUOUS
10
48.9566
20
-7.01955
11
48.9566
21
-6.92431
0
LINE
8
BLACK
6
CONTINUOUS
10
48.9566
20
-6.92431
11
48.8614
21
-6.73383
0
LINE
8
BLACK
6
CONTINUOUS
10
48.8614
20
-6.73383
11
48.6709
21
-6.63859
0
LINE
8
BLACK
6
CONTINUOUS
10
48.6709
20
-6.63859
11
48.3852
21
-6.63859
0
LINE
8
BLACK
6
CONTINUOUS
10
48.3852
20
-6.63859
11
48.1947
21
-6.54336
0
LINE
8
BLACK
6
CONTINUOUS
10
48.1947
20
-6.54336
11
48.0995
21
-6.35288
0
LINE
8
BLACK
6
CONTINUOUS
10
48.0995
20
-6.35288
11
48.0995
21
-6.25764
0
LINE
8
BLACK
6
CONTINUOUS
10
48.0995
20
-6.25764
11
48.1947
21
-6.06717
0
LINE
8
BLACK
6
CONTINUOUS
10
48.1947
20
-6.06717
11
48.3852
21
-5.97193
0
LINE
8
BLACK
6
CONTINUOUS
10
48.3852
20
-5.97193
11
48.6709
21
-5.97193
0
LINE
8
BLACK
6
CONTINUOUS
10
48.6709
20
-5.97193
11
48.8614
21
-6.06717
0
LINE
8
BLACK
6
CONTINUOUS
10
49.6233
20
-8.06717
11
49.7185
21
-7.97193
0
LINE
8
BLACK
6
CONTINUOUS
10
49.7185
20
-7.97193
11
49.909
21
-7.68621
0
LINE
8
BLACK
6
CONTINUOUS
10
49.909
20
-7.68621
11
50.0043
21
-7.49574
0
LINE
8
BLACK
6
CONTINUOUS
10
50.0043
20
-7.49574
11
50.0995
21
-7.21002
0
LINE
8
BLACK
6
CONTINUOUS
10
50.0995
20
-7.21002
11
50.1947
21
-6.73383
0
LINE
8
BLACK
6
CONTINUOUS
10
50.1947
20
-6.73383
11
50.1947
21
-6.35288
0
LINE
8
BLACK
6
CONTINUOUS
10
50.1947
20
-6.35288
11
50.0995
21
-5.87669
0
LINE
8
BLACK
6
CONTINUOUS
10
50.0995
20
-5.87669
11
50.0043
21
-5.59098
0
LINE
8
BLACK
6
CONTINUOUS
10
50.0043
20
-5.59098
11
49.909
21
-5.4005
0
LINE
8
BLACK
6
CONTINUOUS
10
49.909
20
-5.4005
11
49.7185
21
-5.11478
0
LINE
8
BLACK
6
CONTINUOUS
10
49.7185
20
-5.11478
11
49.6233
21
-5.01955
0
CIRCLE
8
BLACK
10
-0.2505
20
-9.0405
40
0.25
0
LINE
8
BLACK
6
CONTINUOUS
10
2.95664
20
-7.94526
11
3.14712
21
-7.94526
0
LINE
8
BLACK
6
CONTINUOUS
10
3.14712
20
-7.94526
11
3.33759
21
-8.0405
0
LINE
8
BLACK
6
CONTINUOUS
10
3.33759
20
-8.0405
11
3.43283
21
-8.13574
0
LINE
8
BLACK
6
CONTINUOUS
10
3.43283
20
-8.13574
11
3.52807
21
-8.32621
0
LINE
8
BLACK
6
CONTINUOUS
10
3.52807
20
-8.32621
11
3.62331
21
-8.70717
0
LINE
8
BLACK
6
CONTINUOUS
10
3.62331
20
-8.70717
11
3.62331
21
-9.18336
0
LINE
8
BLACK
6
CONTINUOUS
10
3.62331
20
-9.18336
11
3.52807
21
-9.56431
0
LINE
8
BLACK
6
CONTINUOUS
10
3.52807
20
-9.56431
11
3.43283
21
-9.75479
0
LINE
8
BLACK
6
CONTINUOUS
10
3.43283
20
-9.75479
11
3.33759
21
-9.85002
0
LINE
8
BLACK
6
CONTINUOUS
10
3.33759
20
-9.85002
11
3.14712
21
-9.94526
0
LINE
8
BLACK
6
CONTINUOUS
10
3.14712
20
-9.94526
11
2.95664
21
-9.94526
0
LINE
8
BLACK
6
CONTINUOUS
10
2.95664
20
-9.94526
11
2.76617
21
-9.85002
0
LINE
8
BLACK
6
CONTINUOUS
10
2.76617
20
-9.85002
11
2.67093
21
-9.75479
0
LINE
8
BLACK
6
CONTINUOUS
10
2.67093
20
-9.75479
11
2.57569
21
-9.56431
0
LINE
8
BLACK
6
CONTINUOUS
10
2.57569
20
-9.56431
11
2.48045
21
-9.18336
0
LINE
8
BLACK
6
CONTINUOUS
10
2.48045
20
-9.18336
11
2.48045
21
-8.70717
0
LINE
8
BLACK
6
CONTINUOUS
10
2.48045
20
-8.70717
11
2.57569
21
-8.32621
0
LINE
8
BLACK
6
CONTINUOUS
10
2.57569
20
-8.32621
11
2.67093
21
-8.13574
0
LINE
8
BLACK
6
CONTINUOUS
10
2.67093
20
-8.13574
11
2.76617
21
-8.0405
0
LINE
8
BLACK
6
CONTINUOUS
10
2.76617
20
-8.0405
11
2.95664
21
-7.94526
0
LINE
8
BLACK
6
CONTINUOUS
10
4.48045
20
-9.75479
11
4.57569
21
-9.85002
0
LINE
8
BLACK
6
CONTINUOUS
10
4.57569
20
-9.85002
11
4.48045
21
-9.94526
0
LINE
8
BLACK
6
CONTINUOUS
10
4.48045
20
-9.94526
11
4.38521
21
-9.85002
0
LINE
8
BLACK
6
CONTINUOUS
10
4.38521
20
-9.85002
11
4.48045
21
-9.75479
0
LINE
8
BLACK
6
CONTINUOUS
10
4.48045
20
-9.75479
11
4.48045
21
-9.94526
0
LINE
8
BLACK
6
CONTINUOUS
10
6.38521
20
-7.94526
11
5.43283
21
-7.94526
0
LINE
8
BLACK
6
CONTINUOUS
10
5.43283
20
-7.94526
11
5.33759
21
-8.89764
0
LINE
8
BLACK
6
CONTINUOUS
10
5.33759
20
-8.89764
11
5.43283
21
-8.8024
0
LINE
8
BLACK
6
CONTINUOUS
10
5.43283
20
-8.8024
11
5.62331
21
-8.70717
0
LINE
8
BLACK
6
CONTINUOUS
10
5.62331
20
-8.70717
11
6.0995
21
-8.70717
0
LINE
8
BLACK
6
CONTINUOUS
10
6.0995
20
-8.70717
11
6.28998
21
-8.8024
0
LINE
8
BLACK
6
CONTINUOUS
10
6.28998
20
-8.8024
11
6.38521
21
-8.89764
0
LINE
8
BLACK
6
CONTINUOUS
10
6.38521
20
-8.89764
11
6.48045
21
-9.08812
0
LINE
8
BLACK
6
CONTINUOUS
10
6.48045
20
-9.08812
11
6.48045
21
-9.56431
0
LINE
8
BLACK
6
CONTINUOUS
10
6.48045
20
-9.56431
11
6.38521
21
-9.75479
0
LINE
8
BLACK
6
CONTINUOUS
10
6.38521
20
-9.75479
11
6.28998
21
-9.85002
0
LINE
8
BLACK
6
CONTINUOUS
10
6.28998
20
-9.85002
11
6.0995
21
-9.94526
0
LINE
8
BLACK
6
CONTINUOUS
10
6.0995
20
-9.94526
11
5.62331
21
-9.94526
0
LINE
8
BLACK
6
CONTINUOUS
10
5.62331
20
-9.94526
11
5.43283
21
-9.85002
0
LINE
8
BLACK
6
CONTINUOUS
10
5.43283
20
-9.85002
11
5.33759
21
-9.75479
0
LINE
8
BLACK
6
CONTINUOUS
10
7.71855
20
-7.94526
11
7.90902
21
-7.94526
0
LINE
8
BLACK
6
CONTINUOUS
10
7.90902
20
-7.94526
11
8.0995
21
-8.0405
0
LINE
8
BLACK
6
CONTINUOUS
10
8.0995
20
-8.0405
11
8.19474
21
-8.13574
0
LINE
8
BLACK
6
CONTINUOUS
10
8.19474
20
-8.13574
11
8.28998
21
-8.32621
0
LINE
8
BLACK
6
CONTINUOUS
10
8.28998
20
-8.32621
11
8.38521
21
-8.70717
0
LINE
8
BLACK
6
CONTINUOUS
10
8.38521
20
-8.70717
11
8.38521
21
-9.18336
0
LINE
8
BLACK
6
CONTINUOUS
10
8.38521
20
-9.18336
11
8.28998
21
-9.56431
0
LINE
8
BLACK
6
CONTINUOUS
10
8.28998
20
-9.56431
11
8.19474
21
-9.75479
0
LINE
8
BLACK
6
CONTINUOUS
10
8.19474
20
-9.75479
11
8.0995
21
-9.85002
0
LINE
8
BLACK
6
CONTINUOUS
10
8.0995
20
-9.85002
11
7.90902
21
-9.94526
0
LINE
8
BLACK
6
CONTINUOUS
10
7.90902
20
-9.94526
11
7.71855
21
-9.94526
0
LINE
8
BLACK
6
CONTINUOUS
10
7.71855
20
-9.94526
11
7.52807
21
-9.85002
0
LINE
8
BLACK
6
CONTINUOUS
10
7.52807
20
-9.85002
11
7.43283
21
-9.75479
0
LINE
8
BLACK
6
CONTINUOUS
10
7.43283
20
-9.75479
11
7.33759
21
-9.56431
0
LINE
8
BLACK
6
CONTINUOUS
10
7.33759
20
-9.56431
11
7.24236
21
-9.18336
0
LINE
8
BLACK
6
CONTINUOUS
10
7.24236
20
-9.18336
11
7.24236
21
-8.70717
0
LINE
8
BLACK
6
CONTINUOUS
10
7.24236
20
-8.70717
11
7.33759
21
-8.32621
0
LINE
8
BLACK
6
CONTINUOUS
10
7.33759
20
-8.32621
11
7.43283
21
-8.13574
0
LINE
8
BLACK
6
CONTINUOUS
10
7.43283
20
-8.13574
11
7.52807
21
-8.0405
0
LINE
8
BLACK
6
CONTINUOUS
10
7.52807
20
-8.0405
11
7.71855
21
-7.94526
0
LINE
8
BLACK
6
CONTINUOUS
10
9.62331
20
-7.94526
11
9.81378
21
-7.94526
0
LINE
8
BLACK
6
CONTINUOUS
10
9.81378
20
-7.94526
11
10.0043
21
-8.0405
0
LINE
8
BLACK
6
CONTINUOUS
10
10.0043
20
-8.0405
11
10.0995
21
-8.13574
0
LINE
8
BLACK
6
CONTINUOUS
10
10.0995
20
-8.13574
11
10.1947
21
-8.32621
0
LINE
8
BLACK
6
CONTINUOUS
10
10.1947
20
-8.32621
11
10.29
21
-8.70717
0
LINE
8
BLACK
6
CONTINUOUS
10
10.29
20
-8.70717
11
10.29
21
-9.18336
0
LINE
8
BLACK
6
CONTINUOUS
10
10.29
20
-9.18336
11
10.1947
21
-9.56431
0
LINE
8
BLACK
6
CONTINUOUS
10
10.1947
20
-9.56431
11
10.0995
21
-9.75479
0
LINE
8
BLACK
6
CONTINUOUS
10
10.0995
20
-9.75479
11
10.0043
21
-9.85002
0
LINE
8
BLACK
6
CONTINUOUS
10
10.0043
20
-9.85002
11
9.81378
21
-9.94526
0
LINE
8
BLACK
6
CONTINUOUS
10
9.81378
20
-9.94526
11
9.62331
21
-9.94526
0
LINE
8
BLACK
6
CONTINUOUS
10
9.62331
20
-9.94526
11
9.43283
21
-9.85002
0
LINE
8
BLACK
6
CONTINUOUS
10
9.43283
20
-9.85002
11
9.3376
21
-9.75479
0
LINE
8
BLACK
6
CONTINUOUS
10
9.3376
20
-9.75479
11
9.24236
21
-9.56431
0
LINE
8
BLACK
6
CONTINUOUS
10
9.24236
20
-9.56431
11
9.14712
21
-9.18336
0
LINE
8
BLACK
6
CONTINUOUS
10
9.14712
20
-9.18336
11
9.14712
21
-8.70717
0
LINE
8
BLACK
6
CONTINUOUS
10
9.14712
20
-8.70717
11
9.24236
21
-8.32621
0
LINE
8
BLACK
6
CONTINUOUS
10
9.24236
20
-8.32621
11
9.3376
21
-8.13574
0
LINE
8
BLACK
6
CONTINUOUS
10
9.3376
20
-8.13574
11
9.43283
21
-8.0405
0
LINE
8
BLACK
6
CONTINUOUS
10
9.43283
20
-8.0405
11
9.62331
21
-7.94526
0
LINE
8
BLACK
6
CONTINUOUS
10
11.1471
20
-9.94526
11
11.1471
21
-8.61193
0
LINE
8
BLACK
6
CONTINUOUS
10
11.1471
20
-8.8024
11
11.2424
21
-8.70717
0
LINE
8
BLACK
6
CONTINUOUS
10
11.2424
20
-8.70717
11
11.4328
21
-8.61193
0
LINE
8
BLACK
6
CONTINUOUS
10
11.4328
20
-8.61193
11
11.7185
21
-8.61193
0
LINE
8
BLACK
6
CONTINUOUS
10
11.7185
20
-8.61193
11
11.909
21
-8.70717
0
LINE
8
BLACK
6
CONTINUOUS
10
11.909
20
-8.70717
11
12.0043
21
-8.89764
0
LINE
8
BLACK
6
CONTINUOUS
10
12.0043
20
-8.89764
11
12.0043
21
-9.94526
0
LINE
8
BLACK
6
CONTINUOUS
10
12.0043
20
-8.89764
11
12.0995
21
-8.70717
0
LINE
8
BLACK
6
CONTINUOUS
10
12.0995
20
-8.70717
11
12.29
21
-8.61193
0
LINE
8
BLACK
6
CONTINUOUS
10
12.29
20
-8.61193
11
12.5757
21
-8.61193
0
LINE
8
BLACK
6
CONTINUOUS
10
12.5757
20
-8.61193
11
12.7662
21
-8.70717
0
LINE
8
BLACK
6
CONTINUOUS
10
12.7662
20
-8.70717
11
12.8614
21
-8.89764
0
LINE
8
BLACK
6
CONTINUOUS
10
12.8614
20
-8.89764
11
12.8614
21
-9.94526
0
LINE
8
BLACK
6
CONTINUOUS
10
13.8138
20
-9.94526
11
13.8138
21
-8.61193
0
LINE
8
BLACK
6
CONTINUOUS
10
13.8138
20
-8.8024
11
13.909
21
-8.70717
0
LINE
8
BLACK
6
CONTINUOUS
10
13.909
20
-8.70717
11
14.0995
21
-8.61193
0
LINE
8
BLACK
6
CONTINUOUS
10
14.0995
20
-8.61193
11
14.3852
21
-8.61193
0
LINE
8
BLACK
6
CONTINUOUS
10
14.3852
20
-8.61193
11
14.5757
21
-8.70717
0
LINE
8
BLACK
6
CONTINUOUS
10
14.5757
20
-8.70717
11
14.6709
21
-8.89764
0
LINE
8
BLACK
6
CONTINUOUS
10
14.6709
20
-8.89764
11
14.6709
21
-9.94526
0
LINE
8
BLACK
6
CONTINUOUS
10
14.6709
20
-8.89764
11
14.7662
21
-8.70717
0
LINE
8
BLACK
6
CONTINUOUS
10
14.7662
20
-8.70717
11
14.9566
21
-8.61193
0
LINE
8
BLACK
6
CONTINUOUS
10
14.9566
20
-8.61193
11
15.2424
21
-8.61193
0
LINE
8
BLACK
6
CONTINUOUS
10
15.2424
20
-8.61193
11
15.4328
21
-8.70717
0
LINE
8
BLACK
6
CONTINUOUS
10
15.4328
20
-8.70717
11
15.5281
21
-8.89764
0
LINE
8
BLACK
6
CONTINUOUS
10
15.5281
20
-8.89764
11
15.5281
21
-9.94526
0
LINE
8
BLACK
6
CONTINUOUS
10
19.4328
20
-7.85002
11
17.7185
21
-10.4215
0
LINE
8
BLACK
6
CONTINUOUS
10
22.0043
20
-7.94526
11
22.1947
21
-7.94526
0
LINE
8
BLACK
6
CONTINUOUS
10
22.1947
20
-7.94526
11
22.3852
21
-8.0405
0
LINE
8
BLACK
6
CONTINUOUS
10
22.3852
20
-8.0405
11
22.4805
21
-8.13574
0
LINE
8
BLACK
6
CONTINUOUS
10
22.4805
20
-8.13574
11
22.5757
21
-8.32621
0
LINE
8
BLACK
6
CONTINUOUS
10
22.5757
20
-8.32621
11
22.6709
21
-8.70717
0
LINE
8
BLACK
6
CONTINUOUS
10
22.6709
20
-8.70717
11
22.6709
21
-9.18336
0
LINE
8
BLACK
6
CONTINUOUS
10
22.6709
20
-9.18336
11
22.5757
21
-9.56431
0
LINE
8
BLACK
6
CONTINUOUS
10
22.5757
20
-9.56431
11
22.4805
21
-9.75479
0
LINE
8
BLACK
6
CONTINUOUS
10
22.4805
20
-9.75479
11
22.3852
21
-9.85002
0
LINE
8
BLACK
6
CONTINUOUS
10
22.3852
20
-9.85002
11
22.1947
21
-9.94526
0
LINE
8
BLACK
6
CONTINUOUS
10
22.1947
20
-9.94526
11
22.0043
21
-9.94526
0
LINE
8
BLACK
6
CONTINUOUS
10
22.0043
20
-9.94526
11
21.8138
21
-9.85002
0
LINE
8
BLACK
6
CONTINUOUS
10
21.8138
20
-9.85002
11
21.7185
21
-9.75479
0
LINE
8
BLACK
6
CONTINUOUS
10
21.7185
20
-9.75479
11
21.6233
21
-9.56431
0
LINE
8
BLACK
6
CONTINUOUS
10
21.6233
20
-9.56431
11
21.5281
21
-9.18336
0
LINE
8
BLACK
6
CONTINUOUS
10
21.5281
20
-9.18336
11
21.5281
21
-8.70717
0
LINE
8
BLACK
6
CONTINUOUS
10
21.5281
20
-8.70717
11
21.6233
21
-8.32621
0
LINE
8
BLACK
6
CONTINUOUS
10
21.6233
20
-8.32621
11
21.7185
21
-8.13574
0
LINE
8
BLACK
6
CONTINUOUS
10
21.7185
20
-8.13574
11
21.8138
21
-8.0405
0
LINE
8
BLACK
6
CONTINUOUS
10
21.8138
20
-8.0405
11
22.0043
21
-7.94526
0
LINE
8
BLACK
6
CONTINUOUS
10
23.5281
20
-9.75479
11
23.6233
21
-9.85002
0
LINE
8
BLACK
6
CONTINUOUS
10
23.6233
20
-9.85002
11
23.5281
21
-9.94526
0
LINE
8
BLACK
6
CONTINUOUS
10
23.5281
20
-9.94526
11
23.4328
21
-9.85002
0
LINE
8
BLACK
6
CONTINUOUS
10
23.4328
20
-9.85002
11
23.5281
21
-9.75479
0
LINE
8
BLACK
6
CONTINUOUS
10
23.5281
20
-9.75479
11
23.5281
21
-9.94526
0
LINE
8
BLACK
6
CONTINUOUS
10
24.8614
20
-7.94526
11
25.0519
21
-7.94526
0
LINE
8
BLACK
6
CONTINUOUS
10
25.0519
20
-7.94526
11
25.2424
21
-8.0405
0
LINE
8
BLACK
6
CONTINUOUS
10
25.2424
20
-8.0405
11
25.3376
21
-8.13574
0
LINE
8
BLACK
6
CONTINUOUS
10
25.3376
20
-8.13574
11
25.4328
21
-8.32621
0
LINE
8
BLACK
6
CONTINUOUS
10
25.4328
20
-8.32621
11
25.5281
21
-8.70717
0
LINE
8
BLACK
6
CONTINUOUS
10
25.5281
20
-8.70717
11
25.5281
21
-9.18336
0
LINE
8
BLACK
6
CONTINUOUS
10
25.5281
20
-9.18336
11
25.4328
21
-9.56431
0
LINE
8
BLACK
6
CONTINUOUS
10
25.4328
20
-9.56431
11
25.3376
21
-9.75479
0
LINE
8
BLACK
6
CONTINUOUS
10
25.3376
20
-9.75479
11
25.2424
21
-9.85002
0
LINE
8
BLACK
6
CONTINUOUS
10
25.2424
20
-9.85002
11
25.0519
21
-9.94526
0
LINE
8
BLACK
6
CONTINUOUS
10
25.0519
20
-9.94526
11
24.8614
21
-9.94526
0
LINE
8
BLACK
6
CONTINUOUS
10
24.8614
20
-9.94526
11
24.6709
21
-9.85002
0
LINE
8
BLACK
6
CONTINUOUS
10
24.6709
20
-9.85002
11
24.5757
21
-9.75479
0
LINE
8
BLACK
6
CONTINUOUS
10
24.5757
20
-9.75479
11
24.4805
21
-9.56431
0
LINE
8
BLACK
6
CONTINUOUS
10
24.4805
20
-9.56431
11
24.3852
21
-9.18336
0
LINE
8
BLACK
6
CONTINUOUS
10
24.3852
20
-9.18336
11
24.3852
21
-8.70717
0
LINE
8
BLACK
6
CONTINUOUS
10
24.3852
20
-8.70717
11
24.4805
21
-8.32621
0
LINE
8
BLACK
6
CONTINUOUS
10
24.4805
20
-8.32621
11
24.5757
21
-8.13574
0
LINE
8
BLACK
6
CONTINUOUS
10
24.5757
20
-8.13574
11
24.6709
21
-8.0405
0
LINE
8
BLACK
6
CONTINUOUS
10
24.6709
20
-8.0405
11
24.8614
21
-7.94526
0
LINE
8
BLACK
6
CONTINUOUS
10
27.4328
20
-9.94526
11
26.29
21
-9.94526
0
LINE
8
BLACK
6
CONTINUOUS
10
26.8614
20
-9.94526
11
26.8614
21
-7.94526
0
LINE
8
BLACK
6
CONTINUOUS
10
26.8614
20
-7.94526
11
26.6709
21
-8.23098
0
LINE
8
BLACK
6
CONTINUOUS
10
26.6709
20
-8.23098
11
26.4805
21
-8.42145
0
LINE
8
BLACK
6
CONTINUOUS
10
26.4805
20
-8.42145
11
26.29
21
-8.51669
0
LINE
8
BLACK
6
CONTINUOUS
10
28.3852
20
-9.94526
11
28.7662
21
-9.94526
0
LINE
8
BLACK
6
CONTINUOUS
10
28.7662
20
-9.94526
11
28.9566
21
-9.85002
0
LINE
8
BLACK
6
CONTINUOUS
10
28.9566
20
-9.85002
11
29.0519
21
-9.75479
0
LINE
8
BLACK
6
CONTINUOUS
10
29.0519
20
-9.75479
11
29.2424
21
-9.46907
0
LINE
8
BLACK
6
CONTINUOUS
10
29.2424
20
-9.46907
11
29.3376
21
-9.08812
0
LINE
8
BLACK
6
CONTINUOUS
10
29.3376
20
-9.08812
11
29.3376
21
-8.32621
0
LINE
8
BLACK
6
CONTINUOUS
10
29.3376
20
-8.32621
11
29.2424
21
-8.13574
0
LINE
8
BLACK
6
CONTINUOUS
10
29.2424
20
-8.13574
11
29.1471
21
-8.0405
0
LINE
8
BLACK
6
CONTINUOUS
10
29.1471
20
-8.0405
11
28.9566
21
-7.94526
0
LINE
8
BLACK
6
CONTINUOUS
10
28.9566
20
-7.94526
11
28.5757
21
-7.94526
0
LINE
8
BLACK
6
CONTINUOUS
10
28.5757
20
-7.94526
11
28.3852
21
-8.0405
0
LINE
8
BLACK
6
CONTINUOUS
10
28.3852
20
-8.0405
11
28.29
21
-8.13574
0
LINE
8
BLACK
6
CONTINUOUS
10
28.29
20
-8.13574
11
28.1947
21
-8.32621
0
LINE
8
BLACK
6
CONTINUOUS
10
28.1947
20
-8.32621
11
28.1947
21
-8.8024
0
LINE
8
BLACK
6
CONTINUOUS
10
28.1947
20
-8.8024
11
28.29
21
-8.99288
0
LINE
8
BLACK
6
CONTINUOUS
10
28.29
20
-8.99288
11
28.3852
21
-9.08812
0
LINE
8
BLACK
6
CONTINUOUS
10
28.3852
20
-9.08812
11
28.5757
21
-9.18336
0
LINE
8
BLACK
6
CONTINUOUS
10
28.5757
20
-9.18336
11
28.9566
21
-9.18336
0
LINE
8
BLACK
6
CONTINUOUS
10
28.9566
20
-9.18336
11
29.1471
21
-9.08812
0
LINE
8
BLACK
6
CONTINUOUS
10
29.1471
20
-9.08812
11
29.2424
21
-8.99288
0
LINE
8
BLACK
6
CONTINUOUS
10
29.2424
20
-8.99288
11
29.3376
21
-8.8024
0
LINE
8
BLACK
6
CONTINUOUS
10
30.0043
20
-7.94526
11
31.3376
21
-7.94526
0
LINE
8
BLACK
6
CONTINUOUS
10
31.3376
20
-7.94526
11
30.4805
21
-9.94526
0
LINE
8
BLACK
6
CONTINUOUS
10
32.0043
20
-7.94526
11
32.0043
21
-8.32621
0
LINE
8
BLACK
6
CONTINUOUS
10
32.7662
20
-7.94526
11
32.7662
21
-8.32621
0
LINE
8
BLACK
6
CONTINUOUS
10
35.7185
20
-10.7072
11
35.6233
21
-10.6119
0
LINE
8
BLACK
6
CONTINUOUS
10
35.6233
20
-10.6119
11
35.4328
21
-10.3262
0
LINE
8
BLACK
6
CONTINUOUS
10
35.4328
20
-10.3262
11
35.3376
21
-10.1357
0
LINE
8
BLACK
6
CONTINUOUS
10
35.3376
20
-10.1357
11
35.2424
21
-9.85002
0
LINE
8
BLACK
6
CONTINUOUS
10
35.2424
20
-9.85002
11
35.1471
21
-9.37383
0
LINE
8
BLACK
6
CONTINUOUS
10
35.1471
20
-9.37383
11
35.1471
21
-8.99288
0
LINE
8
BLACK
6
CONTINUOUS
10
35.1471
20
-8.99288
11
35.2424
21
-8.51669
0
LINE
8
BLACK
6
CONTINUOUS
10
35.2424
20
-8.51669
11
35.3376
21
-8.23098
0
LINE
8
BLACK
6
CONTINUOUS
10
35.3376
20
-8.23098
11
35.4328
21
-8.0405
0
LINE
8
BLACK
6
CONTINUOUS
10
35.4328
20
-8.0405
11
35.6233
21
-7.75479
0
LINE
8
BLACK
6
CONTINUOUS
10
35.6233
20
-7.75479
11
35.7185
21
-7.65955
0
LINE
8
BLACK
6
CONTINUOUS
10
36.3852
20
-8.13574
11
36.4805
21
-8.0405
0
LINE
8
BLACK
6
CONTINUOUS
10
36.4805
20
-8.0405
11
36.6709
21
-7.94526
0
LINE
8
BLACK
6
CONTINUOUS
10
36.6709
20
-7.94526
11
37.1471
21
-7.94526
0
LINE
8
BLACK
6
CONTINUOUS
10
37.1471
20
-7.94526
11
37.3376
21
-8.0405
0
LINE
8
BLACK
6
CONTINUOUS
10
37.3376
20
-8.0405
11
37.4328
21
-8.13574
0
LINE
8
BLACK
6
CONTINUOUS
10
37.4328
20
-8.13574
11
37.5281
21
-8.32621
0
LINE
8
BLACK
6
CONTINUOUS
10
37.5281
20
-8.32621
11
37.5281
21
-8.51669
0
LINE
8
BLACK
6
CONTINUOUS
10
37.5281
20
-8.51669
11
37.4328
21
-8.8024
0
LINE
8
BLACK
6
CONTINUOUS
10
37.4328
20
-8.8024
11
36.29
21
-9.94526
0
LINE
8
BLACK
6
CONTINUOUS
10
36.29
20
-9.94526
11
37.5281
21
-9.94526
0
LINE
8
BLACK
6
CONTINUOUS
10
38.6709
20
-8.8024
11
38.4805
21
-8.70717
0
LINE
8
BLACK
6
CONTINUOUS
10
38.4805
20
-8.70717
11
38.3852
21
-8.61193
0
LINE
8
BLACK
6
CONTINUOUS
10
38.3852
20
-8.61193
11
38.29
21
-8.42145
0
LINE
8
BLACK
6
CONTINUOUS
10
38.29
20
-8.42145
11
38.29
21
-8.32621
0
LINE
8
BLACK
6
CONTINUOUS
10
38.29
20
-8.32621
11
38.3852
21
-8.13574
0
LINE
8
BLACK
6
CONTINUOUS
10
38.3852
20
-8.13574
11
38.4805
21
-8.0405
0
LINE
8
BLACK
6
CONTINUOUS
10
38.4805
20
-8.0405
11
38.6709
21
-7.94526
0
LINE
8
BLACK
6
CONTINUOUS
10
38.6709
20
-7.94526
11
39.0519
21
-7.94526
0
LINE
8
BLACK
6
CONTINUOUS
10
39.0519
20
-7.94526
11
39.2424
21
-8.0405
0
LINE
8
BLACK
6
CONTINUOUS
10
39.2424
20
-8.0405
11
39.3376
21
-8.13574
0
LINE
8
BLACK
6
CONTINUOUS
10
39.3376
20
-8.13574
11
39.4328
21
-8.32621
0
LINE
8
BLACK
6
CONTINUOUS
10
39.4328
20
-8.32621
11
39.4328
21
-8.42145
0
LINE
8
BLACK
6
CONTINUOUS
10
39.4328
20
-8.42145
11
39.3376
21
-8.61193
0
LINE
8
BLACK
6
CONTINUOUS
10
39.3376
20
-8.61193
11
39.2424
21
-8.70717
0
LINE
8
BLACK
6
CONTINUOUS
10
39.2424
20
-8.70717
11
39.0519
21
-8.8024
0
LINE
8
BLACK
6
CONTINUOUS
10
39.0519
20
-8.8024
11
38.6709
21
-8.8024
0
LINE
8
BLACK
6
CONTINUOUS
10
38.6709
20
-8.8024
11
38.4805
21
-8.89764
0
LINE
8
BLACK
6
CONTINUOUS
10
38.4805
20
-8.89764
11
38.3852
21
-8.99288
0
LINE
8
BLACK
6
CONTINUOUS
10
38.3852
20
-8.99288
11
38.29
21
-9.18336
0
LINE
8
BLACK
6
CONTINUOUS
10
38.29
20
-9.18336
11
38.29
21
-9.56431
0
LINE
8
BLACK
6
CONTINUOUS
10
38.29
20
-9.56431
11
38.3852
21
-9.75479
0
LINE
8
BLACK
6
CONTINUOUS
10
38.3852
20
-9.75479
11
38.4805
21
-9.85002
0
LINE
8
BLACK
6
CONTINUOUS
10
38.4805
20
-9.85002
11
38.6709
21
-9.94526
0
LINE
8
BLACK
6
CONTINUOUS
10
38.6709
20
-9.94526
11
39.0519
21
-9.94526
0
LINE
8
BLACK
6
CONTINUOUS
10
39.0519
20
-9.94526
11
39.2424
21
-9.85002
0
LINE
8
BLACK
6
CONTINUOUS
10
39.2424
20
-9.85002
11
39.3376
21
-9.75479
0
LINE
8
BLACK
6
CONTINUOUS
10
39.3376
20
-9.75479
11
39.4328
21
-9.56431
0
LINE
8
BLACK
6
CONTINUOUS
10
39.4328
20
-9.56431
11
39.4328
21
-9.18336
0
LINE
8
BLACK
6
CONTINUOUS
10
39.4328
20
-9.18336
11
39.3376
21
-8.99288
0
LINE
8
BLACK
6
CONTINUOUS
10
39.3376
20
-8.99288
11
39.2424
21
-8.89764
0
LINE
8
BLACK
6
CONTINUOUS
10
39.2424
20
-8.89764
11
39.0519
21
-8.8024
0
LINE
8
BLACK
6
CONTINUOUS
10
41.8138
20
-9.94526
11
41.8138
21
-7.94526
0
LINE
8
BLACK
6
CONTINUOUS
10
42.6709
20
-9.94526
11
42.6709
21
-8.89764
0
LINE
8
BLACK
6
CONTINUOUS
10
42.6709
20
-8.89764
11
42.5757
21
-8.70717
0
LINE
8
BLACK
6
CONTINUOUS
10
42.5757
20
-8.70717
11
42.3852
21
-8.61193
0
LINE
8
BLACK
6
CONTINUOUS
10
42.3852
20
-8.61193
11
42.0995
21
-8.61193
0
LINE
8
BLACK
6
CONTINUOUS
10
42.0995
20
-8.61193
11
41.909
21
-8.70717
0
LINE
8
BLACK
6
CONTINUOUS
10
41.909
20
-8.70717
11
41.8138
21
-8.8024
0
LINE
8
BLACK
6
CONTINUOUS
10
43.909
20
-9.94526
11
43.7185
21
-9.85002
0
LINE
8
BLACK
6
CONTINUOUS
10
43.7185
20
-9.85002
11
43.6233
21
-9.75479
0
LINE
8
BLACK
6
CONTINUOUS
10
43.6233
20
-9.75479
11
43.5281
21
-9.56431
0
LINE
8
BLACK
6
CONTINUOUS
10
43.5281
20
-9.56431
11
43.5281
21
-8.99288
0
LINE
8
BLACK
6
CONTINUOUS
10
43.5281
20
-8.99288
11
43.6233
21
-8.8024
0
LINE
8
BLACK
6
CONTINUOUS
10
43.6233
20
-8.8024
11
43.7185
21
-8.70717
0
LINE
8
BLACK
6
CONTINUOUS
10
43.7185
20
-8.70717
11
43.909
21
-8.61193
0
LINE
8
BLACK
6
CONTINUOUS
10
43.909
20
-8.61193
11
44.1947
21
-8.61193
0
LINE
8
BLACK
6
CONTINUOUS
10
44.1947
20
-8.61193
11
44.3852
21
-8.70717
0
LINE
8
BLACK
6
CONTINUOUS
10
44.3852
20
-8.70717
11
44.4805
21
-8.8024
0
LINE
8
BLACK
6
CONTINUOUS
10
44.4805
20
-8.8024
11
44.5757
21
-8.99288
0
LINE
8
BLACK
6
CONTINUOUS
10
44.5757
20
-8.99288
11
44.5757
21
-9.56431
0
LINE
8
BLACK
6
CONTINUOUS
10
44.5757
20
-9.56431
11
44.4805
21
-9.75479
0
LINE
8
BLACK
6
CONTINUOUS
10
44.4805
20
-9.75479
11
44.3852
21
-9.85002
0
LINE
8
BLACK
6
CONTINUOUS
10
44.3852
20
-9.85002
11
44.1947
21
-9.94526
0
LINE
8
BLACK
6
CONTINUOUS
10
44.1947
20
-9.94526
11
43.909
21
-9.94526
0
LINE
8
BLACK
6
CONTINUOUS
10
45.7185
20
-9.94526
11
45.5281
21
-9.85002
0
LINE
8
BLACK
6
CONTINUOUS
10
45.5281
20
-9.85002
11
45.4328
21
-9.65955
0
LINE
8
BLACK
6
CONTINUOUS
10
45.4328
20
-9.65955
11
45.4328
21
-7.94526
0
LINE
8
BLACK
6
CONTINUOUS
10
47.2424
20
-9.85002
11
47.0519
21
-9.94526
0
LINE
8
BLACK
6
CONTINUOUS
10
47.0519
20
-9.94526
11
46.6709
21
-9.94526
0
LINE
8
BLACK
6
CONTINUOUS
10
46.6709
20
-9.94526
11
46.4805
21
-9.85002
0
LINE
8
BLACK
6
CONTINUOUS
10
46.4805
20
-9.85002
11
46.3852
21
-9.65955
0
LINE
8
BLACK
6
CONTINUOUS
10
46.3852
20
-9.65955
11
46.3852
21
-8.89764
0
LINE
8
BLACK
6
CONTINUOUS
10
46.3852
20
-8.89764
11
46.4805
21
-8.70717
0
LINE
8
BLACK
6
CONTINUOUS
10
46.4805
20
-8.70717
11
46.6709
21
-8.61193
0
LINE
8
BLACK
6
CONTINUOUS
10
46.6709
20
-8.61193
11
47.0519
21
-8.61193
0
LINE
8
BLACK
6
CONTINUOUS
10
47.0519
20
-8.61193
11
47.2424
21
-8.70717
0
LINE
8
BLACK
6
CONTINUOUS
10
47.2424
20
-8.70717
11
47.3376
21
-8.89764
0
LINE
8
BLACK
6
CONTINUOUS
10
47.3376
20
-8.89764
11
47.3376
21
-9.08812
0
LINE
8
BLACK
6
CONTINUOUS
10
47.3376
20
-9.08812
11
46.3852
21
-9.27859
0
LINE
8
BLACK
6
CONTINUOUS
10
48.0995
20
-9.85002
11
48.29
21
-9.94526
0
LINE
8
BLACK
6
CONTINUOUS
10
48.29
20
-9.94526
11
48.6709
21
-9.94526
0
LINE
8
BLACK
6
CONTINUOUS
10
48.6709
20
-9.94526
11
48.8614
21
-9.85002
0
LINE
8
BLACK
6
CONTINUOUS
10
48.8614
20
-9.85002
11
48.9566
21
-9.65955
0
LINE
8
BLACK
6
CONTINUOUS
10
48.9566
20
-9.65955
11
48.9566
21
-9.56431
0
LINE
8
BLACK
6
CONTINUOUS
10
48.9566
20
-9.56431
11
48.8614
21
-9.37383
0
LINE
8
BLACK
6
CONTINUOUS
10
48.8614
20
-9.37383
11
48.6709
21
-9.27859
0
LINE
8
BLACK
6
CONTINUOUS
10
48.6709
20
-9.27859
11
48.3852
21
-9.27859
0
LINE
8
BLACK
6
CONTINUOUS
10
48.3852
20
-9.27859
11
48.1947
21
-9.18336
0
LINE
8
BLACK
6
CONTINUOUS
10
48.1947
20
-9.18336
11
48.0995
21
-8.99288
0
LINE
8
BLACK
6
CONTINUOUS
10
48.0995
20
-8.99288
11
48.0995
21
-8.89764
0
LINE
8
BLACK
6
CONTINUOUS
10
48.0995
20
-8.89764
11
48.1947
21
-8.70717
0
LINE
8
BLACK
6
CONTINUOUS
10
48.1947
20
-8.70717
11
48.3852
21
-8.61193
0
LINE
8
BLACK
6
CONTINUOUS
10
48.3852
20
-8.61193
11
48.6709
21
-8.61193
0
LINE
8
BLACK
6
CONTINUOUS
10
48.6709
20
-8.61193
11
48.8614
21
-8.70717
0
LINE
8
BLACK
6
CONTINUOUS
10
49.6233
20
-10.7072
11
49.7185
21
-10.6119
0
LINE
8
BLACK
6
CONTINUOUS
10
49.7185
20
-10.6119
11
49.909
21
-10.3262
0
LINE
8
BLACK
6
CONTINUOUS
10
49.909
20
-10.3262
11
50.0043
21
-10.1357
0
LINE
8
BLACK
6
CONTINUOUS
10
50.0043
20
-10.1357
11
50.0995
21
-9.85002
0
LINE
8
BLACK
6
CONTINUOUS
10
50.0995
20
-9.85002
11
50.1947
21
-9.37383
0
LINE
8
BLACK
6
CONTINUOUS
10
50.1947
20
-9.37383
11
50.1947
21
-8.99288
0
LINE
8
BLACK
6
CONTINUOUS
10
50.1947
20
-8.99288
11
50.0995
21
-8.51669
0
LINE
8
BLACK
6
CONTINUOUS
10
50.0995
20
-8.51669
11
50.0043
21
-8.23098
0
LINE
8
BLACK
6
CONTINUOUS
10
50.0043
20
-8.23098
11
49.909
21
-8.0405
0
LINE
8
BLACK
6
CONTINUOUS
10
49.909
20
-8.0405
11
49.7185
21
-7.75479
0
LINE
8
BLACK
6
CONTINUOUS
10
49.7185
20
-7.75479
11
49.6233
21
-7.65955
0
LINE
8
BLACK
6
CONTINUOUS
10
-0.3705
20
-11.3105
11
-0.3705
21
-12.0505
0
LINE
8
BLACK
6
CONTINUOUS
10
-0.7405
20
-11.6805
11
-0.0005
21
-11.6805
0
LINE
8
BLACK
6
CONTINUOUS
10
2.95664
20
-10.5853
11
3.14712
21
-10.5853
0
LINE
8
BLACK
6
CONTINUOUS
10
3.14712
20
-10.5853
11
3.33759
21
-10.6805
0
LINE
8
BLACK
6
CONTINUOUS
10
3.33759
20
-10.6805
11
3.43283
21
-10.7757
0
LINE
8
BLACK
6
CONTINUOUS
10
3.43283
20
-10.7757
11
3.52807
21
-10.9662
0
LINE
8
BLACK
6
CONTINUOUS
10
3.52807
20
-10.9662
11
3.62331
21
-11.3472
0
LINE
8
BLACK
6
CONTINUOUS
10
3.62331
20
-11.3472
11
3.62331
21
-11.8234
0
LINE
8
BLACK
6
CONTINUOUS
10
3.62331
20
-11.8234
11
3.52807
21
-12.2043
0
LINE
8
BLACK
6
CONTINUOUS
10
3.52807
20
-12.2043
11
3.43283
21
-12.3948
0
LINE
8
BLACK
6
CONTINUOUS
10
3.43283
20
-12.3948
11
3.33759
21
-12.49
0
LINE
8
BLACK
6
CONTINUOUS
10
3.33759
20
-12.49
11
3.14712
21
-12.5853
0
LINE
8
BLACK
6
CONTINUOUS
10
3.14712
20
-12.5853
11
2.95664
21
-12.5853
0
LINE
8
BLACK
6
CONTINUOUS
10
2.95664
20
-12.5853
11
2.76617
21
-12.49
0
LINE
8
BLACK
6
CONTINUOUS
10
2.76617
20
-12.49
11
2.67093
21
-12.3948
0
LINE
8
BLACK
6
CONTINUOUS
10
2.67093
20
-12.3948
11
2.57569
21
-12.2043
0
LINE
8
BLACK
6
CONTINUOUS
10
2.57569
20
-12.2043
11
2.48045
21
-11.8234
0
LINE
8
BLACK
6
CONTINUOUS
10
2.48045
20
-11.8234
11
2.48045
21
-11.3472
0
LINE
8
BLACK
6
CONTINUOUS
10
2.48045
20
-11.3472
11
2.57569
21
-10.9662
0
LINE
8
BLACK
6
CONTINUOUS
10
2.57569
20
-10.9662
11
2.67093
21
-10.7757
0
LINE
8
BLACK
6
CONTINUOUS
10
2.67093
20
-10.7757
11
2.76617
21
-10.6805
0
LINE
8
BLACK
6
CONTINUOUS
10
2.76617
20
-10.6805
11
2.95664
21
-10.5853
0
LINE
8
BLACK
6
CONTINUOUS
10
4.48045
20
-12.3948
11
4.57569
21
-12.49
0
LINE
8
BLACK
6
CONTINUOUS
10
4.57569
20
-12.49
11
4.48045
21
-12.5853
0
LINE
8
BLACK
6
CONTINUOUS
10
4.48045
20
-12.5853
11
4.38521
21
-12.49
0
LINE
8
BLACK
6
CONTINUOUS
10
4.38521
20
-12.49
11
4.48045
21
-12.3948
0
LINE
8
BLACK
6
CONTINUOUS
10
4.48045
20
-12.3948
11
4.48045
21
-12.5853
0
LINE
8
BLACK
6
CONTINUOUS
10
5.24236
20
-10.5853
11
6.57569
21
-10.5853
0
LINE
8
BLACK
6
CONTINUOUS
10
6.57569
20
-10.5853
11
5.71855
21
-12.5853
0
LINE
8
BLACK
6
CONTINUOUS
10
8.19474
20
-11.2519
11
8.19474
21
-12.5853
0
LINE
8
BLACK
6
CONTINUOUS
10
7.71855
20
-10.49
11
7.24236
21
-11.9186
0
LINE
8
BLACK
6
CONTINUOUS
10
7.24236
20
-11.9186
11
8.48045
21
-11.9186
0
LINE
8
BLACK
6
CONTINUOUS
10
9.62331
20
-10.5853
11
9.81378
21
-10.5853
0
LINE
8
BLACK
6
CONTINUOUS
10
9.81378
20
-10.5853
11
10.0043
21
-10.6805
0
LINE
8
BLACK
6
CONTINUOUS
10
10.0043
20
-10.6805
11
10.0995
21
-10.7757
0
LINE
8
BLACK
6
CONTINUOUS
10
10.0995
20
-10.7757
11
10.1947
21
-10.9662
0
LINE
8
BLACK
6
CONTINUOUS
10
10.1947
20
-10.9662
11
10.29
21
-11.3472
0
LINE
8
BLACK
6
CONTINUOUS
10
10.29
20
-11.3472
11
10.29
21
-11.8234
0
LINE
8
BLACK
6
CONTINUOUS
10
10.29
20
-11.8234
11
10.1947
21
-12.2043
0
LINE
8
BLACK
6
CONTINUOUS
10
10.1947
20
-12.2043
11
10.0995
21
-12.3948
0
LINE
8
BLACK
6
CONTINUOUS
10
10.0995
20
-12.3948
11
10.0043
21
-12.49
0
LINE
8
BLACK
6
CONTINUOUS
10
10.0043
20
-12.49
11
9.81378
21
-12.5853
0
LINE
8
BLACK
6
CONTINUOUS
10
9.81378
20
-12.5853
11
9.62331
21
-12.5853
0
LINE
8
BLACK
6
CONTINUOUS
10
9.62331
20
-12.5853
11
9.43283
21
-12.49
0
LINE
8
BLACK
6
CONTINUOUS
10
9.43283
20
-12.49
11
9.3376
21
-12.3948
0
LINE
8
BLACK
6
CONTINUOUS
10
9.3376
20
-12.3948
11
9.24236
21
-12.2043
0
LINE
8
BLACK
6
CONTINUOUS
10
9.24236
20
-12.2043
11
9.14712
21
-11.8234
0
LINE
8
BLACK
6
CONTINUOUS
10
9.14712
20
-11.8234
11
9.14712
21
-11.3472
0
LINE
8
BLACK
6
CONTINUOUS
10
9.14712
20
-11.3472
11
9.24236
21
-10.9662
0
LINE
8
BLACK
6
CONTINUOUS
10
9.24236
20
-10.9662
11
9.3376
21
-10.7757
0
LINE
8
BLACK
6
CONTINUOUS
10
9.3376
20
-10.7757
11
9.43283
21
-10.6805
0
LINE
8
BLACK
6
CONTINUOUS
10
9.43283
20
-10.6805
11
9.62331
21
-10.5853
0
LINE
8
BLACK
6
CONTINUOUS
10
11.1471
20
-12.5853
11
11.1471
21
-11.2519
0
LINE
8
BLACK
6
CONTINUOUS
10
11.1471
20
-11.4424
11
11.2424
21
-11.3472
0
LINE
8
BLACK
6
CONTINUOUS
10
11.2424
20
-11.3472
11
11.4328
21
-11.2519
0
LINE
8
BLACK
6
CONTINUOUS
10
11.4328
20
-11.2519
11
11.7185
21
-11.2519
0
LINE
8
BLACK
6
CONTINUOUS
10
11.7185
20
-11.2519
11
11.909
21
-11.3472
0
LINE
8
BLACK
6
CONTINUOUS
10
11.909
20
-11.3472
11
12.0043
21
-11.5376
0
LINE
8
BLACK
6
CONTINUOUS
10
12.0043
20
-11.5376
11
12.0043
21
-12.5853
0
LINE
8
BLACK
6
CONTINUOUS
10
12.0043
20
-11.5376
11
12.0995
21
-11.3472
0
LINE
8
BLACK
6
CONTINUOUS
10
12.0995
20
-11.3472
11
12.29
21
-11.2519
0
LINE
8
BLACK
6
CONTINUOUS
10
12.29
20
-11.2519
11
12.5757
21
-11.2519
0
LINE
8
BLACK
6
CONTINUOUS
10
12.5757
20
-11.2519
11
12.7662
21
-11.3472
0
LINE
8
BLACK
6
CONTINUOUS
10
12.7662
20
-11.3472
11
12.8614
21
-11.5376
0
LINE
8
BLACK
6
CONTINUOUS
10
12.8614
20
-11.5376
11
12.8614
21
-12.5853
0
LINE
8
BLACK
6
CONTINUOUS
10
13.8138
20
-12.5853
11
13.8138
21
-11.2519
0
LINE
8
BLACK
6
CONTINUOUS
10
13.8138
20
-11.4424
11
13.909
21
-11.3472
0
LINE
8
BLACK
6
CONTINUOUS
10
13.909
20
-11.3472
11
14.0995
21
-11.2519
0
LINE
8
BLACK
6
CONTINUOUS
10
14.0995
20
-11.2519
11
14.3852
21
-11.2519
0
LINE
8
BLACK
6
CONTINUOUS
10
14.3852
20
-11.2519
11
14.5757
21
-11.3472
0
LINE
8
BLACK
6
CONTINUOUS
10
14.5757
20
-11.3472
11
14.6709
21
-11.5376
0
LINE
8
BLACK
6
CONTINUOUS
10
14.6709
20
-11.5376
11
14.6709
21
-12.5853
0
LINE
8
BLACK
6
CONTINUOUS
10
14.6709
20
-11.5376
11
14.7662
21
-11.3472
0
LINE
8
BLACK
6
CONTINUOUS
10
14.7662
20
-11.3472
11
14.9566
21
-11.2519
0
LINE
8
BLACK
6
CONTINUOUS
10
14.9566
20
-11.2519
11
15.2424
21
-11.2519
0
LINE
8
BLACK
6
CONTINUOUS
10
15.2424
20
-11.2519
11
15.4328
21
-11.3472
0
LINE
8
BLACK
6
CONTINUOUS
10
15.4328
20
-11.3472
11
15.5281
21
-11.5376
0
LINE
8
BLACK
6
CONTINUOUS
10
15.5281
20
-11.5376
11
15.5281
21
-12.5853
0
LINE
8
BLACK
6
CONTINUOUS
10
19.4328
20
-10.49
11
17.7185
21
-13.0615
0
LINE
8
BLACK
6
CONTINUOUS
10
22.0043
20
-10.5853
11
22.1947
21
-10.5853
0
LINE
8
BLACK
6
CONTINUOUS
10
22.1947
20
-10.5853
11
22.3852
21
-10.6805
0
LINE
8
BLACK
6
CONTINUOUS
10
22.3852
20
-10.6805
11
22.4805
21
-10.7757
0
LINE
8
BLACK
6
CONTINUOUS
10
22.4805
20
-10.7757
11
22.5757
21
-10.9662
0
LINE
8
BLACK
6
CONTINUOUS
10
22.5757
20
-10.9662
11
22.6709
21
-11.3472
0
LINE
8
BLACK
6
CONTINUOUS
10
22.6709
20
-11.3472
11
22.6709
21
-11.8234
0
LINE
8
BLACK
6
CONTINUOUS
10
22.6709
20
-11.8234
11
22.5757
21
-12.2043
0
LINE
8
BLACK
6
CONTINUOUS
10
22.5757
20
-12.2043
11
22.4805
21
-12.3948
0
LINE
8
BLACK
6
CONTINUOUS
10
22.4805
20
-12.3948
11
22.3852
21
-12.49
0
LINE
8
BLACK
6
CONTINUOUS
10
22.3852
20
-12.49
11
22.1947
21
-12.5853
0
LINE
8
BLACK
6
CONTINUOUS
10
22.1947
20
-12.5853
11
22.0043
21
-12.5853
0
LINE
8
BLACK
6
CONTINUOUS
10
22.0043
20
-12.5853
11
21.8138
21
-12.49
0
LINE
8
BLACK
6
CONTINUOUS
10
21.8138
20
-12.49
11
21.7185
21
-12.3948
0
LINE
8
BLACK
6
CONTINUOUS
10
21.7185
20
-12.3948
11
21.6233
21
-12.2043
0
LINE
8
BLACK
6
CONTINUOUS
10
21.6233
20
-12.2043
11
21.5281
21
-11.8234
0
LINE
8
BLACK
6
CONTINUOUS
10
21.5281
20
-11.8234
11
21.5281
21
-11.3472
0
LINE
8
BLACK
6
CONTINUOUS
10
21.5281
20
-11.3472
11
21.6233
21
-10.9662
0
LINE
8
BLACK
6
CONTINUOUS
10
21.6233
20
-10.9662
11
21.7185
21
-10.7757
0
LINE
8
BLACK
6
CONTINUOUS
10
21.7185
20
-10.7757
11
21.8138
21
-10.6805
0
LINE
8
BLACK
6
CONTINUOUS
10
21.8138
20
-10.6805
11
22.0043
21
-10.5853
0
LINE
8
BLACK
6
CONTINUOUS
10
23.5281
20
-12.3948
11
23.6233
21
-12.49
0
LINE
8
BLACK
6
CONTINUOUS
10
23.6233
20
-12.49
11
23.5281
21
-12.5853
0
LINE
8
BLACK
6
CONTINUOUS
10
23.5281
20
-12.5853
11
23.4328
21
-12.49
0
LINE
8
BLACK
6
CONTINUOUS
10
23.4328
20
-12.49
11
23.5281
21
-12.3948
0
LINE
8
BLACK
6
CONTINUOUS
10
23.5281
20
-12.3948
11
23.5281
21
-12.5853
0
LINE
8
BLACK
6
CONTINUOUS
10
24.8614
20
-10.5853
11
25.0519
21
-10.5853
0
LINE
8
BLACK
6
CONTINUOUS
10
25.0519
20
-10.5853
11
25.2424
21
-10.6805
0
LINE
8
BLACK
6
CONTINUOUS
10
25.2424
20
-10.6805
11
25.3376
21
-10.7757
0
LINE
8
BLACK
6
CONTINUOUS
10
25.3376
20
-10.7757
11
25.4328
21
-10.9662
0
LINE
8
BLACK
6
CONTINUOUS
10
25.4328
20
-10.9662
11
25.5281
21
-11.3472
0
LINE
8
BLACK
6
CONTINUOUS
10
25.5281
20
-11.3472
11
25.5281
21
-11.8234
0
LINE
8
BLACK
6
CONTINUOUS
10
25.5281
20
-11.8234
11
25.4328
21
-12.2043
0
LINE
8
BLACK
6
CONTINUOUS
10
25.4328
20
-12.2043
11
25.3376
21
-12.3948
0
LINE
8
BLACK
6
CONTINUOUS
10
25.3376
20
-12.3948
11
25.2424
21
-12.49
0
LINE
8
BLACK
6
CONTINUOUS
10
25.2424
20
-12.49
11
25.0519
21
-12.5853
0
LINE
8
BLACK
6
CONTINUOUS
10
25.0519
20
-12.5853
11
24.8614
21
-12.5853
0
LINE
8
BLACK
6
CONTINUOUS
10
24.8614
20
-12.5853
11
24.6709
21
-12.49
0
LINE
8
BLACK
6
CONTINUOUS
10
24.6709
20
-12.49
11
24.5757
21
-12.3948
0
LINE
8
BLACK
6
CONTINUOUS
10
24.5757
20
-12.3948
11
24.4805
21
-12.2043
0
LINE
8
BLACK
6
CONTINUOUS
10
24.4805
20
-12.2043
11
24.3852
21
-11.8234
0
LINE
8
BLACK
6
CONTINUOUS
10
24.3852
20
-11.8234
11
24.3852
21
-11.3472
0
LINE
8
BLACK
6
CONTINUOUS
10
24.3852
20
-11.3472
11
24.4805
21
-10.9662
0
LINE
8
BLACK
6
CONTINUOUS
10
24.4805
20
-10.9662
11
24.5757
21
-10.7757
0
LINE
8
BLACK
6
CONTINUOUS
10
24.5757
20
-10.7757
11
24.6709
21
-10.6805
0
LINE
8
BLACK
6
CONTINUOUS
10
24.6709
20
-10.6805
11
24.8614
21
-10.5853
0
LINE
8
BLACK
6
CONTINUOUS
10
26.29
20
-10.7757
11
26.3852
21
-10.6805
0
LINE
8
BLACK
6
CONTINUOUS
10
26.3852
20
-10.6805
11
26.5757
21
-10.5853
0
LINE
8
BLACK
6
CONTINUOUS
10
26.5757
20
-10.5853
11
27.0519
21
-10.5853
0
LINE
8
BLACK
6
CONTINUOUS
10
27.0519
20
-10.5853
11
27.2424
21
-10.6805
0
LINE
8
BLACK
6
CONTINUOUS
10
27.2424
20
-10.6805
11
27.3376
21
-10.7757
0
LINE
8
BLACK
6
CONTINUOUS
10
27.3376
20
-10.7757
11
27.4328
21
-10.9662
0
LINE
8
BLACK
6
CONTINUOUS
10
27.4328
20
-10.9662
11
27.4328
21
-11.1567
0
LINE
8
BLACK
6
CONTINUOUS
10
27.4328
20
-11.1567
11
27.3376
21
-11.4424
0
LINE
8
BLACK
6
CONTINUOUS
10
27.3376
20
-11.4424
11
26.1947
21
-12.5853
0
LINE
8
BLACK
6
CONTINUOUS
10
26.1947
20
-12.5853
11
27.4328
21
-12.5853
0
LINE
8
BLACK
6
CONTINUOUS
10
28.3852
20
-12.5853
11
28.7662
21
-12.5853
0
LINE
8
BLACK
6
CONTINUOUS
10
28.7662
20
-12.5853
11
28.9566
21
-12.49
0
LINE
8
BLACK
6
CONTINUOUS
10
28.9566
20
-12.49
11
29.0519
21
-12.3948
0
LINE
8
BLACK
6
CONTINUOUS
10
29.0519
20
-12.3948
11
29.2424
21
-12.1091
0
LINE
8
BLACK
6
CONTINUOUS
10
29.2424
20
-12.1091
11
29.3376
21
-11.7281
0
LINE
8
BLACK
6
CONTINUOUS
10
29.3376
20
-11.7281
11
29.3376
21
-10.9662
0
LINE
8
BLACK
6
CONTINUOUS
10
29.3376
20
-10.9662
11
29.2424
21
-10.7757
0
LINE
8
BLACK
6
CONTINUOUS
10
29.2424
20
-10.7757
11
29.1471
21
-10.6805
0
LINE
8
BLACK
6
CONTINUOUS
10
29.1471
20
-10.6805
11
28.9566
21
-10.5853
0
LINE
8
BLACK
6
CONTINUOUS
10
28.9566
20
-10.5853
11
28.5757
21
-10.5853
0
LINE
8
BLACK
6
CONTINUOUS
10
28.5757
20
-10.5853
11
28.3852
21
-10.6805
0
LINE
8
BLACK
6
CONTINUOUS
10
28.3852
20
-10.6805
11
28.29
21
-10.7757
0
LINE
8
BLACK
6
CONTINUOUS
10
28.29
20
-10.7757
11
28.1947
21
-10.9662
0
LINE
8
BLACK
6
CONTINUOUS
10
28.1947
20
-10.9662
11
28.1947
21
-11.4424
0
LINE
8
BLACK
6
CONTINUOUS
10
28.1947
20
-11.4424
11
28.29
21
-11.6329
0
LINE
8
BLACK
6
CONTINUOUS
10
28.29
20
-11.6329
11
28.3852
21
-11.7281
0
LINE
8
BLACK
6
CONTINUOUS
10
28.3852
20
-11.7281
11
28.5757
21
-11.8234
0
LINE
8
BLACK
6
CONTINUOUS
10
28.5757
20
-11.8234
11
28.9566
21
-11.8234
0
LINE
8
BLACK
6
CONTINUOUS
10
28.9566
20
-11.8234
11
29.1471
21
-11.7281
0
LINE
8
BLACK
6
CONTINUOUS
10
29.1471
20
-11.7281
11
29.2424
21
-11.6329
0
LINE
8
BLACK
6
CONTINUOUS
10
29.2424
20
-11.6329
11
29.3376
21
-11.4424
0
LINE
8
BLACK
6
CONTINUOUS
10
31.2424
20
-12.5853
11
30.0995
21
-12.5853
0
LINE
8
BLACK
6
CONTINUOUS
10
30.6709
20
-12.5853
11
30.6709
21
-10.5853
0
LINE
8
BLACK
6
CONTINUOUS
10
30.6709
20
-10.5853
11
30.4805
21
-10.871
0
LINE
8
BLACK
6
CONTINUOUS
10
30.4805
20
-10.871
11
30.29
21
-11.0615
0
LINE
8
BLACK
6
CONTINUOUS
10
30.29
20
-11.0615
11
30.0995
21
-11.1567
0
LINE
8
BLACK
6
CONTINUOUS
10
32.0043
20
-10.5853
11
32.0043
21
-10.9662
0
LINE
8
BLACK
6
CONTINUOUS
10
32.7662
20
-10.5853
11
32.7662
21
-10.9662
0
LINE
8
BLACK
6
CONTINUOUS
10
35.7185
20
-13.3472
11
35.6233
21
-13.2519
0
LINE
8
BLACK
6
CONTINUOUS
10
35.6233
20
-13.2519
11
35.4328
21
-12.9662
0
LINE
8
BLACK
6
CONTINUOUS
10
35.4328
20
-12.9662
11
35.3376
21
-12.7757
0
LINE
8
BLACK
6
CONTINUOUS
10
35.3376
20
-12.7757
11
35.2424
21
-12.49
0
LINE
8
BLACK
6
CONTINUOUS
10
35.2424
20
-12.49
11
35.1471
21
-12.0138
0
LINE
8
BLACK
6
CONTINUOUS
10
35.1471
20
-12.0138
11
35.1471
21
-11.6329
0
LINE
8
BLACK
6
CONTINUOUS
10
35.1471
20
-11.6329
11
35.2424
21
-11.1567
0
LINE
8
BLACK
6
CONTINUOUS
10
35.2424
20
-11.1567
11
35.3376
21
-10.871
0
LINE
8
BLACK
6
CONTINUOUS
10
35.3376
20
-10.871
11
35.4328
21
-10.6805
0
LINE
8
BLACK
6
CONTINUOUS
10
35.4328
20
-10.6805
11
35.6233
21
-10.3948
0
LINE
8
BLACK
6
CONTINUOUS
10
35.6233
20
-10.3948
11
35.7185
21
-10.2995
0
LINE
8
BLACK
6
CONTINUOUS
10
36.3852
20
-10.7757
11
36.4805
21
-10.6805
0
LINE
8
BLACK
6
CONTINUOUS
10
36.4805
20
-10.6805
11
36.6709
21
-10.5853
0
LINE
8
BLACK
6
CONTINUOUS
10
36.6709
20
-10.5853
11
37.1471
21
-10.5853
0
LINE
8
BLACK
6
CONTINUOUS
10
37.1471
20
-10.5853
11
37.3376
21
-10.6805
0
LINE
8
BLACK
6
CONTINUOUS
10
37.3376
20
-10.6805
11
37.4328
21
-10.7757
0
LINE
8
BLACK
6
CONTINUOUS
10
37.4328
20
-10.7757
11
37.5281
21
-10.9662
0
LINE
8
BLACK
6
CONTINUOUS
10
37.5281
20
-10.9662
11
37.5281
21
-11.1567
0
LINE
8
BLACK
6
CONTINUOUS
10
37.5281
20
-11.1567
11
37.4328
21
-11.4424
0
LINE
8
BLACK
6
CONTINUOUS
10
37.4328
20
-11.4424
11
36.29
21
-12.5853
0
LINE
8
BLACK
6
CONTINUOUS
10
36.29
20
-12.5853
11
37.5281
21
-12.5853
0
LINE
8
BLACK
6
CONTINUOUS
10
38.7662
20
-10.5853
11
38.9566
21
-10.5853
0
LINE
8
BLACK
6
CONTINUOUS
10
38.9566
20
-10.5853
11
39.1471
21
-10.6805
0
LINE
8
BLACK
6
CONTINUOUS
10
39.1471
20
-10.6805
11
39.2424
21
-10.7757
0
LINE
8
BLACK
6
CONTINUOUS
10
39.2424
20
-10.7757
11
39.3376
21
-10.9662
0
LINE
8
BLACK
6
CONTINUOUS
10
39.3376
20
-10.9662
11
39.4328
21
-11.3472
0
LINE
8
BLACK
6
CONTINUOUS
10
39.4328
20
-11.3472
11
39.4328
21
-11.8234
0
LINE
8
BLACK
6
CONTINUOUS
10
39.4328
20
-11.8234
11
39.3376
21
-12.2043
0
LINE
8
BLACK
6
CONTINUOUS
10
39.3376
20
-12.2043
11
39.2424
21
-12.3948
0
LINE
8
BLACK
6
CONTINUOUS
10
39.2424
20
-12.3948
11
39.1471
21
-12.49
0
LINE
8
BLACK
6
CONTINUOUS
10
39.1471
20
-12.49
11
38.9566
21
-12.5853
0
LINE
8
BLACK
6
CONTINUOUS
10
38.9566
20
-12.5853
11
38.7662
21
-12.5853
0
LINE
8
BLACK
6
CONTINUOUS
10
38.7662
20
-12.5853
11
38.5757
21
-12.49
0
LINE
8
BLACK
6
CONTINUOUS
10
38.5757
20
-12.49
11
38.4805
21
-12.3948
0
LINE
8
BLACK
6
CONTINUOUS
10
38.4805
20
-12.3948
11
38.3852
21
-12.2043
0
LINE
8
BLACK
6
CONTINUOUS
10
38.3852
20
-12.2043
11
38.29
21
-11.8234
0
LINE
8
BLACK
6
CONTINUOUS
10
38.29
20
-11.8234
11
38.29
21
-11.3472
0
LINE
8
BLACK
6
CONTINUOUS
10
38.29
20
-11.3472
11
38.3852
21
-10.9662
0
LINE
8
BLACK
6
CONTINUOUS
10
38.3852
20
-10.9662
11
38.4805
21
-10.7757
0
LINE
8
BLACK
6
CONTINUOUS
10
38.4805
20
-10.7757
11
38.5757
21
-10.6805
0
LINE
8
BLACK
6
CONTINUOUS
10
38.5757
20
-10.6805
11
38.7662
21
-10.5853
0
LINE
8
BLACK
6
CONTINUOUS
10
41.8138
20
-12.5853
11
41.8138
21
-10.5853
0
LINE
8
BLACK
6
CONTINUOUS
10
42.6709
20
-12.5853
11
42.6709
21
-11.5376
0
LINE
8
BLACK
6
CONTINUOUS
10
42.6709
20
-11.5376
11
42.5757
21
-11.3472
0
LINE
8
BLACK
6
CONTINUOUS
10
42.5757
20
-11.3472
11
42.3852
21
-11.2519
0
LINE
8
BLACK
6
CONTINUOUS
10
42.3852
20
-11.2519
11
42.0995
21
-11.2519
0
LINE
8
BLACK
6
CONTINUOUS
10
42.0995
20
-11.2519
11
41.909
21
-11.3472
0
LINE
8
BLACK
6
CONTINUOUS
10
41.909
20
-11.3472
11
41.8138
21
-11.4424
0
LINE
8
BLACK
6
CONTINUOUS
10
43.909
20
-12.5853
11
43.7185
21
-12.49
0
LINE
8
BLACK
6
CONTINUOUS
10
43.7185
20
-12.49
11
43.6233
21
-12.3948
0
LINE
8
BLACK
6
CONTINUOUS
10
43.6233
20
-12.3948
11
43.5281
21
-12.2043
0
LINE
8
BLACK
6
CONTINUOUS
10
43.5281
20
-12.2043
11
43.5281
21
-11.6329
0
LINE
8
BLACK
6
CONTINUOUS
10
43.5281
20
-11.6329
11
43.6233
21
-11.4424
0
LINE
8
BLACK
6
CONTINUOUS
10
43.6233
20
-11.4424
11
43.7185
21
-11.3472
0
LINE
8
BLACK
6
CONTINUOUS
10
43.7185
20
-11.3472
11
43.909
21
-11.2519
0
LINE
8
BLACK
6
CONTINUOUS
10
43.909
20
-11.2519
11
44.1947
21
-11.2519
0
LINE
8
BLACK
6
CONTINUOUS
10
44.1947
20
-11.2519
11
44.3852
21
-11.3472
0
LINE
8
BLACK
6
CONTINUOUS
10
44.3852
20
-11.3472
11
44.4805
21
-11.4424
0
LINE
8
BLACK
6
CONTINUOUS
10
44.4805
20
-11.4424
11
44.5757
21
-11.6329
0
LINE
8
BLACK
6
CONTINUOUS
10
44.5757
20
-11.6329
11
44.5757
21
-12.2043
0
LINE
8
BLACK
6
CONTINUOUS
10
44.5757
20
-12.2043
11
44.4805
21
-12.3948
0
LINE
8
BLACK
6
CONTINUOUS
10
44.4805
20
-12.3948
11
44.3852
21
-12.49
0
LINE
8
BLACK
6
CONTINUOUS
10
44.3852
20
-12.49
11
44.1947
21
-12.5853
0
LINE
8
BLACK
6
CONTINUOUS
10
44.1947
20
-12.5853
11
43.909
21
-12.5853
0
LINE
8
BLACK
6
CONTINUOUS
10
45.7185
20
-12.5853
11
45.5281
21
-12.49
0
LINE
8
BLACK
6
CONTINUOUS
10
45.5281
20
-12.49
11
45.4328
21
-12.2995
0
LINE
8
BLACK
6
CONTINUOUS
10
45.4328
20
-12.2995
11
45.4328
21
-10.5853
0
LINE
8
BLACK
6
CONTINUOUS
10
47.2424
20
-12.49
11
47.0519
21
-12.5853
0
LINE
8
BLACK
6
CONTINUOUS
10
47.0519
20
-12.5853
11
46.6709
21
-12.5853
0
LINE
8
BLACK
6
CONTINUOUS
10
46.6709
20
-12.5853
11
46.4805
21
-12.49
0
LINE
8
BLACK
6
CONTINUOUS
10
46.4805
20
-12.49
11
46.3852
21
-12.2995
0
LINE
8
BLACK
6
CONTINUOUS
10
46.3852
20
-12.2995
11
46.3852
21
-11.5376
0
LINE
8
BLACK
6
CONTINUOUS
10
46.3852
20
-11.5376
11
46.4805
21
-11.3472
0
LINE
8
BLACK
6
CONTINUOUS
10
46.4805
20
-11.3472
11
46.6709
21
-11.2519
0
LINE
8
BLACK
6
CONTINUOUS
10
46.6709
20
-11.2519
11
47.0519
21
-11.2519
0
LINE
8
BLACK
6
CONTINUOUS
10
47.0519
20
-11.2519
11
47.2424
21
-11.3472
0
LINE
8
BLACK
6
CONTINUOUS
10
47.2424
20
-11.3472
11
47.3376
21
-11.5376
0
LINE
8
BLACK
6
CONTINUOUS
10
47.3376
20
-11.5376
11
47.3376
21
-11.7281
0
LINE
8
BLACK
6
CONTINUOUS
10
47.3376
20
-11.7281
11
46.3852
21
-11.9186
0
LINE
8
BLACK
6
CONTINUOUS
10
48.0995
20
-12.49
11
48.29
21
-12.5853
0
LINE
8
BLACK
6
CONTINUOUS
10
48.29
20
-12.5853
11
48.6709
21
-12.5853
0
LINE
8
BLACK
6
CONTINUOUS
10
48.6709
20
-12.5853
11
48.8614
21
-12.49
0
LINE
8
BLACK
6
CONTINUOUS
10
48.8614
20
-12.49
11
48.9566
21
-12.2995
0
LINE
8
BLACK
6
CONTINUOUS
10
48.9566
20
-12.2995
11
48.9566
21
-12.2043
0
LINE
8
BLACK
6
CONTINUOUS
10
48.9566
20
-12.2043
11
48.8614
21
-12.0138
0
LINE
8
BLACK
6
CONTINUOUS
10
48.8614
20
-12.0138
11
48.6709
21
-11.9186
0
LINE
8
BLACK
6
CONTINUOUS
10
48.6709
20
-11.9186
11
48.3852
21
-11.9186
0
LINE
8
BLACK
6
CONTINUOUS
10
48.3852
20
-11.9186
11
48.1947
21
-11.8234
0
LINE
8
BLACK
6
CONTINUOUS
10
48.1947
20
-11.8234
11
48.0995
21
-11.6329
0
LINE
8
BLACK
6
CONTINUOUS
10
48.0995
20
-11.6329
11
48.0995
21
-11.5376
0
LINE
8
BLACK
6
CONTINUOUS
10
48.0995
20
-11.5376
11
48.1947
21
-11.3472
0
LINE
8
BLACK
6
CONTINUOUS
10
48.1947
20
-11.3472
11
48.3852
21
-11.2519
0
LINE
8
BLACK
6
CONTINUOUS
10
48.3852
20
-11.2519
11
48.6709
21
-11.2519
0
LINE
8
BLACK
6
CONTINUOUS
10
48.6709
20
-11.2519
11
48.8614
21
-11.3472
0
LINE
8
BLACK
6
CONTINUOUS
10
49.6233
20
-13.3472
11
49.7185
21
-13.2519
0
LINE
8
BLACK
6
CONTINUOUS
10
49.7185
20
-13.2519
11
49.909
21
-12.9662
0
LINE
8
BLACK
6
CONTINUOUS
10
49.909
20
-12.9662
11
50.0043
21
-12.7757
0
LINE
8
BLACK
6
CONTINUOUS
10
50.0043
20
-12.7757
11
50.0995
21
-12.49
0
LINE
8
BLACK
6
CONTINUOUS
10
50.0995
20
-12.49
11
50.1947
21
-12.0138
0
LINE
8
BLACK
6
CONTINUOUS
10
50.1947
20
-12.0138
11
50.1947
21
-11.6329
0
LINE
8
BLACK
6
CONTINUOUS
10
50.1947
20
-11.6329
11
50.0995
21
-11.1567
0
LINE
8
BLACK
6
CONTINUOUS
10
50.0995
20
-11.1567
11
50.0043
21
-10.871
0
LINE
8
BLACK
6
CONTINUOUS
10
50.0043
20
-10.871
11
49.909
21
-10.6805
0
LINE
8
BLACK
6
CONTINUOUS
10
49.909
20
-10.6805
11
49.7185
21
-10.3948
0
LINE
8
BLACK
6
CONTINUOUS
10
49.7185
20
-10.3948
11
49.6233
21
-10.2995
0
LINE
8
BLACK
6
CONTINUOUS
10
-0.146943
20
-14.6741
11
-0.146943
21
-13.9669
0
LINE
8
BLACK
6
CONTINUOUS
10
-0.146943
20
-13.9669
11
-0.854057
21
-13.9669
0
LINE
8
BLACK
6
CONTINUOUS
10
-0.854057
20
-13.9669
11
-0.854057
21
-14.6741
0
LINE
8
BLACK
6
CONTINUOUS
10
-0.854057
20
-14.6741
11
-0.146943
21
-14.6741
0
LINE
8
BLACK
6
CONTINUOUS
10
3.62331
20
-15.2253
11
2.48045
21
-15.2253
0
LINE
8
BLACK
6
CONTINUOUS
10
3.05188
20
-15.2253
11
3.05188
21
-13.2253
0
LINE
8
BLACK
6
CONTINUOUS
10
3.05188
20
-13.2253
11
2.8614
21
-13.511
0
LINE
8
BLACK
6
CONTINUOUS
10
2.8614
20
-13.511
11
2.67093
21
-13.7015
0
LINE
8
BLACK
6
CONTINUOUS
10
2.67093
20
-13.7015
11
2.48045
21
-13.7967
0
LINE
8
BLACK
6
CONTINUOUS
10
4.48045
20
-15.0348
11
4.57569
21
-15.13
0
LINE
8
BLACK
6
CONTINUOUS
10
4.57569
20
-15.13
11
4.48045
21
-15.2253
0
LINE
8
BLACK
6
CONTINUOUS
10
4.48045
20
-15.2253
11
4.38521
21
-15.13
0
LINE
8
BLACK
6
CONTINUOUS
10
4.38521
20
-15.13
11
4.48045
21
-15.0348
0
LINE
8
BLACK
6
CONTINUOUS
10
4.48045
20
-15.0348
11
4.48045
21
-15.2253
0
LINE
8
BLACK
6
CONTINUOUS
10
5.81378
20
-13.2253
11
6.00426
21
-13.2253
0
LINE
8
BLACK
6
CONTINUOUS
10
6.00426
20
-13.2253
11
6.19474
21
-13.3205
0
LINE
8
BLACK
6
CONTINUOUS
10
6.19474
20
-13.3205
11
6.28998
21
-13.4157
0
LINE
8
BLACK
6
CONTINUOUS
10
6.28998
20
-13.4157
11
6.38521
21
-13.6062
0
LINE
8
BLACK
6
CONTINUOUS
10
6.38521
20
-13.6062
11
6.48045
21
-13.9872
0
LINE
8
BLACK
6
CONTINUOUS
10
6.48045
20
-13.9872
11
6.48045
21
-14.4634
0
LINE
8
BLACK
6
CONTINUOUS
10
6.48045
20
-14.4634
11
6.38521
21
-14.8443
0
LINE
8
BLACK
6
CONTINUOUS
10
6.38521
20
-14.8443
11
6.28998
21
-15.0348
0
LINE
8
BLACK
6
CONTINUOUS
10
6.28998
20
-15.0348
11
6.19474
21
-15.13
0
LINE
8
BLACK
6
CONTINUOUS
10
6.19474
20
-15.13
11
6.00426
21
-15.2253
0
LINE
8
BLACK
6
CONTINUOUS
10
6.00426
20
-15.2253
11
5.81378
21
-15.2253
0
LINE
8
BLACK
6
CONTINUOUS
10
5.81378
20
-15.2253
11
5.62331
21
-15.13
0
LINE
8
BLACK
6
CONTINUOUS
10
5.62331
20
-15.13
11
5.52807
21
-15.0348
0
LINE
8
BLACK
6
CONTINUOUS
10
5.52807
20
-15.0348
11
5.43283
21
-14.8443
0
LINE
8
BLACK
6
CONTINUOUS
10
5.43283
20
-14.8443
11
5.33759
21
-14.4634
0
LINE
8
BLACK
6
CONTINUOUS
10
5.33759
20
-14.4634
11
5.33759
21
-13.9872
0
LINE
8
BLACK
6
CONTINUOUS
10
5.33759
20
-13.9872
11
5.43283
21
-13.6062
0
LINE
8
BLACK
6
CONTINUOUS
10
5.43283
20
-13.6062
11
5.52807
21
-13.4157
0
LINE
8
BLACK
6
CONTINUOUS
10
5.52807
20
-13.4157
11
5.62331
21
-13.3205
0
LINE
8
BLACK
6
CONTINUOUS
10
5.62331
20
-13.3205
11
5.81378
21
-13.2253
0
LINE
8
BLACK
6
CONTINUOUS
10
7.71855
20
-13.2253
11
7.90902
21
-13.2253
0
LINE
8
BLACK
6
CONTINUOUS
10
7.90902
20
-13.2253
11
8.0995
21
-13.3205
0
LINE
8
BLACK
6
CONTINUOUS
10
8.0995
20
-13.3205
11
8.19474
21
-13.4157
0
LINE
8
BLACK
6
CONTINUOUS
10
8.19474
20
-13.4157
11
8.28998
21
-13.6062
0
LINE
8
BLACK
6
CONTINUOUS
10
8.28998
20
-13.6062
11
8.38521
21
-13.9872
0
LINE
8
BLACK
6
CONTINUOUS
10
8.38521
20
-13.9872
11
8.38521
21
-14.4634
0
LINE
8
BLACK
6
CONTINUOUS
10
8.38521
20
-14.4634
11
8.28998
21
-14.8443
0
LINE
8
BLACK
6
CONTINUOUS
10
8.28998
20
-14.8443
11
8.19474
21
-15.0348
0
LINE
8
BLACK
6
CONTINUOUS
10
8.19474
20
-15.0348
11
8.0995
21
-15.13
0
LINE
8
BLACK
6
CONTINUOUS
10
8.0995
20
-15.13
11
7.90902
21
-15.2253
0
LINE
8
BLACK
6
CONTINUOUS
10
7.90902
20
-15.2253
11
7.71855
21
-15.2253
0
LINE
8
BLACK
6
CONTINUOUS
10
7.71855
20
-15.2253
11
7.52807
21
-15.13
0
LINE
8
BLACK
6
CONTINUOUS
10
7.52807
20
-15.13
11
7.43283
21
-15.0348
0
LINE
8
BLACK
6
CONTINUOUS
10
7.43283
20
-15.0348
11
7.33759
21
-14.8443
0
LINE
8
BLACK
6
CONTINUOUS
10
7.33759
20
-14.8443
11
7.24236
21
-14.4634
0
LINE
8
BLACK
6
CONTINUOUS
10
7.24236
20
-14.4634
11
7.24236
21
-13.9872
0
LINE
8
BLACK
6
CONTINUOUS
10
7.24236
20
-13.9872
11
7.33759
21
-13.6062
0
LINE
8
BLACK
6
CONTINUOUS
10
7.33759
20
-13.6062
11
7.43283
21
-13.4157
0
LINE
8
BLACK
6
CONTINUOUS
10
7.43283
20
-13.4157
11
7.52807
21
-13.3205
0
LINE
8
BLACK
6
CONTINUOUS
10
7.52807
20
-13.3205
11
7.71855
21
-13.2253
0
LINE
8
BLACK
6
CONTINUOUS
10
9.62331
20
-13.2253
11
9.81378
21
-13.2253
0
LINE
8
BLACK
6
CONTINUOUS
10
9.81378
20
-13.2253
11
10.0043
21
-13.3205
0
LINE
8
BLACK
6
CONTINUOUS
10
10.0043
20
-13.3205
11
10.0995
21
-13.4157
0
LINE
8
BLACK
6
CONTINUOUS
10
10.0995
20
-13.4157
11
10.1947
21
-13.6062
0
LINE
8
BLACK
6
CONTINUOUS
10
10.1947
20
-13.6062
11
10.29
21
-13.9872
0
LINE
8
BLACK
6
CONTINUOUS
10
10.29
20
-13.9872
11
10.29
21
-14.4634
0
LINE
8
BLACK
6
CONTINUOUS
10
10.29
20
-14.4634
11
10.1947
21
-14.8443
0
LINE
8
BLACK
6
CONTINUOUS
10
10.1947
20
-14.8443
11
10.0995
21
-15.0348
0
LINE
8
BLACK
6
CONTINUOUS
10
10.0995
20
-15.0348
11
10.0043
21
-15.13
0
LINE
8
BLACK
6
CONTINUOUS
10
10.0043
20
-15.13
11
9.81378
21
-15.2253
0
LINE
8
BLACK
6
CONTINUOUS
10
9.81378
20
-15.2253
11
9.62331
21
-15.2253
0
LINE
8
BLACK
6
CONTINUOUS
10
9.62331
20
-15.2253
11
9.43283
21
-15.13
0
LINE
8
BLACK
6
CONTINUOUS
10
9.43283
20
-15.13
11
9.3376
21
-15.0348
0
LINE
8
BLACK
6
CONTINUOUS
10
9.3376
20
-15.0348
11
9.24236
21
-14.8443
0
LINE
8
BLACK
6
CONTINUOUS
10
9.24236
20
-14.8443
11
9.14712
21
-14.4634
0
LINE
8
BLACK
6
CONTINUOUS
10
9.14712
20
-14.4634
11
9.14712
21
-13.9872
0
LINE
8
BLACK
6
CONTINUOUS
10
9.14712
20
-13.9872
11
9.24236
21
-13.6062
0
LINE
8
BLACK
6
CONTINUOUS
10
9.24236
20
-13.6062
11
9.3376
21
-13.4157
0
LINE
8
BLACK
6
CONTINUOUS
10
9.3376
20
-13.4157
11
9.43283
21
-13.3205
0
LINE
8
BLACK
6
CONTINUOUS
10
9.43283
20
-13.3205
11
9.62331
21
-13.2253
0
LINE
8
BLACK
6
CONTINUOUS
10
11.1471
20
-15.2253
11
11.1471
21
-13.8919
0
LINE
8
BLACK
6
CONTINUOUS
10
11.1471
20
-14.0824
11
11.2424
21
-13.9872
0
LINE
8
BLACK
6
CONTINUOUS
10
11.2424
20
-13.9872
11
11.4328
21
-13.8919
0
LINE
8
BLACK
6
CONTINUOUS
10
11.4328
20
-13.8919
11
11.7185
21
-13.8919
0
LINE
8
BLACK
6
CONTINUOUS
10
11.7185
20
-13.8919
11
11.909
21
-13.9872
0
LINE
8
BLACK
6
CONTINUOUS
10
11.909
20
-13.9872
11
12.0043
21
-14.1776
0
LINE
8
BLACK
6
CONTINUOUS
10
12.0043
20
-14.1776
11
12.0043
21
-15.2253
0
LINE
8
BLACK
6
CONTINUOUS
10
12.0043
20
-14.1776
11
12.0995
21
-13.9872
0
LINE
8
BLACK
6
CONTINUOUS
10
12.0995
20
-13.9872
11
12.29
21
-13.8919
0
LINE
8
BLACK
6
CONTINUOUS
10
12.29
20
-13.8919
11
12.5757
21
-13.8919
0
LINE
8
BLACK
6
CONTINUOUS
10
12.5757
20
-13.8919
11
12.7662
21
-13.9872
0
LINE
8
BLACK
6
CONTINUOUS
10
12.7662
20
-13.9872
11
12.8614
21
-14.1776
0
LINE
8
BLACK
6
CONTINUOUS
10
12.8614
20
-14.1776
11
12.8614
21
-15.2253
0
LINE
8
BLACK
6
CONTINUOUS
10
13.8138
20
-15.2253
11
13.8138
21
-13.8919
0
LINE
8
BLACK
6
CONTINUOUS
10
13.8138
20
-14.0824
11
13.909
21
-13.9872
0
LINE
8
BLACK
6
CONTINUOUS
10
13.909
20
-13.9872
11
14.0995
21
-13.8919
0
LINE
8
BLACK
6
CONTINUOUS
10
14.0995
20
-13.8919
11
14.3852
21
-13.8919
0
LINE
8
BLACK
6
CONTINUOUS
10
14.3852
20
-13.8919
11
14.5757
21
-13.9872
0
LINE
8
BLACK
6
CONTINUOUS
10
14.5757
20
-13.9872
11
14.6709
21
-14.1776
0
LINE
8
BLACK
6
CONTINUOUS
10
14.6709
20
-14.1776
11
14.6709
21
-15.2253
0
LINE
8
BLACK
6
CONTINUOUS
10
14.6709
20
-14.1776
11
14.7662
21
-13.9872
0
LINE
8
BLACK
6
CONTINUOUS
10
14.7662
20
-13.9872
11
14.9566
21
-13.8919
0
LINE
8
BLACK
6
CONTINUOUS
10
14.9566
20
-13.8919
11
15.2424
21
-13.8919
0
LINE
8
BLACK
6
CONTINUOUS
10
15.2424
20
-13.8919
11
15.4328
21
-13.9872
0
LINE
8
BLACK
6
CONTINUOUS
10
15.4328
20
-13.9872
11
15.5281
21
-14.1776
0
LINE
8
BLACK
6
CONTINUOUS
10
15.5281
20
-14.1776
11
15.5281
21
-15.2253
0
LINE
8
BLACK
6
CONTINUOUS
10
19.4328
20
-13.13
11
17.7185
21
-15.7015
0
LINE
8
BLACK
6
CONTINUOUS
10
22.0043
20
-13.2253
11
22.1947
21
-13.2253
0
LINE
8
BLACK
6
CONTINUOUS
10
22.1947
20
-13.2253
11
22.3852
21
-13.3205
0
LINE
8
BLACK
6
CONTINUOUS
10
22.3852
20
-13.3205
11
22.4805
21
-13.4157
0
LINE
8
BLACK
6
CONTINUOUS
10
22.4805
20
-13.4157
11
22.5757
21
-13.6062
0
LINE
8
BLACK
6
CONTINUOUS
10
22.5757
20
-13.6062
11
22.6709
21
-13.9872
0
LINE
8
BLACK
6
CONTINUOUS
10
22.6709
20
-13.9872
11
22.6709
21
-14.4634
0
LINE
8
BLACK
6
CONTINUOUS
10
22.6709
20
-14.4634
11
22.5757
21
-14.8443
0
LINE
8
BLACK
6
CONTINUOUS
10
22.5757
20
-14.8443
11
22.4805
21
-15.0348
0
LINE
8
BLACK
6
CONTINUOUS
10
22.4805
20
-15.0348
11
22.3852
21
-15.13
0
LINE
8
BLACK
6
CONTINUOUS
10
22.3852
20
-15.13
11
22.1947
21
-15.2253
0
LINE
8
BLACK
6
CONTINUOUS
10
22.1947
20
-15.2253
11
22.0043
21
-15.2253
0
LINE
8
BLACK
6
CONTINUOUS
10
22.0043
20
-15.2253
11
21.8138
21
-15.13
0
LINE
8
BLACK
6
CONTINUOUS
10
21.8138
20
-15.13
11
21.7185
21
-15.0348
0
LINE
8
BLACK
6
CONTINUOUS
10
21.7185
20
-15.0348
11
21.6233
21
-14.8443
0
LINE
8
BLACK
6
CONTINUOUS
10
21.6233
20
-14.8443
11
21.5281
21
-14.4634
0
LINE
8
BLACK
6
CONTINUOUS
10
21.5281
20
-14.4634
11
21.5281
21
-13.9872
0
LINE
8
BLACK
6
CONTINUOUS
10
21.5281
20
-13.9872
11
21.6233
21
-13.6062
0
LINE
8
BLACK
6
CONTINUOUS
10
21.6233
20
-13.6062
11
21.7185
21
-13.4157
0
LINE
8
BLACK
6
CONTINUOUS
10
21.7185
20
-13.4157
11
21.8138
21
-13.3205
0
LINE
8
BLACK
6
CONTINUOUS
10
21.8138
20
-13.3205
11
22.0043
21
-13.2253
0
LINE
8
BLACK
6
CONTINUOUS
10
23.5281
20
-15.0348
11
23.6233
21
-15.13
0
LINE
8
BLACK
6
CONTINUOUS
10
23.6233
20
-15.13
11
23.5281
21
-15.2253
0
LINE
8
BLACK
6
CONTINUOUS
10
23.5281
20
-15.2253
11
23.4328
21
-15.13
0
LINE
8
BLACK
6
CONTINUOUS
10
23.4328
20
-15.13
11
23.5281
21
-15.0348
0
LINE
8
BLACK
6
CONTINUOUS
10
23.5281
20
-15.0348
11
23.5281
21
-15.2253
0
LINE
8
BLACK
6
CONTINUOUS
10
24.8614
20
-13.2253
11
25.0519
21
-13.2253
0
LINE
8
BLACK
6
CONTINUOUS
10
25.0519
20
-13.2253
11
25.2424
21
-13.3205
0
LINE
8
BLACK
6
CONTINUOUS
10
25.2424
20
-13.3205
11
25.3376
21
-13.4157
0
LINE
8
BLACK
6
CONTINUOUS
10
25.3376
20
-13.4157
11
25.4328
21
-13.6062
0
LINE
8
BLACK
6
CONTINUOUS
10
25.4328
20
-13.6062
11
25.5281
21
-13.9872
0
LINE
8
BLACK
6
CONTINUOUS
10
25.5281
20
-13.9872
11
25.5281
21
-14.4634
0
LINE
8
BLACK
6
CONTINUOUS
10
25.5281
20
-14.4634
11
25.4328
21
-14.8443
0
LINE
8
BLACK
6
CONTINUOUS
10
25.4328
20
-14.8443
11
25.3376
21
-15.0348
0
LINE
8
BLACK
6
CONTINUOUS
10
25.3376
20
-15.0348
11
25.2424
21
-15.13
0
LINE
8
BLACK
6
CONTINUOUS
10
25.2424
20
-15.13
11
25.0519
21
-15.2253
0
LINE
8
BLACK
6
CONTINUOUS
10
25.0519
20
-15.2253
11
24.8614
21
-15.2253
0
LINE
8
BLACK
6
CONTINUOUS
10
24.8614
20
-15.2253
11
24.6709
21
-15.13
0
LINE
8
BLACK
6
CONTINUOUS
10
24.6709
20
-15.13
11
24.5757
21
-15.0348
0
LINE
8
BLACK
6
CONTINUOUS
10
24.5757
20
-15.0348
11
24.4805
21
-14.8443
0
LINE
8
BLACK
6
CONTINUOUS
10
24.4805
20
-14.8443
11
24.3852
21
-14.4634
0
LINE
8
BLACK
6
CONTINUOUS
10
24.3852
20
-14.4634
11
24.3852
21
-13.9872
0
LINE
8
BLACK
6
CONTINUOUS
10
24.3852
20
-13.9872
11
24.4805
21
-13.6062
0
LINE
8
BLACK
6
CONTINUOUS
10
24.4805
20
-13.6062
11
24.5757
21
-13.4157
0
LINE
8
BLACK
6
CONTINUOUS
10
24.5757
20
-13.4157
11
24.6709
21
-13.3205
0
LINE
8
BLACK
6
CONTINUOUS
10
24.6709
20
-13.3205
11
24.8614
21
-13.2253
0
LINE
8
BLACK
6
CONTINUOUS
10
26.1947
20
-13.2253
11
27.4328
21
-13.2253
0
LINE
8
BLACK
6
CONTINUOUS
10
27.4328
20
-13.2253
11
26.7662
21
-13.9872
0
LINE
8
BLACK
6
CONTINUOUS
10
26.7662
20
-13.9872
11
27.0519
21
-13.9872
0
LINE
8
BLACK
6
CONTINUOUS
10
27.0519
20
-13.9872
11
27.2424
21
-14.0824
0
LINE
8
BLACK
6
CONTINUOUS
10
27.2424
20
-14.0824
11
27.3376
21
-14.1776
0
LINE
8
BLACK
6
CONTINUOUS
10
27.3376
20
-14.1776
11
27.4328
21
-14.3681
0
LINE
8
BLACK
6
CONTINUOUS
10
27.4328
20
-14.3681
11
27.4328
21
-14.8443
0
LINE
8
BLACK
6
CONTINUOUS
10
27.4328
20
-14.8443
11
27.3376
21
-15.0348
0
LINE
8
BLACK
6
CONTINUOUS
10
27.3376
20
-15.0348
11
27.2424
21
-15.13
0
LINE
8
BLACK
6
CONTINUOUS
10
27.2424
20
-15.13
11
27.0519
21
-15.2253
0
LINE
8
BLACK
6
CONTINUOUS
10
27.0519
20
-15.2253
11
26.4805
21
-15.2253
0
LINE
8
BLACK
6
CONTINUOUS
10
26.4805
20
-15.2253
11
26.29
21
-15.13
0
LINE
8
BLACK
6
CONTINUOUS
10
26.29
20
-15.13
11
26.1947
21
-15.0348
0
LINE
8
BLACK
6
CONTINUOUS
10
28.3852
20
-15.2253
11
28.7662
21
-15.2253
0
LINE
8
BLACK
6
CONTINUOUS
10
28.7662
20
-15.2253
11
28.9566
21
-15.13
0
LINE
8
BLACK
6
CONTINUOUS
10
28.9566
20
-15.13
11
29.0519
21
-15.0348
0
LINE
8
BLACK
6
CONTINUOUS
10
29.0519
20
-15.0348
11
29.2424
21
-14.7491
0
LINE
8
BLACK
6
CONTINUOUS
10
29.2424
20
-14.7491
11
29.3376
21
-14.3681
0
LINE
8
BLACK
6
CONTINUOUS
10
29.3376
20
-14.3681
11
29.3376
21
-13.6062
0
LINE
8
BLACK
6
CONTINUOUS
10
29.3376
20
-13.6062
11
29.2424
21
-13.4157
0
LINE
8
BLACK
6
CONTINUOUS
10
29.2424
20
-13.4157
11
29.1471
21
-13.3205
0
LINE
8
BLACK
6
CONTINUOUS
10
29.1471
20
-13.3205
11
28.9566
21
-13.2253
0
LINE
8
BLACK
6
CONTINUOUS
10
28.9566
20
-13.2253
11
28.5757
21
-13.2253
0
LINE
8
BLACK
6
CONTINUOUS
10
28.5757
20
-13.2253
11
28.3852
21
-13.3205
0
LINE
8
BLACK
6
CONTINUOUS
10
28.3852
20
-13.3205
11
28.29
21
-13.4157
0
LINE
8
BLACK
6
CONTINUOUS
10
28.29
20
-13.4157
11
28.1947
21
-13.6062
0
LINE
8
BLACK
6
CONTINUOUS
10
28.1947
20
-13.6062
11
28.1947
21
-14.0824
0
LINE
8
BLACK
6
CONTINUOUS
10
28.1947
20
-14.0824
11
28.29
21
-14.2729
0
LINE
8
BLACK
6
CONTINUOUS
10
28.29
20
-14.2729
11
28.3852
21
-14.3681
0
LINE
8
BLACK
6
CONTINUOUS
10
28.3852
20
-14.3681
11
28.5757
21
-14.4634
0
LINE
8
BLACK
6
CONTINUOUS
10
28.5757
20
-14.4634
11
28.9566
21
-14.4634
0
LINE
8
BLACK
6
CONTINUOUS
10
28.9566
20
-14.4634
11
29.1471
21
-14.3681
0
LINE
8
BLACK
6
CONTINUOUS
10
29.1471
20
-14.3681
11
29.2424
21
-14.2729
0
LINE
8
BLACK
6
CONTINUOUS
10
29.2424
20
-14.2729
11
29.3376
21
-14.0824
0
LINE
8
BLACK
6
CONTINUOUS
10
31.0519
20
-13.8919
11
31.0519
21
-15.2253
0
LINE
8
BLACK
6
CONTINUOUS
10
30.5757
20
-13.13
11
30.0995
21
-14.5586
0
LINE
8
BLACK
6
CONTINUOUS
10
30.0995
20
-14.5586
11
31.3376
21
-14.5586
0
LINE
8
BLACK
6
CONTINUOUS
10
32.0043
20
-13.2253
11
32.0043
21
-13.6062
0
LINE
8
BLACK
6
CONTINUOUS
10
32.7662
20
-13.2253
11
32.7662
21
-13.6062
0
LINE
8
BLACK
6
CONTINUOUS
10
35.7185
20
-15.9872
11
35.6233
21
-15.8919
0
LINE
8
BLACK
6
CONTINUOUS
10
35.6233
20
-15.8919
11
35.4328
21
-15.6062
0
LINE
8
BLACK
6
CONTINUOUS
10
35.4328
20
-15.6062
11
35.3376
21
-15.4157
0
LINE
8
BLACK
6
CONTINUOUS
10
35.3376
20
-15.4157
11
35.2424
21
-15.13
0
LINE
8
BLACK
6
CONTINUOUS
10
35.2424
20
-15.13
11
35.1471
21
-14.6538
0
LINE
8
BLACK
6
CONTINUOUS
10
35.1471
20
-14.6538
11
35.1471
21
-14.2729
0
LINE
8
BLACK
6
CONTINUOUS
10
35.1471
20
-14.2729
11
35.2424
21
-13.7967
0
LINE
8
BLACK
6
CONTINUOUS
10
35.2424
20
-13.7967
11
35.3376
21
-13.511
0
LINE
8
BLACK
6
CONTINUOUS
10
35.3376
20
-13.511
11
35.4328
21
-13.3205
0
LINE
8
BLACK
6
CONTINUOUS
10
35.4328
20
-13.3205
11
35.6233
21
-13.0348
0
LINE
8
BLACK
6
CONTINUOUS
10
35.6233
20
-13.0348
11
35.7185
21
-12.9395
0
LINE
8
BLACK
6
CONTINUOUS
10
37.5281
20
-15.2253
11
36.3852
21
-15.2253
0
LINE
8
BLACK
6
CONTINUOUS
10
36.9566
20
-15.2253
11
36.9566
21
-13.2253
0
LINE
8
BLACK
6
CONTINUOUS
10
36.9566
20
-13.2253
11
36.7662
21
-13.511
0
LINE
8
BLACK
6
CONTINUOUS
10
36.7662
20
-13.511
11
36.5757
21
-13.7015
0
LINE
8
BLACK
6
CONTINUOUS
10
36.5757
20
-13.7015
11
36.3852
21
-13.7967
0
LINE
8
BLACK
6
CONTINUOUS
10
39.2424
20
-13.2253
11
38.8614
21
-13.2253
0
LINE
8
BLACK
6
CONTINUOUS
10
38.8614
20
-13.2253
11
38.6709
21
-13.3205
0
LINE
8
BLACK
6
CONTINUOUS
10
38.6709
20
-13.3205
11
38.5757
21
-13.4157
0
LINE
8
BLACK
6
CONTINUOUS
10
38.5757
20
-13.4157
11
38.3852
21
-13.7015
0
LINE
8
BLACK
6
CONTINUOUS
10
38.3852
20
-13.7015
11
38.29
21
-14.0824
0
LINE
8
BLACK
6
CONTINUOUS
10
38.29
20
-14.0824
11
38.29
21
-14.8443
0
LINE
8
BLACK
6
CONTINUOUS
10
38.29
20
-14.8443
11
38.3852
21
-15.0348
0
LINE
8
BLACK
6
CONTINUOUS
10
38.3852
20
-15.0348
11
38.4805
21
-15.13
0
LINE
8
BLACK
6
CONTINUOUS
10
38.4805
20
-15.13
11
38.6709
21
-15.2253
0
LINE
8
BLACK
6
CONTINUOUS
10
38.6709
20
-15.2253
11
39.0519
21
-15.2253
0
LINE
8
BLACK
6
CONTINUOUS
10
39.0519
20
-15.2253
11
39.2424
21
-15.13
0
LINE
8
BLACK
6
CONTINUOUS
10
39.2424
20
-15.13
11
39.3376
21
-15.0348
0
LINE
8
BLACK
6
CONTINUOUS
10
39.3376
20
-15.0348
11
39.4328
21
-14.8443
0
LINE
8
BLACK
6
CONTINUOUS
10
39.4328
20
-14.8443
11
39.4328
21
-14.3681
0
LINE
8
BLACK
6
CONTINUOUS
10
39.4328
20
-14.3681
11
39.3376
21
-14.1776
0
LINE
8
BLACK
6
CONTINUOUS
10
39.3376
20
-14.1776
11
39.2424
21
-14.0824
0
LINE
8
BLACK
6
CONTINUOUS
10
39.2424
20
-14.0824
11
39.0519
21
-13.9872
0
LINE
8
BLACK
6
CONTINUOUS
10
39.0519
20
-13.9872
11
38.6709
21
-13.9872
0
LINE
8
BLACK
6
CONTINUOUS
10
38.6709
20
-13.9872
11
38.4805
21
-14.0824
0
LINE
8
BLACK
6
CONTINUOUS
10
38.4805
20
-14.0824
11
38.3852
21
-14.1776
0
LINE
8
BLACK
6
CONTINUOUS
10
38.3852
20
-14.1776
11
38.29
21
-14.3681
0
LINE
8
BLACK
6
CONTINUOUS
10
41.8138
20
-15.2253
11
41.8138
21
-13.2253
0
LINE
8
BLACK
6
CONTINUOUS
10
42.6709
20
-15.2253
11
42.6709
21
-14.1776
0
LINE
8
BLACK
6
CONTINUOUS
10
42.6709
20
-14.1776
11
42.5757
21
-13.9872
0
LINE
8
BLACK
6
CONTINUOUS
10
42.5757
20
-13.9872
11
42.3852
21
-13.8919
0
LINE
8
BLACK
6
CONTINUOUS
10
42.3852
20
-13.8919
11
42.0995
21
-13.8919
0
LINE
8
BLACK
6
CONTINUOUS
10
42.0995
20
-13.8919
11
41.909
21
-13.9872
0
LINE
8
BLACK
6
CONTINUOUS
10
41.909
20
-13.9872
11
41.8138
21
-14.0824
0
LINE
8
BLACK
6
CONTINUOUS
10
43.909
20
-15.2253
11
43.7185
21
-15.13
0
LINE
8
BLACK
6
CONTINUOUS
10
43.7185
20
-15.13
11
43.6233
21
-15.0348
0
LINE
8
BLACK
6
CONTINUOUS
10
43.6233
20
-15.0348
11
43.5281
21
-14.8443
0
LINE
8
BLACK
6
CONTINUOUS
10
43.5281
20
-14.8443
11
43.5281
21
-14.2729
0
LINE
8
BLACK
6
CONTINUOUS
10
43.5281
20
-14.2729
11
43.6233
21
-14.0824
0
LINE
8
BLACK
6
CONTINUOUS
10
43.6233
20
-14.0824
11
43.7185
21
-13.9872
0
LINE
8
BLACK
6
CONTINUOUS
10
43.7185
20
-13.9872
11
43.909
21
-13.8919
0
LINE
8
BLACK
6
CONTINUOUS
10
43.909
20
-13.8919
11
44.1947
21
-13.8919
0
LINE
8
BLACK
6
CONTINUOUS
10
44.1947
20
-13.8919
11
44.3852
21
-13.9872
0
LINE
8
BLACK
6
CONTINUOUS
10
44.3852
20
-13.9872
11
44.4805
21
-14.0824
0
LINE
8
BLACK
6
CONTINUOUS
10
44.4805
20
-14.0824
11
44.5757
21
-14.2729
0
LINE
8
BLACK
6
CONTINUOUS
10
44.5757
20
-14.2729
11
44.5757
21
-14.8443
0
LINE
8
BLACK
6
CONTINUOUS
10
44.5757
20
-14.8443
11
44.4805
21
-15.0348
0
LINE
8
BLACK
6
CONTINUOUS
10
44.4805
20
-15.0348
11
44.3852
21
-15.13
0
LINE
8
BLACK
6
CONTINUOUS
10
44.3852
20
-15.13
11
44.1947
21
-15.2253
0
LINE
8
BLACK
6
CONTINUOUS
10
44.1947
20
-15.2253
11
43.909
21
-15.2253
0
LINE
8
BLACK
6
CONTINUOUS
10
45.7185
20
-15.2253
11
45.5281
21
-15.13
0
LINE
8
BLACK
6
CONTINUOUS
10
45.5281
20
-15.13
11
45.4328
21
-14.9395
0
LINE
8
BLACK
6
CONTINUOUS
10
45.4328
20
-14.9395
11
45.4328
21
-13.2253
0
LINE
8
BLACK
6
CONTINUOUS
10
47.2424
20
-15.13
11
47.0519
21
-15.2253
0
LINE
8
BLACK
6
CONTINUOUS
10
47.0519
20
-15.2253
11
46.6709
21
-15.2253
0
LINE
8
BLACK
6
CONTINUOUS
10
46.6709
20
-15.2253
11
46.4805
21
-15.13
0
LINE
8
BLACK
6
CONTINUOUS
10
46.4805
20
-15.13
11
46.3852
21
-14.9395
0
LINE
8
BLACK
6
CONTINUOUS
10
46.3852
20
-14.9395
11
46.3852
21
-14.1776
0
LINE
8
BLACK
6
CONTINUOUS
10
46.3852
20
-14.1776
11
46.4805
21
-13.9872
0
LINE
8
BLACK
6
CONTINUOUS
10
46.4805
20
-13.9872
11
46.6709
21
-13.8919
0
LINE
8
BLACK
6
CONTINUOUS
10
46.6709
20
-13.8919
11
47.0519
21
-13.8919
0
LINE
8
BLACK
6
CONTINUOUS
10
47.0519
20
-13.8919
11
47.2424
21
-13.9872
0
LINE
8
BLACK
6
CONTINUOUS
10
47.2424
20
-13.9872
11
47.3376
21
-14.1776
0
LINE
8
BLACK
6
CONTINUOUS
10
47.3376
20
-14.1776
11
47.3376
21
-14.3681
0
LINE
8
BLACK
6
CONTINUOUS
10
47.3376
20
-14.3681
11
46.3852
21
-14.5586
0
LINE
8
BLACK
6
CONTINUOUS
10
48.0995
20
-15.13
11
48.29
21
-15.2253
0
LINE
8
BLACK
6
CONTINUOUS
10
48.29
20
-15.2253
11
48.6709
21
-15.2253
0
LINE
8
BLACK
6
CONTINUOUS
10
48.6709
20
-15.2253
11
48.8614
21
-15.13
0
LINE
8
BLACK
6
CONTINUOUS
10
48.8614
20
-15.13
11
48.9566
21
-14.9395
0
LINE
8
BLACK
6
CONTINUOUS
10
48.9566
20
-14.9395
11
48.9566
21
-14.8443
0
LINE
8
BLACK
6
CONTINUOUS
10
48.9566
20
-14.8443
11
48.8614
21
-14.6538
0
LINE
8
BLACK
6
CONTINUOUS
10
48.8614
20
-14.6538
11
48.6709
21
-14.5586
0
LINE
8
BLACK
6
CONTINUOUS
10
48.6709
20
-14.5586
11
48.3852
21
-14.5586
0
LINE
8
BLACK
6
CONTINUOUS
10
48.3852
20
-14.5586
11
48.1947
21
-14.4634
0
LINE
8
BLACK
6
CONTINUOUS
10
48.1947
20
-14.4634
11
48.0995
21
-14.2729
0
LINE
8
BLACK
6
CONTINUOUS
10
48.0995
20
-14.2729
11
48.0995
21
-14.1776
0
LINE
8
BLACK
6
CONTINUOUS
10
48.0995
20
-14.1776
11
48.1947
21
-13.9872
0
LINE
8
BLACK
6
CONTINUOUS
10
48.1947
20
-13.9872
11
48.3852
21
-13.8919
0
LINE
8
BLACK
6
CONTINUOUS
10
48.3852
20
-13.8919
11
48.6709
21
-13.8919
0
LINE
8
BLACK
6
CONTINUOUS
10
48.6709
20
-13.8919
11
48.8614
21
-13.9872
0
LINE
8
BLACK
6
CONTINUOUS
10
49.6233
20
-15.9872
11
49.7185
21
-15.8919
0
LINE
8
BLACK
6
CONTINUOUS
10
49.7185
20
-15.8919
11
49.909
21
-15.6062
0
LINE
8
BLACK
6
CONTINUOUS
10
49.909
20
-15.6062
11
50.0043
21
-15.4157
0
LINE
8
BLACK
6
CONTINUOUS
10
50.0043
20
-15.4157
11
50.0995
21
-15.13
0
LINE
8
BLACK
6
CONTINUOUS
10
50.0995
20
-15.13
11
50.1947
21
-14.6538
0
LINE
8
BLACK
6
CONTINUOUS
10
50.1947
20
-14.6538
11
50.1947
21
-14.2729
0
LINE
8
BLACK
6
CONTINUOUS
10
50.1947
20
-14.2729
11
50.0995
21
-13.7967
0
LINE
8
BLACK
6
CONTINUOUS
10
50.0995
20
-13.7967
11
50.0043
21
-13.511
0
LINE
8
BLACK
6
CONTINUOUS
10
50.0043
20
-13.511
11
49.909
21
-13.3205
0
LINE
8
BLACK
6
CONTINUOUS
10
49.909
20
-13.3205
11
49.7185
21
-13.0348
0
LINE
8
BLACK
6
CONTINUOUS
10
49.7185
20
-13.0348
11
49.6233
21
-12.9395
0
LINE
8
BLACK
6
CONTINUOUS
10
-0.6405
20
-17.6005
11
-0.0005
21
-16.9605
0
LINE
8
BLACK
6
CONTINUOUS
10
-0.0005
20
-16.9605
11
-0.6405
21
-16.3205
0
LINE
8
BLACK
6
CONTINUOUS
10
-0.6405
20
-16.3205
11
-1.2805
21
-16.9605
0
LINE
8
BLACK
6
CONTINUOUS
10
-1.2805
20
-16.9605
11
-0.6405
21
-17.6005
0
LINE
8
BLACK
6
CONTINUOUS
10
3.62331
20
-17.8653
11
2.48045
21
-17.8653
0
LINE
8
BLACK
6
CONTINUOUS
10
3.05188
20
-17.8653
11
3.05188
21
-15.8653
0
LINE
8
BLACK
6
CONTINUOUS
10
3.05188
20
-15.8653
11
2.8614
21
-16.151
0
LINE
8
BLACK
6
CONTINUOUS
10
2.8614
20
-16.151
11
2.67093
21
-16.3415
0
LINE
8
BLACK
6
CONTINUOUS
10
2.67093
20
-16.3415
11
2.48045
21
-16.4367
0
LINE
8
BLACK
6
CONTINUOUS
10
4.48045
20
-17.6748
11
4.57569
21
-17.77
0
LINE
8
BLACK
6
CONTINUOUS
10
4.57569
20
-17.77
11
4.48045
21
-17.8653
0
LINE
8
BLACK
6
CONTINUOUS
10
4.48045
20
-17.8653
11
4.38521
21
-17.77
0
LINE
8
BLACK
6
CONTINUOUS
10
4.38521
20
-17.77
11
4.48045
21
-17.6748
0
LINE
8
BLACK
6
CONTINUOUS
10
4.48045
20
-17.6748
11
4.48045
21
-17.8653
0
LINE
8
BLACK
6
CONTINUOUS
10
5.33759
20
-16.0557
11
5.43283
21
-15.9605
0
LINE
8
BLACK
6
CONTINUOUS
10
5.43283
20
-15.9605
11
5.62331
21
-15.8653
0
LINE
8
BLACK
6
CONTINUOUS
10
5.62331
20
-15.8653
11
6.0995
21
-15.8653
0
LINE
8
BLACK
6
CONTINUOUS
10
6.0995
20
-15.8653
11
6.28998
21
-15.9605
0
LINE
8
BLACK
6
CONTINUOUS
10
6.28998
20
-15.9605
11
6.38521
21
-16.0557
0
LINE
8
BLACK
6
CONTINUOUS
10
6.38521
20
-16.0557
11
6.48045
21
-16.2462
0
LINE
8
BLACK
6
CONTINUOUS
10
6.48045
20
-16.2462
11
6.48045
21
-16.4367
0
LINE
8
BLACK
6
CONTINUOUS
10
6.48045
20
-16.4367
11
6.38521
21
-16.7224
0
LINE
8
BLACK
6
CONTINUOUS
10
6.38521
20
-16.7224
11
5.24236
21
-17.8653
0
LINE
8
BLACK
6
CONTINUOUS
10
5.24236
20
-17.8653
11
6.48045
21
-17.8653
0
LINE
8
BLACK
6
CONTINUOUS
10
7.62331
20
-16.7224
11
7.43283
21
-16.6272
0
LINE
8
BLACK
6
CONTINUOUS
10
7.43283
20
-16.6272
11
7.33759
21
-16.5319
0
LINE
8
BLACK
6
CONTINUOUS
10
7.33759
20
-16.5319
11
7.24236
21
-16.3415
0
LINE
8
BLACK
6
CONTINUOUS
10
7.24236
20
-16.3415
11
7.24236
21
-16.2462
0
LINE
8
BLACK
6
CONTINUOUS
10
7.24236
20
-16.2462
11
7.33759
21
-16.0557
0
LINE
8
BLACK
6
CONTINUOUS
10
7.33759
20
-16.0557
11
7.43283
21
-15.9605
0
LINE
8
BLACK
6
CONTINUOUS
10
7.43283
20
-15.9605
11
7.62331
21
-15.8653
0
LINE
8
BLACK
6
CONTINUOUS
10
7.62331
20
-15.8653
11
8.00426
21
-15.8653
0
LINE
8
BLACK
6
CONTINUOUS
10
8.00426
20
-15.8653
11
8.19474
21
-15.9605
0
LINE
8
BLACK
6
CONTINUOUS
10
8.19474
20
-15.9605
11
8.28998
21
-16.0557
0
LINE
8
BLACK
6
CONTINUOUS
10
8.28998
20
-16.0557
11
8.38521
21
-16.2462
0
LINE
8
BLACK
6
CONTINUOUS
10
8.38521
20
-16.2462
11
8.38521
21
-16.3415
0
LINE
8
BLACK
6
CONTINUOUS
10
8.38521
20
-16.3415
11
8.28998
21
-16.5319
0
LINE
8
BLACK
6
CONTINUOUS
10
8.28998
20
-16.5319
11
8.19474
21
-16.6272
0
LINE
8
BLACK
6
CONTINUOUS
10
8.19474
20
-16.6272
11
8.00426
21
-16.7224
0
LINE
8
BLACK
6
CONTINUOUS
10
8.00426
20
-16.7224
11
7.62331
21
-16.7224
0
LINE
8
BLACK
6
CONTINUOUS
10
7.62331
20
-16.7224
11
7.43283
21
-16.8176
0
LINE
8
BLACK
6
CONTINUOUS
10
7.43283
20
-16.8176
11
7.33759
21
-16.9129
0
LINE
8
BLACK
6
CONTINUOUS
10
7.33759
20
-16.9129
11
7.24236
21
-17.1034
0
LINE
8
BLACK
6
CONTINUOUS
10
7.24236
20
-17.1034
11
7.24236
21
-17.4843
0
LINE
8
BLACK
6
CONTINUOUS
10
7.24236
20
-17.4843
11
7.33759
21
-17.6748
0
LINE
8
BLACK
6
CONTINUOUS
10
7.33759
20
-17.6748
11
7.43283
21
-17.77
0
LINE
8
BLACK
6
CONTINUOUS
10
7.43283
20
-17.77
11
7.62331
21
-17.8653
0
LINE
8
BLACK
6
CONTINUOUS
10
7.62331
20
-17.8653
11
8.00426
21
-17.8653
0
LINE
8
BLACK
6
CONTINUOUS
10
8.00426
20
-17.8653
11
8.19474
21
-17.77
0
LINE
8
BLACK
6
CONTINUOUS
10
8.19474
20
-17.77
11
8.28998
21
-17.6748
0
LINE
8
BLACK
6
CONTINUOUS
10
8.28998
20
-17.6748
11
8.38521
21
-17.4843
0
LINE
8
BLACK
6
CONTINUOUS
10
8.38521
20
-17.4843
11
8.38521
21
-17.1034
0
LINE
8
BLACK
6
CONTINUOUS
10
8.38521
20
-17.1034
11
8.28998
21
-16.9129
0
LINE
8
BLACK
6
CONTINUOUS
10
8.28998
20
-16.9129
11
8.19474
21
-16.8176
0
LINE
8
BLACK
6
CONTINUOUS
10
8.19474
20
-16.8176
11
8.00426
21
-16.7224
0
LINE
8
BLACK
6
CONTINUOUS
10
9.62331
20
-15.8653
11
9.81378
21
-15.8653
0
LINE
8
BLACK
6
CONTINUOUS
10
9.81378
20
-15.8653
11
10.0043
21
-15.9605
0
LINE
8
BLACK
6
CONTINUOUS
10
10.0043
20
-15.9605
11
10.0995
21
-16.0557
0
LINE
8
BLACK
6
CONTINUOUS
10
10.0995
20
-16.0557
11
10.1947
21
-16.2462
0
LINE
8
BLACK
6
CONTINUOUS
10
10.1947
20
-16.2462
11
10.29
21
-16.6272
0
LINE
8
BLACK
6
CONTINUOUS
10
10.29
20
-16.6272
11
10.29
21
-17.1034
0
LINE
8
BLACK
6
CONTINUOUS
10
10.29
20
-17.1034
11
10.1947
21
-17.4843
0
LINE
8
BLACK
6
CONTINUOUS
10
10.1947
20
-17.4843
11
10.0995
21
-17.6748
0
LINE
8
BLACK
6
CONTINUOUS
10
10.0995
20
-17.6748
11
10.0043
21
-17.77
0
LINE
8
BLACK
6
CONTINUOUS
10
10.0043
20
-17.77
11
9.81378
21
-17.8653
0
LINE
8
BLACK
6
CONTINUOUS
10
9.81378
20
-17.8653
11
9.62331
21
-17.8653
0
LINE
8
BLACK
6
CONTINUOUS
10
9.62331
20
-17.8653
11
9.43283
21
-17.77
0
LINE
8
BLACK
6
CONTINUOUS
10
9.43283
20
-17.77
11
9.3376
21
-17.6748
0
LINE
8
BLACK
6
CONTINUOUS
10
9.3376
20
-17.6748
11
9.24236
21
-17.4843
0
LINE
8
BLACK
6
CONTINUOUS
10
9.24236
20
-17.4843
11
9.14712
21
-17.1034
0
LINE
8
BLACK
6
CONTINUOUS
10
9.14712
20
-17.1034
11
9.14712
21
-16.6272
0
LINE
8
BLACK
6
CONTINUOUS
10
9.14712
20
-16.6272
11
9.24236
21
-16.2462
0
LINE
8
BLACK
6
CONTINUOUS
10
9.24236
20
-16.2462
11
9.3376
21
-16.0557
0
LINE
8
BLACK
6
CONTINUOUS
10
9.3376
20
-16.0557
11
9.43283
21
-15.9605
0
LINE
8
BLACK
6
CONTINUOUS
10
9.43283
20
-15.9605
11
9.62331
21
-15.8653
0
LINE
8
BLACK
6
CONTINUOUS
10
11.1471
20
-17.8653
11
11.1471
21
-16.5319
0
LINE
8
BLACK
6
CONTINUOUS
10
11.1471
20
-16.7224
11
11.2424
21
-16.6272
0
LINE
8
BLACK
6
CONTINUOUS
10
11.2424
20
-16.6272
11
11.4328
21
-16.5319
0
LINE
8
BLACK
6
CONTINUOUS
10
11.4328
20
-16.5319
11
11.7185
21
-16.5319
0
LINE
8
BLACK
6
CONTINUOUS
10
11.7185
20
-16.5319
11
11.909
21
-16.6272
0
LINE
8
BLACK
6
CONTINUOUS
10
11.909
20
-16.6272
11
12.0043
21
-16.8176
0
LINE
8
BLACK
6
CONTINUOUS
10
12.0043
20
-16.8176
11
12.0043
21
-17.8653
0
LINE
8
BLACK
6
CONTINUOUS
10
12.0043
20
-16.8176
11
12.0995
21
-16.6272
0
LINE
8
BLACK
6
CONTINUOUS
10
12.0995
20
-16.6272
11
12.29
21
-16.5319
0
LINE
8
BLACK
6
CONTINUOUS
10
12.29
20
-16.5319
11
12.5757
21
-16.5319
0
LINE
8
BLACK
6
CONTINUOUS
10
12.5757
20
-16.5319
11
12.7662
21
-16.6272
0
LINE
8
BLACK
6
CONTINUOUS
10
12.7662
20
-16.6272
11
12.8614
21
-16.8176
0
LINE
8
BLACK
6
CONTINUOUS
10
12.8614
20
-16.8176
11
12.8614
21
-17.8653
0
LINE
8
BLACK
6
CONTINUOUS
10
13.8138
20
-17.8653
11
13.8138
21
-16.5319
0
LINE
8
BLACK
6
CONTINUOUS
10
13.8138
20
-16.7224
11
13.909
21
-16.6272
0
LINE
8
BLACK
6
CONTINUOUS
10
13.909
20
-16.6272
11
14.0995
21
-16.5319
0
LINE
8
BLACK
6
CONTINUOUS
10
14.0995
20
-16.5319
11
14.3852
21
-16.5319
0
LINE
8
BLACK
6
CONTINUOUS
10
14.3852
20
-16.5319
11
14.5757
21
-16.6272
0
LINE
8
BLACK
6
CONTINUOUS
10
14.5757
20
-16.6272
11
14.6709
21
-16.8176
0
LINE
8
BLACK
6
CONTINUOUS
10
14.6709
20
-16.8176
11
14.6709
21
-17.8653
0
LINE
8
BLACK
6
CONTINUOUS
10
14.6709
20
-16.8176
11
14.7662
21
-16.6272
0
LINE
8
BLACK
6
CONTINUOUS
10
14.7662
20
-16.6272
11
14.9566
21
-16.5319
0
LINE
8
BLACK
6
CONTINUOUS
10
14.9566
20
-16.5319
11
15.2424
21
-16.5319
0
LINE
8
BLACK
6
CONTINUOUS
10
15.2424
20
-16.5319
11
15.4328
21
-16.6272
0
LINE
8
BLACK
6
CONTINUOUS
10
15.4328
20
-16.6272
11
15.5281
21
-16.8176
0
LINE
8
BLACK
6
CONTINUOUS
10
15.5281
20
-16.8176
11
15.5281
21
-17.8653
0
LINE
8
BLACK
6
CONTINUOUS
10
19.4328
20
-15.77
11
17.7185
21
-18.3415
0
LINE
8
BLACK
6
CONTINUOUS
10
22.0043
20
-15.8653
11
22.1947
21
-15.8653
0
LINE
8
BLACK
6
CONTINUOUS
10
22.1947
20
-15.8653
11
22.3852
21
-15.9605
0
LINE
8
BLACK
6
CONTINUOUS
10
22.3852
20
-15.9605
11
22.4805
21
-16.0557
0
LINE
8
BLACK
6
CONTINUOUS
10
22.4805
20
-16.0557
11
22.5757
21
-16.2462
0
LINE
8
BLACK
6
CONTINUOUS
10
22.5757
20
-16.2462
11
22.6709
21
-16.6272
0
LINE
8
BLACK
6
CONTINUOUS
10
22.6709
20
-16.6272
11
22.6709
21
-17.1034
0
LINE
8
BLACK
6
CONTINUOUS
10
22.6709
20
-17.1034
11
22.5757
21
-17.4843
0
LINE
8
BLACK
6
CONTINUOUS
10
22.5757
20
-17.4843
11
22.4805
21
-17.6748
0
LINE
8
BLACK
6
CONTINUOUS
10
22.4805
20
-17.6748
11
22.3852
21
-17.77
0
LINE
8
BLACK
6
CONTINUOUS
10
22.3852
20
-17.77
11
22.1947
21
-17.8653
0
LINE
8
BLACK
6
CONTINUOUS
10
22.1947
20
-17.8653
11
22.0043
21
-17.8653
0
LINE
8
BLACK
6
CONTINUOUS
10
22.0043
20
-17.8653
11
21.8138
21
-17.77
0
LINE
8
BLACK
6
CONTINUOUS
10
21.8138
20
-17.77
11
21.7185
21
-17.6748
0
LINE
8
BLACK
6
CONTINUOUS
10
21.7185
20
-17.6748
11
21.6233
21
-17.4843
0
LINE
8
BLACK
6
CONTINUOUS
10
21.6233
20
-17.4843
11
21.5281
21
-17.1034
0
LINE
8
BLACK
6
CONTINUOUS
10
21.5281
20
-17.1034
11
21.5281
21
-16.6272
0
LINE
8
BLACK
6
CONTINUOUS
10
21.5281
20
-16.6272
11
21.6233
21
-16.2462
0
LINE
8
BLACK
6
CONTINUOUS
10
21.6233
20
-16.2462
11
21.7185
21
-16.0557
0
LINE
8
BLACK
6
CONTINUOUS
10
21.7185
20
-16.0557
11
21.8138
21
-15.9605
0
LINE
8
BLACK
6
CONTINUOUS
10
21.8138
20
-15.9605
11
22.0043
21
-15.8653
0
LINE
8
BLACK
6
CONTINUOUS
10
23.5281
20
-17.6748
11
23.6233
21
-17.77
0
LINE
8
BLACK
6
CONTINUOUS
10
23.6233
20
-17.77
11
23.5281
21
-17.8653
0
LINE
8
BLACK
6
CONTINUOUS
10
23.5281
20
-17.8653
11
23.4328
21
-17.77
0
LINE
8
BLACK
6
CONTINUOUS
10
23.4328
20
-17.77
11
23.5281
21
-17.6748
0
LINE
8
BLACK
6
CONTINUOUS
10
23.5281
20
-17.6748
11
23.5281
21
-17.8653
0
LINE
8
BLACK
6
CONTINUOUS
10
24.8614
20
-15.8653
11
25.0519
21
-15.8653
0
LINE
8
BLACK
6
CONTINUOUS
10
25.0519
20
-15.8653
11
25.2424
21
-15.9605
0
LINE
8
BLACK
6
CONTINUOUS
10
25.2424
20
-15.9605
11
25.3376
21
-16.0557
0
LINE
8
BLACK
6
CONTINUOUS
10
25.3376
20
-16.0557
11
25.4328
21
-16.2462
0
LINE
8
BLACK
6
CONTINUOUS
10
25.4328
20
-16.2462
11
25.5281
21
-16.6272
0
LINE
8
BLACK
6
CONTINUOUS
10
25.5281
20
-16.6272
11
25.5281
21
-17.1034
0
LINE
8
BLACK
6
CONTINUOUS
10
25.5281
20
-17.1034
11
25.4328
21
-17.4843
0
LINE
8
BLACK
6
CONTINUOUS
10
25.4328
20
-17.4843
11
25.3376
21
-17.6748
0
LINE
8
BLACK
6
CONTINUOUS
10
25.3376
20
-17.6748
11
25.2424
21
-17.77
0
LINE
8
BLACK
6
CONTINUOUS
10
25.2424
20
-17.77
11
25.0519
21
-17.8653
0
LINE
8
BLACK
6
CONTINUOUS
10
25.0519
20
-17.8653
11
24.8614
21
-17.8653
0
LINE
8
BLACK
6
CONTINUOUS
10
24.8614
20
-17.8653
11
24.6709
21
-17.77
0
LINE
8
BLACK
6
CONTINUOUS
10
24.6709
20
-17.77
11
24.5757
21
-17.6748
0
LINE
8
BLACK
6
CONTINUOUS
10
24.5757
20
-17.6748
11
24.4805
21
-17.4843
0
LINE
8
BLACK
6
CONTINUOUS
10
24.4805
20
-17.4843
11
24.3852
21
-17.1034
0
LINE
8
BLACK
6
CONTINUOUS
10
24.3852
20
-17.1034
11
24.3852
21
-16.6272
0
LINE
8
BLACK
6
CONTINUOUS
10
24.3852
20
-16.6272
11
24.4805
21
-16.2462
0
LINE
8
BLACK
6
CONTINUOUS
10
24.4805
20
-16.2462
11
24.5757
21
-16.0557
0
LINE
8
BLACK
6
CONTINUOUS
10
24.5757
20
-16.0557
11
24.6709
21
-15.9605
0
LINE
8
BLACK
6
CONTINUOUS
10
24.6709
20
-15.9605
11
24.8614
21
-15.8653
0
LINE
8
BLACK
6
CONTINUOUS
10
27.3376
20
-15.8653
11
26.3852
21
-15.8653
0
LINE
8
BLACK
6
CONTINUOUS
10
26.3852
20
-15.8653
11
26.29
21
-16.8176
0
LINE
8
BLACK
6
CONTINUOUS
10
26.29
20
-16.8176
11
26.3852
21
-16.7224
0
LINE
8
BLACK
6
CONTINUOUS
10
26.3852
20
-16.7224
11
26.5757
21
-16.6272
0
LINE
8
BLACK
6
CONTINUOUS
10
26.5757
20
-16.6272
11
27.0519
21
-16.6272
0
LINE
8
BLACK
6
CONTINUOUS
10
27.0519
20
-16.6272
11
27.2424
21
-16.7224
0
LINE
8
BLACK
6
CONTINUOUS
10
27.2424
20
-16.7224
11
27.3376
21
-16.8176
0
LINE
8
BLACK
6
CONTINUOUS
10
27.3376
20
-16.8176
11
27.4328
21
-17.0081
0
LINE
8
BLACK
6
CONTINUOUS
10
27.4328
20
-17.0081
11
27.4328
21
-17.4843
0
LINE
8
BLACK
6
CONTINUOUS
10
27.4328
20
-17.4843
11
27.3376
21
-17.6748
0
LINE
8
BLACK
6
CONTINUOUS
10
27.3376
20
-17.6748
11
27.2424
21
-17.77
0
LINE
8
BLACK
6
CONTINUOUS
10
27.2424
20
-17.77
11
27.0519
21
-17.8653
0
LINE
8
BLACK
6
CONTINUOUS
10
27.0519
20
-17.8653
11
26.5757
21
-17.8653
0
LINE
8
BLACK
6
CONTINUOUS
10
26.5757
20
-17.8653
11
26.3852
21
-17.77
0
LINE
8
BLACK
6
CONTINUOUS
10
26.3852
20
-17.77
11
26.29
21
-17.6748
0
LINE
8
BLACK
6
CONTINUOUS
10
28.6709
20
-15.8653
11
28.8614
21
-15.8653
0
LINE
8
BLACK
6
CONTINUOUS
10
28.8614
20
-15.8653
11
29.0519
21
-15.9605
0
LINE
8
BLACK
6
CONTINUOUS
10
29.0519
20
-15.9605
11
29.1471
21
-16.0557
0
LINE
8
BLACK
6
CONTINUOUS
10
29.1471
20
-16.0557
11
29.2424
21
-16.2462
0
LINE
8
BLACK
6
CONTINUOUS
10
29.2424
20
-16.2462
11
29.3376
21
-16.6272
0
LINE
8
BLACK
6
CONTINUOUS
10
29.3376
20
-16.6272
11
29.3376
21
-17.1034
0
LINE
8
BLACK
6
CONTINUOUS
10
29.3376
20
-17.1034
11
29.2424
21
-17.4843
0
LINE
8
BLACK
6
CONTINUOUS
10
29.2424
20
-17.4843
11
29.1471
21
-17.6748
0
LINE
8
BLACK
6
CONTINUOUS
10
29.1471
20
-17.6748
11
29.0519
21
-17.77
0
LINE
8
BLACK
6
CONTINUOUS
10
29.0519
20
-17.77
11
28.8614
21
-17.8653
0
LINE
8
BLACK
6
CONTINUOUS
10
28.8614
20
-17.8653
11
28.6709
21
-17.8653
0
LINE
8
BLACK
6
CONTINUOUS
10
28.6709
20
-17.8653
11
28.4805
21
-17.77
0
LINE
8
BLACK
6
CONTINUOUS
10
28.4805
20
-17.77
11
28.3852
21
-17.6748
0
LINE
8
BLACK
6
CONTINUOUS
10
28.3852
20
-17.6748
11
28.29
21
-17.4843
0
LINE
8
BLACK
6
CONTINUOUS
10
28.29
20
-17.4843
11
28.1947
21
-17.1034
0
LINE
8
BLACK
6
CONTINUOUS
10
28.1947
20
-17.1034
11
28.1947
21
-16.6272
0
LINE
8
BLACK
6
CONTINUOUS
10
28.1947
20
-16.6272
11
28.29
21
-16.2462
0
LINE
8
BLACK
6
CONTINUOUS
10
28.29
20
-16.2462
11
28.3852
21
-16.0557
0
LINE
8
BLACK
6
CONTINUOUS
10
28.3852
20
-16.0557
11
28.4805
21
-15.9605
0
LINE
8
BLACK
6
CONTINUOUS
10
28.4805
20
-15.9605
11
28.6709
21
-15.8653
0
LINE
8
BLACK
6
CONTINUOUS
10
31.0519
20
-16.5319
11
31.0519
21
-17.8653
0
LINE
8
BLACK
6
CONTINUOUS
10
30.5757
20
-15.77
11
30.0995
21
-17.1986
0
LINE
8
BLACK
6
CONTINUOUS
10
30.0995
20
-17.1986
11
31.3376
21
-17.1986
0
LINE
8
BLACK
6
CONTINUOUS
10
32.0043
20
-15.8653
11
32.0043
21
-16.2462
0
LINE
8
BLACK
6
CONTINUOUS
10
32.7662
20
-15.8653
11
32.7662
21
-16.2462
0
LINE
8
BLACK
6
CONTINUOUS
10
35.7185
20
-18.6272
11
35.6233
21
-18.5319
0
LINE
8
BLACK
6
CONTINUOUS
10
35.6233
20
-18.5319
11
35.4328
21
-18.2462
0
LINE
8
BLACK
6
CONTINUOUS
10
35.4328
20
-18.2462
11
35.3376
21
-18.0557
0
LINE
8
BLACK
6
CONTINUOUS
10
35.3376
20
-18.0557
11
35.2424
21
-17.77
0
LINE
8
BLACK
6
CONTINUOUS
10
35.2424
20
-17.77
11
35.1471
21
-17.2938
0
LINE
8
BLACK
6
CONTINUOUS
10
35.1471
20
-17.2938
11
35.1471
21
-16.9129
0
LINE
8
BLACK
6
CONTINUOUS
10
35.1471
20
-16.9129
11
35.2424
21
-16.4367
0
LINE
8
BLACK
6
CONTINUOUS
10
35.2424
20
-16.4367
11
35.3376
21
-16.151
0
LINE
8
BLACK
6
CONTINUOUS
10
35.3376
20
-16.151
11
35.4328
21
-15.9605
0
LINE
8
BLACK
6
CONTINUOUS
10
35.4328
20
-15.9605
11
35.6233
21
-15.6748
0
LINE
8
BLACK
6
CONTINUOUS
10
35.6233
20
-15.6748
11
35.7185
21
-15.5795
0
LINE
8
BLACK
6
CONTINUOUS
10
36.29
20
-15.8653
11
37.5281
21
-15.8653
0
LINE
8
BLACK
6
CONTINUOUS
10
37.5281
20
-15.8653
11
36.8614
21
-16.6272
0
LINE
8
BLACK
6
CONTINUOUS
10
36.8614
20
-16.6272
11
37.1471
21
-16.6272
0
LINE
8
BLACK
6
CONTINUOUS
10
37.1471
20
-16.6272
11
37.3376
21
-16.7224
0
LINE
8
BLACK
6
CONTINUOUS
10
37.3376
20
-16.7224
11
37.4328
21
-16.8176
0
LINE
8
BLACK
6
CONTINUOUS
10
37.4328
20
-16.8176
11
37.5281
21
-17.0081
0
LINE
8
BLACK
6
CONTINUOUS
10
37.5281
20
-17.0081
11
37.5281
21
-17.4843
0
LINE
8
BLACK
6
CONTINUOUS
10
37.5281
20
-17.4843
11
37.4328
21
-17.6748
0
LINE
8
BLACK
6
CONTINUOUS
10
37.4328
20
-17.6748
11
37.3376
21
-17.77
0
LINE
8
BLACK
6
CONTINUOUS
10
37.3376
20
-17.77
11
37.1471
21
-17.8653
0
LINE
8
BLACK
6
CONTINUOUS
10
37.1471
20
-17.8653
11
36.5757
21
-17.8653
0
LINE
8
BLACK
6
CONTINUOUS
10
36.5757
20
-17.8653
11
36.3852
21
-17.77
0
LINE
8
BLACK
6
CONTINUOUS
10
36.3852
20
-17.77
11
36.29
21
-17.6748
0
LINE
8
BLACK
6
CONTINUOUS
10
39.909
20
-17.8653
11
39.909
21
-15.8653
0
LINE
8
BLACK
6
CONTINUOUS
10
40.7662
20
-17.8653
11
40.7662
21
-16.8176
0
LINE
8
BLACK
6
CONTINUOUS
10
40.7662
20
-16.8176
11
40.6709
21
-16.6272
0
LINE
8
BLACK
6
CONTINUOUS
10
40.6709
20
-16.6272
11
40.4805
21
-16.5319
0
LINE
8
BLACK
6
CONTINUOUS
10
40.4805
20
-16.5319
11
40.1947
21
-16.5319
0
LINE
8
BLACK
6
CONTINUOUS
10
40.1947
20
-16.5319
11
40.0043
21
-16.6272
0
LINE
8
BLACK
6
CONTINUOUS
10
40.0043
20
-16.6272
11
39.909
21
-16.7224
0
LINE
8
BLACK
6
CONTINUOUS
10
42.0043
20
-17.8653
11
41.8138
21
-17.77
0
LINE
8
BLACK
6
CONTINUOUS
10
41.8138
20
-17.77
11
41.7185
21
-17.6748
0
LINE
8
BLACK
6
CONTINUOUS
10
41.7185
20
-17.6748
11
41.6233
21
-17.4843
0
LINE
8
BLACK
6
CONTINUOUS
10
41.6233
20
-17.4843
11
41.6233
21
-16.9129
0
LINE
8
BLACK
6
CONTINUOUS
10
41.6233
20
-16.9129
11
41.7185
21
-16.7224
0
LINE
8
BLACK
6
CONTINUOUS
10
41.7185
20
-16.7224
11
41.8138
21
-16.6272
0
LINE
8
BLACK
6
CONTINUOUS
10
41.8138
20
-16.6272
11
42.0043
21
-16.5319
0
LINE
8
BLACK
6
CONTINUOUS
10
42.0043
20
-16.5319
11
42.29
21
-16.5319
0
LINE
8
BLACK
6
CONTINUOUS
10
42.29
20
-16.5319
11
42.4805
21
-16.6272
0
LINE
8
BLACK
6
CONTINUOUS
10
42.4805
20
-16.6272
11
42.5757
21
-16.7224
0
LINE
8
BLACK
6
CONTINUOUS
10
42.5757
20
-16.7224
11
42.6709
21
-16.9129
0
LINE
8
BLACK
6
CONTINUOUS
10
42.6709
20
-16.9129
11
42.6709
21
-17.4843
0
LINE
8
BLACK
6
CONTINUOUS
10
42.6709
20
-17.4843
11
42.5757
21
-17.6748
0
LINE
8
BLACK
6
CONTINUOUS
10
42.5757
20
-17.6748
11
42.4805
21
-17.77
0
LINE
8
BLACK
6
CONTINUOUS
10
42.4805
20
-17.77
11
42.29
21
-17.8653
0
LINE
8
BLACK
6
CONTINUOUS
10
42.29
20
-17.8653
11
42.0043
21
-17.8653
0
LINE
8
BLACK
6
CONTINUOUS
10
43.8138
20
-17.8653
11
43.6233
21
-17.77
0
LINE
8
BLACK
6
CONTINUOUS
10
43.6233
20
-17.77
11
43.5281
21
-17.5795
0
LINE
8
BLACK
6
CONTINUOUS
10
43.5281
20
-17.5795
11
43.5281
21
-15.8653
0
LINE
8
BLACK
6
CONTINUOUS
10
45.3376
20
-17.77
11
45.1471
21
-17.8653
0
LINE
8
BLACK
6
CONTINUOUS
10
45.1471
20
-17.8653
11
44.7662
21
-17.8653
0
LINE
8
BLACK
6
CONTINUOUS
10
44.7662
20
-17.8653
11
44.5757
21
-17.77
0
LINE
8
BLACK
6
CONTINUOUS
10
44.5757
20
-17.77
11
44.4805
21
-17.5795
0
LINE
8
BLACK
6
CONTINUOUS
10
44.4805
20
-17.5795
11
44.4805
21
-16.8176
0
LINE
8
BLACK
6
CONTINUOUS
10
44.4805
20
-16.8176
11
44.5757
21
-16.6272
0
LINE
8
BLACK
6
CONTINUOUS
10
44.5757
20
-16.6272
11
44.7662
21
-16.5319
0
LINE
8
BLACK
6
CONTINUOUS
10
44.7662
20
-16.5319
11
45.1471
21
-16.5319
0
LINE
8
BLACK
6
CONTINUOUS
10
45.1471
20
-16.5319
11
45.3376
21
-16.6272
0
LINE
8
BLACK
6
CONTINUOUS
10
45.3376
20
-16.6272
11
45.4328
21
-16.8176
0
LINE
8
BLACK
6
CONTINUOUS
10
45.4328
20
-16.8176
11
45.4328
21
-17.0081
0
LINE
8
BLACK
6
CONTINUOUS
10
45.4328
20
-17.0081
11
44.4805
21
-17.1986
0
LINE
8
BLACK
6
CONTINUOUS
10
46.1947
20
-17.77
11
46.3852
21
-17.8653
0
LINE
8
BLACK
6
CONTINUOUS
10
46.3852
20
-17.8653
11
46.7662
21
-17.8653
0
LINE
8
BLACK
6
CONTINUOUS
10
46.7662
20
-17.8653
11
46.9566
21
-17.77
0
LINE
8
BLACK
6
CONTINUOUS
10
46.9566
20
-17.77
11
47.0519
21
-17.5795
0
LINE
8
BLACK
6
CONTINUOUS
10
47.0519
20
-17.5795
11
47.0519
21
-17.4843
0
LINE
8
BLACK
6
CONTINUOUS
10
47.0519
20
-17.4843
11
46.9566
21
-17.2938
0
LINE
8
BLACK
6
CONTINUOUS
10
46.9566
20
-17.2938
11
46.7662
21
-17.1986
0
LINE
8
BLACK
6
CONTINUOUS
10
46.7662
20
-17.1986
11
46.4805
21
-17.1986
0
LINE
8
BLACK
6
CONTINUOUS
10
46.4805
20
-17.1986
11
46.29
21
-17.1034
0
LINE
8
BLACK
6
CONTINUOUS
10
46.29
20
-17.1034
11
46.1947
21
-16.9129
0
LINE
8
BLACK
6
CONTINUOUS
10
46.1947
20
-16.9129
11
46.1947
21
-16.8176
0
LINE
8
BLACK
6
CONTINUOUS
10
46.1947
20
-16.8176
11
46.29
21
-16.6272
0
LINE
8
BLACK
6
CONTINUOUS
10
46.29
20
-16.6272
11
46.4805
21
-16.5319
0
LINE
8
BLACK
6
CONTINUOUS
10
46.4805
20
-16.5319
11
46.7662
21
-16.5319
0
LINE
8
BLACK
6
CONTINUOUS
10
46.7662
20
-16.5319
11
46.9566
21
-16.6272
0
LINE
8
BLACK
6
CONTINUOUS
10
47.7185
20
-18.6272
11
47.8138
21
-18.5319
0
LINE
8
BLACK
6
CONTINUOUS
10
47.8138
20
-18.5319
11
48.0043
21
-18.2462
0
LINE
8
BLACK
6
CONTINUOUS
10
48.0043
20
-18.2462
11
48.0995
21
-18.0557
0
LINE
8
BLACK
6
CONTINUOUS
10
48.0995
20
-18.0557
11
48.1947
21
-17.77
0
LINE
8
BLACK
6
CONTINUOUS
10
48.1947
20
-17.77
11
48.29
21
-17.2938
0
LINE
8
BLACK
6
CONTINUOUS
10
48.29
20
-17.2938
11
48.29
21
-16.9129
0
LINE
8
BLACK
6
CONTINUOUS
10
48.29
20
-16.9129
11
48.1947
21
-16.4367
0
LINE
8
BLACK
6
CONTINUOUS
10
48.1947
20
-16.4367
11
48.0995
21
-16.151
0
LINE
8
BLACK
6
CONTINUOUS
10
48.0995
20
-16.151
11
48.0043
21
-15.9605
0
LINE
8
BLACK
6
CONTINUOUS
10
48.0043
20
-15.9605
11
47.8138
21
-15.6748
0
LINE
8
BLACK
6
CONTINUOUS
10
47.8138
20
-15.6748
11
47.7185
21
-15.5795
0
LINE
8
BLACK
6
CONTINUOUS
10
-2.0005
20
-18.6005
11
-0.0005
21
-20.6005
0
LINE
8
BLACK
6
CONTINUOUS
10
-0.0005
20
-18.6005
11
-2.0005
21
-20.6005
0
CIRCLE
8
BLACK
10
-1.0005
20
-19.6005
40
1
0
LINE
8
BLACK
6
CONTINUOUS
10
2.38521
20
-18.5053
11
3.62331
21
-18.5053
0
LINE
8
BLACK
6
CONTINUOUS
10
3.62331
20
-18.5053
11
2.95664
21
-19.2672
0
LINE
8
BLACK
6
CONTINUOUS
10
2.95664
20
-19.2672
11
3.24236
21
-19.2672
0
LINE
8
BLACK
6
CONTINUOUS
10
3.24236
20
-19.2672
11
3.43283
21
-19.3624
0
LINE
8
BLACK
6
CONTINUOUS
10
3.43283
20
-19.3624
11
3.52807
21
-19.4576
0
LINE
8
BLACK
6
CONTINUOUS
10
3.52807
20
-19.4576
11
3.62331
21
-19.6481
0
LINE
8
BLACK
6
CONTINUOUS
10
3.62331
20
-19.6481
11
3.62331
21
-20.1243
0
LINE
8
BLACK
6
CONTINUOUS
10
3.62331
20
-20.1243
11
3.52807
21
-20.3148
0
LINE
8
BLACK
6
CONTINUOUS
10
3.52807
20
-20.3148
11
3.43283
21
-20.41
0
LINE
8
BLACK
6
CONTINUOUS
10
3.43283
20
-20.41
11
3.24236
21
-20.5053
0
LINE
8
BLACK
6
CONTINUOUS
10
3.24236
20
-20.5053
11
2.67093
21
-20.5053
0
LINE
8
BLACK
6
CONTINUOUS
10
2.67093
20
-20.5053
11
2.48045
21
-20.41
0
LINE
8
BLACK
6
CONTINUOUS
10
2.48045
20
-20.41
11
2.38521
21
-20.3148
0
LINE
8
BLACK
6
CONTINUOUS
10
4.48045
20
-20.3148
11
4.57569
21
-20.41
0
LINE
8
BLACK
6
CONTINUOUS
10
4.57569
20
-20.41
11
4.48045
21
-20.5053
0
LINE
8
BLACK
6
CONTINUOUS
10
4.48045
20
-20.5053
11
4.38521
21
-20.41
0
LINE
8
BLACK
6
CONTINUOUS
10
4.38521
20
-20.41
11
4.48045
21
-20.3148
0
LINE
8
BLACK
6
CONTINUOUS
10
4.48045
20
-20.3148
11
4.48045
21
-20.5053
0
LINE
8
BLACK
6
CONTINUOUS
10
5.33759
20
-18.6957
11
5.43283
21
-18.6005
0
LINE
8
BLACK
6
CONTINUOUS
10
5.43283
20
-18.6005
11
5.62331
21
-18.5053
0
LINE
8
BLACK
6
CONTINUOUS
10
5.62331
20
-18.5053
11
6.0995
21
-18.5053
0
LINE
8
BLACK
6
CONTINUOUS
10
6.0995
20
-18.5053
11
6.28998
21
-18.6005
0
LINE
8
BLACK
6
CONTINUOUS
10
6.28998
20
-18.6005
11
6.38521
21
-18.6957
0
LINE
8
BLACK
6
CONTINUOUS
10
6.38521
20
-18.6957
11
6.48045
21
-18.8862
0
LINE
8
BLACK
6
CONTINUOUS
10
6.48045
20
-18.8862
11
6.48045
21
-19.0767
0
LINE
8
BLACK
6
CONTINUOUS
10
6.48045
20
-19.0767
11
6.38521
21
-19.3624
0
LINE
8
BLACK
6
CONTINUOUS
10
6.38521
20
-19.3624
11
5.24236
21
-20.5053
0
LINE
8
BLACK
6
CONTINUOUS
10
5.24236
20
-20.5053
11
6.48045
21
-20.5053
0
LINE
8
BLACK
6
CONTINUOUS
10
7.71855
20
-18.5053
11
7.90902
21
-18.5053
0
LINE
8
BLACK
6
CONTINUOUS
10
7.90902
20
-18.5053
11
8.0995
21
-18.6005
0
LINE
8
BLACK
6
CONTINUOUS
10
8.0995
20
-18.6005
11
8.19474
21
-18.6957
0
LINE
8
BLACK
6
CONTINUOUS
10
8.19474
20
-18.6957
11
8.28998
21
-18.8862
0
LINE
8
BLACK
6
CONTINUOUS
10
8.28998
20
-18.8862
11
8.38521
21
-19.2672
0
LINE
8
BLACK
6
CONTINUOUS
10
8.38521
20
-19.2672
11
8.38521
21
-19.7434
0
LINE
8
BLACK
6
CONTINUOUS
10
8.38521
20
-19.7434
11
8.28998
21
-20.1243
0
LINE
8
BLACK
6
CONTINUOUS
10
8.28998
20
-20.1243
11
8.19474
21
-20.3148
0
LINE
8
BLACK
6
CONTINUOUS
10
8.19474
20
-20.3148
11
8.0995
21
-20.41
0
LINE
8
BLACK
6
CONTINUOUS
10
8.0995
20
-20.41
11
7.90902
21
-20.5053
0
LINE
8
BLACK
6
CONTINUOUS
10
7.90902
20
-20.5053
11
7.71855
21
-20.5053
0
LINE
8
BLACK
6
CONTINUOUS
10
7.71855
20
-20.5053
11
7.52807
21
-20.41
0
LINE
8
BLACK
6
CONTINUOUS
10
7.52807
20
-20.41
11
7.43283
21
-20.3148
0
LINE
8
BLACK
6
CONTINUOUS
10
7.43283
20
-20.3148
11
7.33759
21
-20.1243
0
LINE
8
BLACK
6
CONTINUOUS
10
7.33759
20
-20.1243
11
7.24236
21
-19.7434
0
LINE
8
BLACK
6
CONTINUOUS
10
7.24236
20
-19.7434
11
7.24236
21
-19.2672
0
LINE
8
BLACK
6
CONTINUOUS
10
7.24236
20
-19.2672
11
7.33759
21
-18.8862
0
LINE
8
BLACK
6
CONTINUOUS
10
7.33759
20
-18.8862
11
7.43283
21
-18.6957
0
LINE
8
BLACK
6
CONTINUOUS
10
7.43283
20
-18.6957
11
7.52807
21
-18.6005
0
LINE
8
BLACK
6
CONTINUOUS
10
7.52807
20
-18.6005
11
7.71855
21
-18.5053
0
LINE
8
BLACK
6
CONTINUOUS
10
9.62331
20
-18.5053
11
9.81378
21
-18.5053
0
LINE
8
BLACK
6
CONTINUOUS
10
9.81378
20
-18.5053
11
10.0043
21
-18.6005
0
LINE
8
BLACK
6
CONTINUOUS
10
10.0043
20
-18.6005
11
10.0995
21
-18.6957
0
LINE
8
BLACK
6
CONTINUOUS
10
10.0995
20
-18.6957
11
10.1947
21
-18.8862
0
LINE
8
BLACK
6
CONTINUOUS
10
10.1947
20
-18.8862
11
10.29
21
-19.2672
0
LINE
8
BLACK
6
CONTINUOUS
10
10.29
20
-19.2672
11
10.29
21
-19.7434
0
LINE
8
BLACK
6
CONTINUOUS
10
10.29
20
-19.7434
11
10.1947
21
-20.1243
0
LINE
8
BLACK
6
CONTINUOUS
10
10.1947
20
-20.1243
11
10.0995
21
-20.3148
0
LINE
8
BLACK
6
CONTINUOUS
10
10.0995
20
-20.3148
11
10.0043
21
-20.41
0
LINE
8
BLACK
6
CONTINUOUS
10
10.0043
20
-20.41
11
9.81378
21
-20.5053
0
LINE
8
BLACK
6
CONTINUOUS
10
9.81378
20
-20.5053
11
9.62331
21
-20.5053
0
LINE
8
BLACK
6
CONTINUOUS
10
9.62331
20
-20.5053
11
9.43283
21
-20.41
0
LINE
8
BLACK
6
CONTINUOUS
10
9.43283
20
-20.41
11
9.3376
21
-20.3148
0
LINE
8
BLACK
6
CONTINUOUS
10
9.3376
20
-20.3148
11
9.24236
21
-20.1243
0
LINE
8
BLACK
6
CONTINUOUS
10
9.24236
20
-20.1243
11
9.14712
21
-19.7434
0
LINE
8
BLACK
6
CONTINUOUS
10
9.14712
20
-19.7434
11
9.14712
21
-19.2672
0
LINE
8
BLACK
6
CONTINUOUS
10
9.14712
20
-19.2672
11
9.24236
21
-18.8862
0
LINE
8
BLACK
6
CONTINUOUS
10
9.24236
20
-18.8862
11
9.3376
21
-18.6957
0
LINE
8
BLACK
6
CONTINUOUS
10
9.3376
20
-18.6957
11
9.43283
21
-18.6005
0
LINE
8
BLACK
6
CONTINUOUS
10
9.43283
20
-18.6005
11
9.62331
21
-18.5053
0
LINE
8
BLACK
6
CONTINUOUS
10
11.1471
20
-20.5053
11
11.1471
21
-19.1719
0
LINE
8
BLACK
6
CONTINUOUS
10
11.1471
20
-19.3624
11
11.2424
21
-19.2672
0
LINE
8
BLACK
6
CONTINUOUS
10
11.2424
20
-19.2672
11
11.4328
21
-19.1719
0
LINE
8
BLACK
6
CONTINUOUS
10
11.4328
20
-19.1719
11
11.7185
21
-19.1719
0
LINE
8
BLACK
6
CONTINUOUS
10
11.7185
20
-19.1719
11
11.909
21
-19.2672
0
LINE
8
BLACK
6
CONTINUOUS
10
11.909
20
-19.2672
11
12.0043
21
-19.4576
0
LINE
8
BLACK
6
CONTINUOUS
10
12.0043
20
-19.4576
11
12.0043
21
-20.5053
0
LINE
8
BLACK
6
CONTINUOUS
10
12.0043
20
-19.4576
11
12.0995
21
-19.2672
0
LINE
8
BLACK
6
CONTINUOUS
10
12.0995
20
-19.2672
11
12.29
21
-19.1719
0
LINE
8
BLACK
6
CONTINUOUS
10
12.29
20
-19.1719
11
12.5757
21
-19.1719
0
LINE
8
BLACK
6
CONTINUOUS
10
12.5757
20
-19.1719
11
12.7662
21
-19.2672
0
LINE
8
BLACK
6
CONTINUOUS
10
12.7662
20
-19.2672
11
12.8614
21
-19.4576
0
LINE
8
BLACK
6
CONTINUOUS
10
12.8614
20
-19.4576
11
12.8614
21
-20.5053
0
LINE
8
BLACK
6
CONTINUOUS
10
13.8138
20
-20.5053
11
13.8138
21
-19.1719
0
LINE
8
BLACK
6
CONTINUOUS
10
13.8138
20
-19.3624
11
13.909
21
-19.2672
0
LINE
8
BLACK
6
CONTINUOUS
10
13.909
20
-19.2672
11
14.0995
21
-19.1719
0
LINE
8
BLACK
6
CONTINUOUS
10
14.0995
20
-19.1719
11
14.3852
21
-19.1719
0
LINE
8
BLACK
6
CONTINUOUS
10
14.3852
20
-19.1719
11
14.5757
21
-19.2672
0
LINE
8
BLACK
6
CONTINUOUS
10
14.5757
20
-19.2672
11
14.6709
21
-19.4576
0
LINE
8
BLACK
6
CONTINUOUS
10
14.6709
20
-19.4576
11
14.6709
21
-20.5053
0
LINE
8
BLACK
6
CONTINUOUS
10
14.6709
20
-19.4576
11
14.7662
21
-19.2672
0
LINE
8
BLACK
6
CONTINUOUS
10
14.7662
20
-19.2672
11
14.9566
21
-19.1719
0
LINE
8
BLACK
6
CONTINUOUS
10
14.9566
20
-19.1719
11
15.2424
21
-19.1719
0
LINE
8
BLACK
6
CONTINUOUS
10
15.2424
20
-19.1719
11
15.4328
21
-19.2672
0
LINE
8
BLACK
6
CONTINUOUS
10
15.4328
20
-19.2672
11
15.5281
21
-19.4576
0
LINE
8
BLACK
6
CONTINUOUS
10
15.5281
20
-19.4576
11
15.5281
21
-20.5053
0
LINE
8
BLACK
6
CONTINUOUS
10
19.4328
20
-18.41
11
17.7185
21
-20.9815
0
LINE
8
BLACK
6
CONTINUOUS
10
22.0043
20
-18.5053
11
22.1947
21
-18.5053
0
LINE
8
BLACK
6
CONTINUOUS
10
22.1947
20
-18.5053
11
22.3852
21
-18.6005
0
LINE
8
BLACK
6
CONTINUOUS
10
22.3852
20
-18.6005
11
22.4805
21
-18.6957
0
LINE
8
BLACK
6
CONTINUOUS
10
22.4805
20
-18.6957
11
22.5757
21
-18.8862
0
LINE
8
BLACK
6
CONTINUOUS
10
22.5757
20
-18.8862
11
22.6709
21
-19.2672
0
LINE
8
BLACK
6
CONTINUOUS
10
22.6709
20
-19.2672
11
22.6709
21
-19.7434
0
LINE
8
BLACK
6
CONTINUOUS
10
22.6709
20
-19.7434
11
22.5757
21
-20.1243
0
LINE
8
BLACK
6
CONTINUOUS
10
22.5757
20
-20.1243
11
22.4805
21
-20.3148
0
LINE
8
BLACK
6
CONTINUOUS
10
22.4805
20
-20.3148
11
22.3852
21
-20.41
0
LINE
8
BLACK
6
CONTINUOUS
10
22.3852
20
-20.41
11
22.1947
21
-20.5053
0
LINE
8
BLACK
6
CONTINUOUS
10
22.1947
20
-20.5053
11
22.0043
21
-20.5053
0
LINE
8
BLACK
6
CONTINUOUS
10
22.0043
20
-20.5053
11
21.8138
21
-20.41
0
LINE
8
BLACK
6
CONTINUOUS
10
21.8138
20
-20.41
11
21.7185
21
-20.3148
0
LINE
8
BLACK
6
CONTINUOUS
10
21.7185
20
-20.3148
11
21.6233
21
-20.1243
0
LINE
8
BLACK
6
CONTINUOUS
10
21.6233
20
-20.1243
11
21.5281
21
-19.7434
0
LINE
8
BLACK
6
CONTINUOUS
10
21.5281
20
-19.7434
11
21.5281
21
-19.2672
0
LINE
8
BLACK
6
CONTINUOUS
10
21.5281
20
-19.2672
11
21.6233
21
-18.8862
0
LINE
8
BLACK
6
CONTINUOUS
10
21.6233
20
-18.8862
11
21.7185
21
-18.6957
0
LINE
8
BLACK
6
CONTINUOUS
10
21.7185
20
-18.6957
11
21.8138
21
-18.6005
0
LINE
8
BLACK
6
CONTINUOUS
10
21.8138
20
-18.6005
11
22.0043
21
-18.5053
0
LINE
8
BLACK
6
CONTINUOUS
10
23.5281
20
-20.3148
11
23.6233
21
-20.41
0
LINE
8
BLACK
6
CONTINUOUS
10
23.6233
20
-20.41
11
23.5281
21
-20.5053
0
LINE
8
BLACK
6
CONTINUOUS
10
23.5281
20
-20.5053
11
23.4328
21
-20.41
0
LINE
8
BLACK
6
CONTINUOUS
10
23.4328
20
-20.41
11
23.5281
21
-20.3148
0
LINE
8
BLACK
6
CONTINUOUS
10
23.5281
20
-20.3148
11
23.5281
21
-20.5053
0
LINE
8
BLACK
6
CONTINUOUS
10
25.5281
20
-20.5053
11
24.3852
21
-20.5053
0
LINE
8
BLACK
6
CONTINUOUS
10
24.9566
20
-20.5053
11
24.9566
21
-18.5053
0
LINE
8
BLACK
6
CONTINUOUS
10
24.9566
20
-18.5053
11
24.7662
21
-18.791
0
LINE
8
BLACK
6
CONTINUOUS
10
24.7662
20
-18.791
11
24.5757
21
-18.9815
0
LINE
8
BLACK
6
CONTINUOUS
10
24.5757
20
-18.9815
11
24.3852
21
-19.0767
0
LINE
8
BLACK
6
CONTINUOUS
10
26.29
20
-18.6957
11
26.3852
21
-18.6005
0
LINE
8
BLACK
6
CONTINUOUS
10
26.3852
20
-18.6005
11
26.5757
21
-18.5053
0
LINE
8
BLACK
6
CONTINUOUS
10
26.5757
20
-18.5053
11
27.0519
21
-18.5053
0
LINE
8
BLACK
6
CONTINUOUS
10
27.0519
20
-18.5053
11
27.2424
21
-18.6005
0
LINE
8
BLACK
6
CONTINUOUS
10
27.2424
20
-18.6005
11
27.3376
21
-18.6957
0
LINE
8
BLACK
6
CONTINUOUS
10
27.3376
20
-18.6957
11
27.4328
21
-18.8862
0
LINE
8
BLACK
6
CONTINUOUS
10
27.4328
20
-18.8862
11
27.4328
21
-19.0767
0
LINE
8
BLACK
6
CONTINUOUS
10
27.4328
20
-19.0767
11
27.3376
21
-19.3624
0
LINE
8
BLACK
6
CONTINUOUS
10
27.3376
20
-19.3624
11
26.1947
21
-20.5053
0
LINE
8
BLACK
6
CONTINUOUS
10
26.1947
20
-20.5053
11
27.4328
21
-20.5053
0
LINE
8
BLACK
6
CONTINUOUS
10
29.1471
20
-18.5053
11
28.7662
21
-18.5053
0
LINE
8
BLACK
6
CONTINUOUS
10
28.7662
20
-18.5053
11
28.5757
21
-18.6005
0
LINE
8
BLACK
6
CONTINUOUS
10
28.5757
20
-18.6005
11
28.4805
21
-18.6957
0
LINE
8
BLACK
6
CONTINUOUS
10
28.4805
20
-18.6957
11
28.29
21
-18.9815
0
LINE
8
BLACK
6
CONTINUOUS
10
28.29
20
-18.9815
11
28.1947
21
-19.3624
0
LINE
8
BLACK
6
CONTINUOUS
10
28.1947
20
-19.3624
11
28.1947
21
-20.1243
0
LINE
8
BLACK
6
CONTINUOUS
10
28.1947
20
-20.1243
11
28.29
21
-20.3148
0
LINE
8
BLACK
6
CONTINUOUS
10
28.29
20
-20.3148
11
28.3852
21
-20.41
0
LINE
8
BLACK
6
CONTINUOUS
10
28.3852
20
-20.41
11
28.5757
21
-20.5053
0
LINE
8
BLACK
6
CONTINUOUS
10
28.5757
20
-20.5053
11
28.9566
21
-20.5053
0
LINE
8
BLACK
6
CONTINUOUS
10
28.9566
20
-20.5053
11
29.1471
21
-20.41
0
LINE
8
BLACK
6
CONTINUOUS
10
29.1471
20
-20.41
11
29.2424
21
-20.3148
0
LINE
8
BLACK
6
CONTINUOUS
10
29.2424
20
-20.3148
11
29.3376
21
-20.1243
0
LINE
8
BLACK
6
CONTINUOUS
10
29.3376
20
-20.1243
11
29.3376
21
-19.6481
0
LINE
8
BLACK
6
CONTINUOUS
10
29.3376
20
-19.6481
11
29.2424
21
-19.4576
0
LINE
8
BLACK
6
CONTINUOUS
10
29.2424
20
-19.4576
11
29.1471
21
-19.3624
0
LINE
8
BLACK
6
CONTINUOUS
10
29.1471
20
-19.3624
11
28.9566
21
-19.2672
0
LINE
8
BLACK
6
CONTINUOUS
10
28.9566
20
-19.2672
11
28.5757
21
-19.2672
0
LINE
8
BLACK
6
CONTINUOUS
10
28.5757
20
-19.2672
11
28.3852
21
-19.3624
0
LINE
8
BLACK
6
CONTINUOUS
10
28.3852
20
-19.3624
11
28.29
21
-19.4576
0
LINE
8
BLACK
6
CONTINUOUS
10
28.29
20
-19.4576
11
28.1947
21
-19.6481
0
LINE
8
BLACK
6
CONTINUOUS
10
30.5757
20
-18.5053
11
30.7662
21
-18.5053
0
LINE
8
BLACK
6
CONTINUOUS
10
30.7662
20
-18.5053
11
30.9566
21
-18.6005
0
LINE
8
BLACK
6
CONTINUOUS
10
30.9566
20
-18.6005
11
31.0519
21
-18.6957
0
LINE
8
BLACK
6
CONTINUOUS
10
31.0519
20
-18.6957
11
31.1471
21
-18.8862
0
LINE
8
BLACK
6
CONTINUOUS
10
31.1471
20
-18.8862
11
31.2424
21
-19.2672
0
LINE
8
BLACK
6
CONTINUOUS
10
31.2424
20
-19.2672
11
31.2424
21
-19.7434
0
LINE
8
BLACK
6
CONTINUOUS
10
31.2424
20
-19.7434
11
31.1471
21
-20.1243
0
LINE
8
BLACK
6
CONTINUOUS
10
31.1471
20
-20.1243
11
31.0519
21
-20.3148
0
LINE
8
BLACK
6
CONTINUOUS
10
31.0519
20
-20.3148
11
30.9566
21
-20.41
0
LINE
8
BLACK
6
CONTINUOUS
10
30.9566
20
-20.41
11
30.7662
21
-20.5053
0
LINE
8
BLACK
6
CONTINUOUS
10
30.7662
20
-20.5053
11
30.5757
21
-20.5053
0
LINE
8
BLACK
6
CONTINUOUS
10
30.5757
20
-20.5053
11
30.3852
21
-20.41
0
LINE
8
BLACK
6
CONTINUOUS
10
30.3852
20
-20.41
11
30.29
21
-20.3148
0
LINE
8
BLACK
6
CONTINUOUS
10
30.29
20
-20.3148
11
30.1947
21
-20.1243
0
LINE
8
BLACK
6
CONTINUOUS
10
30.1947
20
-20.1243
11
30.0995
21
-19.7434
0
LINE
8
BLACK
6
CONTINUOUS
10
30.0995
20
-19.7434
11
30.0995
21
-19.2672
0
LINE
8
BLACK
6
CONTINUOUS
10
30.0995
20
-19.2672
11
30.1947
21
-18.8862
0
LINE
8
BLACK
6
CONTINUOUS
10
30.1947
20
-18.8862
11
30.29
21
-18.6957
0
LINE
8
BLACK
6
CONTINUOUS
10
30.29
20
-18.6957
11
30.3852
21
-18.6005
0
LINE
8
BLACK
6
CONTINUOUS
10
30.3852
20
-18.6005
11
30.5757
21
-18.5053
0
LINE
8
BLACK
6
CONTINUOUS
10
32.0043
20
-18.5053
11
32.0043
21
-18.8862
0
LINE
8
BLACK
6
CONTINUOUS
10
32.7662
20
-18.5053
11
32.7662
21
-18.8862
0
LINE
8
BLACK
6
CONTINUOUS
10
35.7185
20
-21.2672
11
35.6233
21
-21.1719
0
LINE
8
BLACK
6
CONTINUOUS
10
35.6233
20
-21.1719
11
35.4328
21
-20.8862
0
LINE
8
BLACK
6
CONTINUOUS
10
35.4328
20
-20.8862
11
35.3376
21
-20.6957
0
LINE
8
BLACK
6
CONTINUOUS
10
35.3376
20
-20.6957
11
35.2424
21
-20.41
0
LINE
8
BLACK
6
CONTINUOUS
10
35.2424
20
-20.41
11
35.1471
21
-19.9338
0
LINE
8
BLACK
6
CONTINUOUS
10
35.1471
20
-19.9338
11
35.1471
21
-19.5529
0
LINE
8
BLACK
6
CONTINUOUS
10
35.1471
20
-19.5529
11
35.2424
21
-19.0767
0
LINE
8
BLACK
6
CONTINUOUS
10
35.2424
20
-19.0767
11
35.3376
21
-18.791
0
LINE
8
BLACK
6
CONTINUOUS
10
35.3376
20
-18.791
11
35.4328
21
-18.6005
0
LINE
8
BLACK
6
CONTINUOUS
10
35.4328
20
-18.6005
11
35.6233
21
-18.3148
0
LINE
8
BLACK
6
CONTINUOUS
10
35.6233
20
-18.3148
11
35.7185
21
-18.2195
0
LINE
8
BLACK
6
CONTINUOUS
10
36.29
20
-18.5053
11
37.5281
21
-18.5053
0
LINE
8
BLACK
6
CONTINUOUS
10
37.5281
20
-18.5053
11
36.8614
21
-19.2672
0
LINE
8
BLACK
6
CONTINUOUS
10
36.8614
20
-19.2672
11
37.1471
21
-19.2672
0
LINE
8
BLACK
6
CONTINUOUS
10
37.1471
20
-19.2672
11
37.3376
21
-19.3624
0
LINE
8
BLACK
6
CONTINUOUS
10
37.3376
20
-19.3624
11
37.4328
21
-19.4576
0
LINE
8
BLACK
6
CONTINUOUS
10
37.4328
20
-19.4576
11
37.5281
21
-19.6481
0
LINE
8
BLACK
6
CONTINUOUS
10
37.5281
20
-19.6481
11
37.5281
21
-20.1243
0
LINE
8
BLACK
6
CONTINUOUS
10
37.5281
20
-20.1243
11
37.4328
21
-20.3148
0
LINE
8
BLACK
6
CONTINUOUS
10
37.4328
20
-20.3148
11
37.3376
21
-20.41
0
LINE
8
BLACK
6
CONTINUOUS
10
37.3376
20
-20.41
11
37.1471
21
-20.5053
0
LINE
8
BLACK
6
CONTINUOUS
10
37.1471
20
-20.5053
11
36.5757
21
-20.5053
0
LINE
8
BLACK
6
CONTINUOUS
10
36.5757
20
-20.5053
11
36.3852
21
-20.41
0
LINE
8
BLACK
6
CONTINUOUS
10
36.3852
20
-20.41
11
36.29
21
-20.3148
0
LINE
8
BLACK
6
CONTINUOUS
10
39.909
20
-20.5053
11
39.909
21
-18.5053
0
LINE
8
BLACK
6
CONTINUOUS
10
40.7662
20
-20.5053
11
40.7662
21
-19.4576
0
LINE
8
BLACK
6
CONTINUOUS
10
40.7662
20
-19.4576
11
40.6709
21
-19.2672
0
LINE
8
BLACK
6
CONTINUOUS
10
40.6709
20
-19.2672
11
40.4805
21
-19.1719
0
LINE
8
BLACK
6
CONTINUOUS
10
40.4805
20
-19.1719
11
40.1947
21
-19.1719
0
LINE
8
BLACK
6
CONTINUOUS
10
40.1947
20
-19.1719
11
40.0043
21
-19.2672
0
LINE
8
BLACK
6
CONTINUOUS
10
40.0043
20
-19.2672
11
39.909
21
-19.3624
0
LINE
8
BLACK
6
CONTINUOUS
10
42.0043
20
-20.5053
11
41.8138
21
-20.41
0
LINE
8
BLACK
6
CONTINUOUS
10
41.8138
20
-20.41
11
41.7185
21
-20.3148
0
LINE
8
BLACK
6
CONTINUOUS
10
41.7185
20
-20.3148
11
41.6233
21
-20.1243
0
LINE
8
BLACK
6
CONTINUOUS
10
41.6233
20
-20.1243
11
41.6233
21
-19.5529
0
LINE
8
BLACK
6
CONTINUOUS
10
41.6233
20
-19.5529
11
41.7185
21
-19.3624
0
LINE
8
BLACK
6
CONTINUOUS
10
41.7185
20
-19.3624
11
41.8138
21
-19.2672
0
LINE
8
BLACK
6
CONTINUOUS
10
41.8138
20
-19.2672
11
42.0043
21
-19.1719
0
LINE
8
BLACK
6
CONTINUOUS
10
42.0043
20
-19.1719
11
42.29
21
-19.1719
0
LINE
8
BLACK
6
CONTINUOUS
10
42.29
20
-19.1719
11
42.4805
21
-19.2672
0
LINE
8
BLACK
6
CONTINUOUS
10
42.4805
20
-19.2672
11
42.5757
21
-19.3624
0
LINE
8
BLACK
6
CONTINUOUS
10
42.5757
20
-19.3624
11
42.6709
21
-19.5529
0
LINE
8
BLACK
6
CONTINUOUS
10
42.6709
20
-19.5529
11
42.6709
21
-20.1243
0
LINE
8
BLACK
6
CONTINUOUS
10
42.6709
20
-20.1243
11
42.5757
21
-20.3148
0
LINE
8
BLACK
6
CONTINUOUS
10
42.5757
20
-20.3148
11
42.4805
21
-20.41
0
LINE
8
BLACK
6
CONTINUOUS
10
42.4805
20
-20.41
11
42.29
21
-20.5053
0
LINE
8
BLACK
6
CONTINUOUS
10
42.29
20
-20.5053
11
42.0043
21
-20.5053
0
LINE
8
BLACK
6
CONTINUOUS
10
43.8138
20
-20.5053
11
43.6233
21
-20.41
0
LINE
8
BLACK
6
CONTINUOUS
10
43.6233
20
-20.41
11
43.5281
21
-20.2195
0
LINE
8
BLACK
6
CONTINUOUS
10
43.5281
20
-20.2195
11
43.5281
21
-18.5053
0
LINE
8
BLACK
6
CONTINUOUS
10
45.3376
20
-20.41
11
45.1471
21
-20.5053
0
LINE
8
BLACK
6
CONTINUOUS
10
45.1471
20
-20.5053
11
44.7662
21
-20.5053
0
LINE
8
BLACK
6
CONTINUOUS
10
44.7662
20
-20.5053
11
44.5757
21
-20.41
0
LINE
8
BLACK
6
CONTINUOUS
10
44.5757
20
-20.41
11
44.4805
21
-20.2195
0
LINE
8
BLACK
6
CONTINUOUS
10
44.4805
20
-20.2195
11
44.4805
21
-19.4576
0
LINE
8
BLACK
6
CONTINUOUS
10
44.4805
20
-19.4576
11
44.5757
21
-19.2672
0
LINE
8
BLACK
6
CONTINUOUS
10
44.5757
20
-19.2672
11
44.7662
21
-19.1719
0
LINE
8
BLACK
6
CONTINUOUS
10
44.7662
20
-19.1719
11
45.1471
21
-19.1719
0
LINE
8
BLACK
6
CONTINUOUS
10
45.1471
20
-19.1719
11
45.3376
21
-19.2672
0
LINE
8
BLACK
6
CONTINUOUS
10
45.3376
20
-19.2672
11
45.4328
21
-19.4576
0
LINE
8
BLACK
6
CONTINUOUS
10
45.4328
20
-19.4576
11
45.4328
21
-19.6481
0
LINE
8
BLACK
6
CONTINUOUS
10
45.4328
20
-19.6481
11
44.4805
21
-19.8386
0
LINE
8
BLACK
6
CONTINUOUS
10
46.1947
20
-20.41
11
46.3852
21
-20.5053
0
LINE
8
BLACK
6
CONTINUOUS
10
46.3852
20
-20.5053
11
46.7662
21
-20.5053
0
LINE
8
BLACK
6
CONTINUOUS
10
46.7662
20
-20.5053
11
46.9566
21
-20.41
0
LINE
8
BLACK
6
CONTINUOUS
10
46.9566
20
-20.41
11
47.0519
21
-20.2195
0
LINE
8
BLACK
6
CONTINUOUS
10
47.0519
20
-20.2195
11
47.0519
21
-20.1243
0
LINE
8
BLACK
6
CONTINUOUS
10
47.0519
20
-20.1243
11
46.9566
21
-19.9338
0
LINE
8
BLACK
6
CONTINUOUS
10
46.9566
20
-19.9338
11
46.7662
21
-19.8386
0
LINE
8
BLACK
6
CONTINUOUS
10
46.7662
20
-19.8386
11
46.4805
21
-19.8386
0
LINE
8
BLACK
6
CONTINUOUS
10
46.4805
20
-19.8386
11
46.29
21
-19.7434
0
LINE
8
BLACK
6
CONTINUOUS
10
46.29
20
-19.7434
11
46.1947
21
-19.5529
0
LINE
8
BLACK
6
CONTINUOUS
10
46.1947
20
-19.5529
11
46.1947
21
-19.4576
0
LINE
8
BLACK
6
CONTINUOUS
10
46.1947
20
-19.4576
11
46.29
21
-19.2672
0
LINE
8
BLACK
6
CONTINUOUS
10
46.29
20
-19.2672
11
46.4805
21
-19.1719
0
LINE
8
BLACK
6
CONTINUOUS
10
46.4805
20
-19.1719
11
46.7662
21
-19.1719
0
LINE
8
BLACK
6
CONTINUOUS
10
46.7662
20
-19.1719
11
46.9566
21
-19.2672
0
LINE
8
BLACK
6
CONTINUOUS
10
47.7185
20
-21.2672
11
47.8138
21
-21.1719
0
LINE
8
BLACK
6
CONTINUOUS
10
47.8138
20
-21.1719
11
48.0043
21
-20.8862
0
LINE
8
BLACK
6
CONTINUOUS
10
48.0043
20
-20.8862
11
48.0995
21
-20.6957
0
LINE
8
BLACK
6
CONTINUOUS
10
48.0995
20
-20.6957
11
48.1947
21
-20.41
0
LINE
8
BLACK
6
CONTINUOUS
10
48.1947
20
-20.41
11
48.29
21
-19.9338
0
LINE
8
BLACK
6
CONTINUOUS
10
48.29
20
-19.9338
11
48.29
21
-19.5529
0
LINE
8
BLACK
6
CONTINUOUS
10
48.29
20
-19.5529
11
48.1947
21
-19.0767
0
LINE
8
BLACK
6
CONTINUOUS
10
48.1947
20
-19.0767
11
48.0995
21
-18.791
0
LINE
8
BLACK
6
CONTINUOUS
10
48.0995
20
-18.791
11
48.0043
21
-18.6005
0
LINE
8
BLACK
6
CONTINUOUS
10
48.0043
20
-18.6005
11
47.8138
21
-18.3148
0
LINE
8
BLACK
6
CONTINUOUS
10
47.8138
20
-18.3148
11
47.7185
21
-18.2195
  0
ENDSEC
  0
EOF
