  0
SECTION
  2
HEADER
  9
$ANGBASE
  50
0.0
  9
$ANGDIR
  70
1
  9
$MEASUREMENT
  70
1
  0
ENDSEC
  0
SECTION
  2
TABLES
  0
TABLE
  2
LTYPE
  70
4
  0
LTYPE
  5
40F
  2
CONTINUOUS
  70
0
  3
Solid line
  72
65
  73
0
  40
0.0
  0
LTYPE
  5
410
  2
DASHDOT
 70
0
  3
Dash Dot ____ _ ____ _
 72
65
 73
4
 40
2.0
 49
1.25
 49
-0.25
 49
0.25
 49
-0.25
  0
LTYPE
  5
411
  2
DASHED
 70
0
  3
Dashed __ __ __ __ __
 72
65
 73
2
 40
0.75
 49
0.5
 49
-0.25
  0
LTYPE
  5
43B
  2
DOTTED
 70
0
  3
Dotted .  .  .  .
 72
65
 73
2
 40
0.2
 49
0.0
 49
-0.2
  0
ENDTAB
  0
TABLE
  2
STYLE
  70
4
  0
STYLE
  2
KICAD
  70
0
  40
0
  41
1
  42
1
  50
0
  71
0
  3
isocp.shx
  0
STYLE
  2
KICADB
  70
0
  40
0
  41
1
  42
1
  50
0
  71
0
  3
isocp.shx
  0
STYLE
  2
KICADI
  70
0
  40
0
  41
1
  42
1
  50
15
  71
0
  3
isocp.shx
  0
STYLE
  2
KICADBI
  70
0
  40
0
  41
1
  42
1
  50
15
  71
0
  3
isocp.shx
  0
ENDTAB
  0
TABLE
  2
LAYER
  70
1
  0
LAYER
  2
BLACK
  70
0
  62
7
  6
CONTINUOUS
  0
ENDTAB
  0
ENDSEC
  0
SECTION
  2
ENTITIES
0
LINE
8
BLACK
6
CONTINUOUS
10
0
20
5
11
0
21
85
0
ARC
8
BLACK
10
5
20
5
40
5
50
-180
51
-90
0
LINE
8
BLACK
6
CONTINUOUS
10
65
20
85
11
65
21
5
0
ARC
8
BLACK
10
60
20
85
40
5
50
-0
51
90
0
ARC
8
BLACK
10
60
20
5
40
5
50
-90
51
-0
0
LINE
8
BLACK
6
CONTINUOUS
10
5
20
90
11
60
21
90
0
ARC
8
BLACK
10
5
20
85
40
5
50
90
51
180
0
LINE
8
BLACK
6
CONTINUOUS
10
60
20
0
11
5
21
0
0
LINE
8
BLACK
6
CONTINUOUS
10
2.57569
20
-3.10526
11
2.57569
21
-1.10526
0
LINE
8
BLACK
6
CONTINUOUS
10
2.57569
20
-1.10526
11
3.05188
21
-1.10526
0
LINE
8
BLACK
6
CONTINUOUS
10
3.05188
20
-1.10526
11
3.33759
21
-1.2005
0
LINE
8
BLACK
6
CONTINUOUS
10
3.33759
20
-1.2005
11
3.52807
21
-1.39098
0
LINE
8
BLACK
6
CONTINUOUS
10
3.52807
20
-1.39098
11
3.62331
21
-1.58145
0
LINE
8
BLACK
6
CONTINUOUS
10
3.62331
20
-1.58145
11
3.71855
21
-1.9624
0
LINE
8
BLACK
6
CONTINUOUS
10
3.71855
20
-1.9624
11
3.71855
21
-2.24812
0
LINE
8
BLACK
6
CONTINUOUS
10
3.71855
20
-2.24812
11
3.62331
21
-2.62907
0
LINE
8
BLACK
6
CONTINUOUS
10
3.62331
20
-2.62907
11
3.52807
21
-2.81955
0
LINE
8
BLACK
6
CONTINUOUS
10
3.52807
20
-2.81955
11
3.33759
21
-3.01002
0
LINE
8
BLACK
6
CONTINUOUS
10
3.33759
20
-3.01002
11
3.05188
21
-3.10526
0
LINE
8
BLACK
6
CONTINUOUS
10
3.05188
20
-3.10526
11
2.57569
21
-3.10526
0
LINE
8
BLACK
6
CONTINUOUS
10
4.57569
20
-3.10526
11
4.57569
21
-1.77193
0
LINE
8
BLACK
6
CONTINUOUS
10
4.57569
20
-2.15288
11
4.67093
21
-1.9624
0
LINE
8
BLACK
6
CONTINUOUS
10
4.67093
20
-1.9624
11
4.76617
21
-1.86717
0
LINE
8
BLACK
6
CONTINUOUS
10
4.76617
20
-1.86717
11
4.95664
21
-1.77193
0
LINE
8
BLACK
6
CONTINUOUS
10
4.95664
20
-1.77193
11
5.14712
21
-1.77193
0
LINE
8
BLACK
6
CONTINUOUS
10
5.81378
20
-3.10526
11
5.81378
21
-1.77193
0
LINE
8
BLACK
6
CONTINUOUS
10
5.81378
20
-1.10526
11
5.71855
21
-1.2005
0
LINE
8
BLACK
6
CONTINUOUS
10
5.71855
20
-1.2005
11
5.81378
21
-1.29574
0
LINE
8
BLACK
6
CONTINUOUS
10
5.81378
20
-1.29574
11
5.90902
21
-1.2005
0
LINE
8
BLACK
6
CONTINUOUS
10
5.90902
20
-1.2005
11
5.81378
21
-1.10526
0
LINE
8
BLACK
6
CONTINUOUS
10
5.81378
20
-1.10526
11
5.81378
21
-1.29574
0
LINE
8
BLACK
6
CONTINUOUS
10
7.05188
20
-3.10526
11
6.8614
21
-3.01002
0
LINE
8
BLACK
6
CONTINUOUS
10
6.8614
20
-3.01002
11
6.76617
21
-2.81955
0
LINE
8
BLACK
6
CONTINUOUS
10
6.76617
20
-2.81955
11
6.76617
21
-1.10526
0
LINE
8
BLACK
6
CONTINUOUS
10
8.0995
20
-3.10526
11
7.90902
21
-3.01002
0
LINE
8
BLACK
6
CONTINUOUS
10
7.90902
20
-3.01002
11
7.81378
21
-2.81955
0
LINE
8
BLACK
6
CONTINUOUS
10
7.81378
20
-2.81955
11
7.81378
21
-1.10526
0
LINE
8
BLACK
6
CONTINUOUS
10
10.3852
20
-3.10526
11
10.3852
21
-1.10526
0
LINE
8
BLACK
6
CONTINUOUS
10
10.3852
20
-1.10526
11
11.0519
21
-2.53383
0
LINE
8
BLACK
6
CONTINUOUS
10
11.0519
20
-2.53383
11
11.7185
21
-1.10526
0
LINE
8
BLACK
6
CONTINUOUS
10
11.7185
20
-1.10526
11
11.7185
21
-3.10526
0
LINE
8
BLACK
6
CONTINUOUS
10
13.5281
20
-3.10526
11
13.5281
21
-2.05764
0
LINE
8
BLACK
6
CONTINUOUS
10
13.5281
20
-2.05764
11
13.4328
21
-1.86717
0
LINE
8
BLACK
6
CONTINUOUS
10
13.4328
20
-1.86717
11
13.2424
21
-1.77193
0
LINE
8
BLACK
6
CONTINUOUS
10
13.2424
20
-1.77193
11
12.8614
21
-1.77193
0
LINE
8
BLACK
6
CONTINUOUS
10
12.8614
20
-1.77193
11
12.6709
21
-1.86717
0
LINE
8
BLACK
6
CONTINUOUS
10
13.5281
20
-3.01002
11
13.3376
21
-3.10526
0
LINE
8
BLACK
6
CONTINUOUS
10
13.3376
20
-3.10526
11
12.8614
21
-3.10526
0
LINE
8
BLACK
6
CONTINUOUS
10
12.8614
20
-3.10526
11
12.6709
21
-3.01002
0
LINE
8
BLACK
6
CONTINUOUS
10
12.6709
20
-3.01002
11
12.5757
21
-2.81955
0
LINE
8
BLACK
6
CONTINUOUS
10
12.5757
20
-2.81955
11
12.5757
21
-2.62907
0
LINE
8
BLACK
6
CONTINUOUS
10
12.5757
20
-2.62907
11
12.6709
21
-2.43859
0
LINE
8
BLACK
6
CONTINUOUS
10
12.6709
20
-2.43859
11
12.8614
21
-2.34336
0
LINE
8
BLACK
6
CONTINUOUS
10
12.8614
20
-2.34336
11
13.3376
21
-2.34336
0
LINE
8
BLACK
6
CONTINUOUS
10
13.3376
20
-2.34336
11
13.5281
21
-2.24812
0
LINE
8
BLACK
6
CONTINUOUS
10
14.4805
20
-1.77193
11
14.4805
21
-3.77193
0
LINE
8
BLACK
6
CONTINUOUS
10
14.4805
20
-1.86717
11
14.6709
21
-1.77193
0
LINE
8
BLACK
6
CONTINUOUS
10
14.6709
20
-1.77193
11
15.0519
21
-1.77193
0
LINE
8
BLACK
6
CONTINUOUS
10
15.0519
20
-1.77193
11
15.2424
21
-1.86717
0
LINE
8
BLACK
6
CONTINUOUS
10
15.2424
20
-1.86717
11
15.3376
21
-1.9624
0
LINE
8
BLACK
6
CONTINUOUS
10
15.3376
20
-1.9624
11
15.4328
21
-2.15288
0
LINE
8
BLACK
6
CONTINUOUS
10
15.4328
20
-2.15288
11
15.4328
21
-2.72431
0
LINE
8
BLACK
6
CONTINUOUS
10
15.4328
20
-2.72431
11
15.3376
21
-2.91478
0
LINE
8
BLACK
6
CONTINUOUS
10
15.3376
20
-2.91478
11
15.2424
21
-3.01002
0
LINE
8
BLACK
6
CONTINUOUS
10
15.2424
20
-3.01002
11
15.0519
21
-3.10526
0
LINE
8
BLACK
6
CONTINUOUS
10
15.0519
20
-3.10526
11
14.6709
21
-3.10526
0
LINE
8
BLACK
6
CONTINUOUS
10
14.6709
20
-3.10526
11
14.4805
21
-3.01002
0
LINE
8
BLACK
6
CONTINUOUS
10
16.29
20
-2.91478
11
16.3852
21
-3.01002
0
LINE
8
BLACK
6
CONTINUOUS
10
16.3852
20
-3.01002
11
16.29
21
-3.10526
0
LINE
8
BLACK
6
CONTINUOUS
10
16.29
20
-3.10526
11
16.1947
21
-3.01002
0
LINE
8
BLACK
6
CONTINUOUS
10
16.1947
20
-3.01002
11
16.29
21
-2.91478
0
LINE
8
BLACK
6
CONTINUOUS
10
16.29
20
-2.91478
11
16.29
21
-3.10526
0
LINE
8
BLACK
6
CONTINUOUS
10
16.29
20
-1.86717
11
16.3852
21
-1.9624
0
LINE
8
BLACK
6
CONTINUOUS
10
16.3852
20
-1.9624
11
16.29
21
-2.05764
0
LINE
8
BLACK
6
CONTINUOUS
10
16.29
20
-2.05764
11
16.1947
21
-1.9624
0
LINE
8
BLACK
6
CONTINUOUS
10
16.1947
20
-1.9624
11
16.29
21
-1.86717
0
LINE
8
BLACK
6
CONTINUOUS
10
16.29
20
-1.86717
11
16.29
21
-2.05764
  0
ENDSEC
  0
EOF
