M48
METRIC,TZ
T1C0.400
T2C0.500
T3C0.740
T4C1.000
T5C1.280
T6C3.200
%
G90
G05
T1
X23500Y32200
X23500Y28750
X23500Y25300
X23500Y21850
X26150Y31050
X26150Y27600
X26150Y24150
X26150Y20700
X28975Y30575
X28975Y23775
X29000Y34100
X29000Y27200
X29600Y14600
X29600Y5450
X32140Y14600
X32140Y5450
X34000Y53200
X34000Y49750
X34000Y46300
X34000Y42850
X34680Y14600
X34680Y5450
X36650Y52050
X36650Y48600
X36650Y45150
X36650Y41700
X37220Y14600
X37220Y5450
X39475Y48175
X39475Y44775
X39500Y55100
X39500Y51700
X39760Y14600
X39760Y5450
X40800Y64180
X42300Y14600
X42300Y5450
X43550Y66030
X43550Y62380
X44840Y14600
X44840Y5450
X46300Y64180
X47380Y14600
X47380Y5450
T2
X2600Y85000
X2600Y5000
X3303Y86697
X3303Y83303
X3303Y6697
X3303Y3303
X5000Y87400
X5000Y82600
X5000Y7400
X5000Y2600
X6697Y86697
X6697Y83303
X6697Y6697
X6697Y3303
X7400Y85000
X7400Y5000
X44900Y79400
X45900Y79400
X52000Y45000
X52000Y44000
X57600Y45000
X58303Y46697
X58303Y43303
X60000Y47400
X60000Y42600
X61697Y46697
X61697Y43303
X62400Y45000
T3
X56865Y60540
X56865Y59270
X56865Y58000
X56865Y56730
X56865Y55460
X56865Y34540
X56865Y33270
X56865Y32000
X56865Y30730
X56865Y29460
X58135Y60540
X58135Y59270
X58135Y58000
X58135Y56730
X58135Y55460
X58135Y34540
X58135Y33270
X58135Y32000
X58135Y30730
X58135Y29460
T4
X11750Y81250
X11750Y78710
X11750Y76170
X11750Y73630
X11750Y71090
X11750Y68550
X11750Y66010
X11750Y63470
X34610Y81250
X34610Y78710
X34610Y76170
X34610Y73630
X34610Y71090
X34610Y68550
X34610Y66010
X34610Y63470
T5
X53200Y70500
X53200Y67960
X53200Y65420
T6
X5000Y85000
X5000Y5000
X60000Y45000
T0
M30
